<?xml version="1.0" encoding="UTF-8"?>
<svg width="7px" height="14px" viewBox="0 0 7 14" version="1.1" xmlns="http://www.w3.org/2000/svg" xmlns:xlink="http://www.w3.org/1999/xlink">
    <g id="insight增强需求" stroke="none" stroke-width="1" fill="none" fill-rule="evenodd" fill-opacity="0.4">
        <g id="时间轴" transform="translate(-70.000000, -1934.000000)" fill="#FFFFFF">
            <g id="Group-8" transform="translate(65.700000, 1768.165643)">
                <g id="编组" transform="translate(0.000000, 164.765643)">
                    <rect id="矩形" opacity="0" x="0" y="0" width="16" height="16"></rect>
                    <path d="M10.6259167,14.3334167 C10.45525,14.3334167 10.2845833,14.2680833 10.1545833,14.1380833 L5.19525,9.17875 C4.88058333,8.86341667 4.70725,8.44541667 4.70725,8.00008333 C4.70725,7.55408333 4.88058333,7.13541667 5.19525,6.82075 L10.1545833,1.86208333 C10.41525,1.60141667 10.8365833,1.60141667 11.09725,1.86208333 C11.3579167,2.12275 11.3579167,2.54408333 11.09725,2.80475 L6.13791667,7.76408333 C6.05325,7.84941667 6.04058333,7.94875 6.04058333,8.00008333 C6.04058333,8.05141667 6.05325,8.15075 6.13791667,8.23608333 L11.09725,13.1954167 C11.3579167,13.4560833 11.3579167,13.8774167 11.09725,14.1380833 C10.96725,14.2680833 10.7965833,14.3334167 10.6259167,14.3334167" id="Fill-1"></path>
                </g>
            </g>
        </g>
    </g>
</svg>