<?xml version="1.0" encoding="UTF-8"?>
<svg width="16px" height="16px" viewBox="0 0 16 16" version="1.1" xmlns="http://www.w3.org/2000/svg" xmlns:xlink="http://www.w3.org/1999/xlink">
    <g id="封稿最终版！！" stroke="none" stroke-width="1" fill="none" fill-rule="evenodd">
        <g id="1-insight-通用-Allocations---jsallocation-0" transform="translate(-224.000000, -430.000000)" fill="#FFFFFF">
            <g id="Group-31" transform="translate(0.000000, 240.000000)">
                <g id="Group-9" transform="translate(0.000000, 44.000000)">
                    <g id="Group-6" transform="translate(0.000000, 106.000000)">
                        <g id="Group-4" transform="translate(16.000000, 0.000000)">
                            <g id="list-01-copy-2" transform="translate(0.000000, 34.000000)">
                                <g id="CA11D3E5-E104-4406-9430-82B001999DE6_0" transform="translate(208.000000, 6.000000)">
                                    <path d="M8,1.33333333 C9.60709386,1.33333333 11.12698,1.90448757 12.3245415,2.92630784 C12.5346078,3.10554714 12.5595981,3.42114175 12.3803588,3.63120813 C12.2011195,3.84127451 11.8855249,3.8662648 11.6754585,3.68702549 C10.6572384,2.81822839 9.36689474,2.33333333 8,2.33333333 C4.87080904,2.33333333 2.33333333,4.87080904 2.33333333,8 C2.33333333,11.129191 4.87080904,13.6666667 8,13.6666667 C11.129191,13.6666667 13.6666667,11.129191 13.6666667,8 C13.6666667,6.89847562 13.3519289,5.84422182 12.7687441,4.93704546 C12.619418,4.70476044 12.6866695,4.39540351 12.9189545,4.24607743 C13.1512396,4.09675134 13.4605965,4.16400285 13.6099226,4.39628787 C14.2959763,5.46348256 14.6666667,6.70515663 14.6666667,8 C14.6666667,11.6814757 11.6814757,14.6666667 8,14.6666667 C4.31852429,14.6666667 1.33333333,11.6814757 1.33333333,8 C1.33333333,4.31852429 4.31852429,1.33333333 8,1.33333333 Z M5.73633333,6.10586667 C5.73633333,5.20762814 6.70831262,4.64643821 7.48630635,5.09550505 L7.48630635,5.09550505 L10.7649549,6.98816126 C11.543015,7.43726644 11.543015,8.55980023 10.765039,9.00885682 L10.765039,9.00885682 L7.48628823,10.9022387 C6.70831262,11.3512951 5.73633333,10.7901052 5.73633333,9.89186667 L5.73633333,9.89186667 Z M6.98637844,5.96157207 C6.87505091,5.89731255 6.73633333,5.97740367 6.73633333,6.10586667 L6.73633333,6.10586667 L6.73633333,9.89186667 C6.73633333,10.0203297 6.87505091,10.1004208 6.98629428,10.0362098 L6.98629428,10.0362098 L10.2650451,8.14282793 C10.3763183,8.07859977 10.3763183,7.9184669 10.265027,7.85422828 L10.265027,7.85422828 Z" id="形状结合"></path>
                                </g>
                            </g>
                        </g>
                    </g>
                </g>
            </g>
        </g>
    </g>
</svg>