<?xml version="1.0" encoding="UTF-8"?>
<svg width="16px" height="16px" viewBox="0 0 16 16" version="1.1" xmlns="http://www.w3.org/2000/svg" xmlns:xlink="http://www.w3.org/1999/xlink">
    <g id="封稿最终版！！" stroke="none" stroke-width="1" fill="none" fill-rule="evenodd">
        <g id="1-insight-通用-Allocations---jsallocation-0" transform="translate(-487.000000, -432.000000)" fill="#FFFFFF">
            <g id="Group-2" transform="translate(272.500000, 424.000000)">
                <g id="C4A5BDAB-422F-4577-B42B-26A08E099F78_0" transform="translate(214.500000, 8.000000)">
                    <path d="M8,1.33333333 C9.60709386,1.33333333 11.12698,1.90448757 12.3245415,2.92630784 C12.5346078,3.10554714 12.5595981,3.42114175 12.3803588,3.63120813 C12.2011195,3.84127451 11.8855249,3.8662648 11.6754585,3.68702549 C10.6572384,2.81822839 9.36689474,2.33333333 8,2.33333333 C4.87080904,2.33333333 2.33333333,4.87080904 2.33333333,8 C2.33333333,11.129619 4.87057043,13.6666667 8,13.6666667 C11.1294296,13.6666667 13.6666667,11.129619 13.6666667,8 C13.6666667,6.89847562 13.3519289,5.84422182 12.7687441,4.93704546 C12.619418,4.70476044 12.6866695,4.39540351 12.9189545,4.24607743 C13.1512396,4.09675134 13.4605965,4.16400285 13.6099226,4.39628787 C14.2959763,5.46348256 14.6666667,6.70515663 14.6666667,8 C14.6666667,11.6819205 11.6816976,14.6666667 8,14.6666667 C4.3183024,14.6666667 1.33333333,11.6819205 1.33333333,8 C1.33333333,4.31852429 4.31852429,1.33333333 8,1.33333333 Z M8,10.0078 C8.368,10.0078 8.66666667,10.3058 8.66666667,10.6744667 C8.66666667,11.0431333 8.368,11.3411333 8,11.3411333 C7.632,11.3411333 7.33333333,11.0431333 7.33333333,10.6744667 C7.33333333,10.3058 7.632,10.0078 8,10.0078 Z M8,4.17446667 C8.25313051,4.17446667 8.46232731,4.36256925 8.49543559,4.60661963 L8.5,4.67446667 L8.5,8.67446667 C8.5,8.95060904 8.27614237,9.17446667 8,9.17446667 C7.74686949,9.17446667 7.53767269,8.98636408 7.50456441,8.7423137 L7.5,8.67446667 L7.5,4.67446667 C7.5,4.39832429 7.72385763,4.17446667 8,4.17446667 Z" id="形状结合"></path>
                </g>
            </g>
        </g>
    </g>
</svg>