<?xml version="1.0" encoding="UTF-8"?>
<svg width="17px" height="16px" viewBox="0 0 17 16" version="1.1" xmlns="http://www.w3.org/2000/svg" xmlns:xlink="http://www.w3.org/1999/xlink">
    <g id="insight增强需求" stroke="none" stroke-width="1"  fill-rule="evenodd">
        <g id="时间轴" transform="translate(-428.000000, -506.000000)" >
            <g id="Group-2" transform="translate(77.500000, 83.234357)">
                <g id="编组" transform="translate(350.784795, 422.765643)">
                    <rect id="矩形" opacity="0" x="6.66257921e-05" y="0" width="15.9901901" height="16"></rect>
                    <path d="M13.4917229,2.66666667 C13.7676959,2.66666667 13.9914163,2.89038704 13.9914163,3.16636011 L13.9914163,12.8336399 C13.9914163,13.109613 13.7676959,13.3333333 13.4917229,13.3333333 C13.2157498,13.3333333 12.9920294,13.109613 12.9920294,12.8336399 L12.9917738,8.70566667 L11.8462857,9.85355339 L11.7770803,9.91140884 C11.5823316,10.0464049 11.3130724,10.0271197 11.1396125,9.85355339 L11.1396125,9.85355339 L11.0817925,9.7843055 C10.9468792,9.58943736 10.9661526,9.32001296 11.1396125,9.14644661 L11.1396125,9.14644661 L11.7847738,8.49966667 L4.20377376,8.49966667 L4.85057758,9.14644661 C5.02403751,9.32001296 5.04331084,9.58943736 4.90839755,9.7843055 L4.85057758,9.85355339 C4.67711764,10.0271197 4.40785843,10.0464049 4.21310977,9.91140884 L4.14390434,9.85355339 L2.99777376,8.70566667 L2.99816064,12.8336399 C2.99816064,13.109613 2.77444026,13.3333333 2.4984672,13.3333333 C2.22249413,13.3333333 1.99877376,13.109613 1.99877376,12.8336399 L1.99877376,3.16636011 C1.99877376,2.89038704 2.22249413,2.66666667 2.4984672,2.66666667 C2.77444026,2.66666667 2.99816064,2.89038704 2.99816064,3.16636011 L2.99777376,7.29266667 L4.14390434,6.14644661 C4.33904676,5.95118446 4.65543515,5.95118446 4.85057758,6.14644661 C5.02403751,6.32001296 5.04331084,6.58943736 4.90839755,6.7843055 L4.85057758,6.85355339 L4.20377376,7.49966667 L11.7847738,7.49966667 L11.1396125,6.85355339 L11.0817925,6.7843055 C10.9468792,6.58943736 10.9661526,6.32001296 11.1396125,6.14644661 C11.3347549,5.95118446 11.6511433,5.95118446 11.8462857,6.14644661 L11.8462857,6.14644661 L12.9917738,7.29266667 L12.9920294,3.16636011 C12.9920294,2.89038704 13.2157498,2.66666667 13.4917229,2.66666667 Z" id="形状结合"></path>
                </g>
            </g>
        </g>
    </g>
</svg>