<?xml version="1.0" encoding="UTF-8"?>
<svg width="14px" height="14px" viewBox="0 0 14 14" version="1.1" xmlns="http://www.w3.org/2000/svg" xmlns:xlink="http://www.w3.org/1999/xlink">
    <g id="Page-1" stroke="none" stroke-width="1"  fill-rule="evenodd">
        <g id="3-allocation-设置-1" transform="translate(-249.000000, -467.000000)" >
            <g id="Group-31" transform="translate(0.000000, 240.000000)">
                <g id="Group-9" transform="translate(0.000000, 44.000000)">
                    <g id="Group-6" transform="translate(0.000000, 106.000000)">
                        <g id="Group-4" transform="translate(16.000000, 0.000000)">
                            <g id="list-01-copy-3" transform="translate(0.000000, 76.000000)">
                                <g id="Group-7" transform="translate(8.000000, 0.000000)">
                                    <g id="UIicon/24/trash/line" transform="translate(224.000000, 0.000000)">
                                        <path d="M9.09866667,1.33333333 C9.71607121,1.33333333 10.2660472,1.71015205 10.491973,2.27623275 L10.530474,2.384545 L10.8663333,3.45933333 L13.8333333,3.46 C14.1094757,3.46 14.3333333,3.68385763 14.3333333,3.96 C14.3333333,4.21313051 14.1452307,4.42232731 13.9011804,4.45543559 L13.8333333,4.46 L10.5,4.46 L10.4433333,4.45533333 L10.3966517,4.44930654 L10.3966517,4.44930654 C10.3816714,4.44610269 10.3672488,4.44234637 10.3530435,4.43796489 C10.3376881,4.43334084 10.3226354,4.427902 10.3079374,4.42178188 C10.2956231,4.41654526 10.2828346,4.41059759 10.2703185,4.40412435 C10.2583174,4.39800741 10.2470675,4.39159271 10.2361013,4.38476515 L10.1980649,4.3585905 L10.1980649,4.3585905 C10.1858448,4.34929426 10.1742586,4.33964054 10.1631326,4.32949104 C10.1527898,4.3202361 10.1419687,4.30950662 10.1316302,4.29826312 C10.1214314,4.28697472 10.1118891,4.27560305 10.1028596,4.26381779 C10.0971347,4.25652419 10.0915616,4.248799 10.0861987,4.24089217 C10.0735251,4.22209777 10.062098,4.2025873 10.0520091,4.1822942 C10.0505424,4.17924634 10.0490031,4.1760521 10.0474952,4.17283581 L10.0386462,4.15308744 C10.0341018,4.14224207 10.0299287,4.13120258 10.0261427,4.11998486 L10.0228593,4.109455 L9.57617479,2.68339788 C9.51818347,2.49818068 9.35912692,2.36564429 9.17060411,2.33847839 L9.09866667,2.33333333 L6.56866667,2.33333333 C6.37355702,2.33333333 6.19963372,2.44507515 6.11745547,2.61662488 L6.09107699,2.68365809 L5.64374366,4.10965809 L5.64047092,4.12014199 L5.63433333,4.13433333 L5.63333333,4.13633333 L5.63080021,4.14631387 L5.62433333,4.15933333 L5.60110837,4.20771995 L5.60110837,4.20771995 C5.59558071,4.21735637 5.58974108,4.22682575 5.58360165,4.23607896 C5.57286738,4.25244418 5.5611674,4.26802934 5.54866554,4.28281058 L5.53751407,4.29539688 L5.53751407,4.29539688 L5.52600667,4.30767109 C5.51576392,4.31842922 5.50443861,4.32909754 5.49266824,4.33919728 C5.4800782,4.34994505 5.46714183,4.3600148 5.45372092,4.36944143 C5.4437001,4.37644228 5.43322579,4.3832145 5.42251881,4.3895864 C5.40882864,4.39784674 5.3945476,4.40546654 5.3798753,4.41239357 L5.36097892,4.42072196 L5.36097892,4.42072196 L5.34215992,4.4282141 C5.32994354,4.43293377 5.31685876,4.43725178 5.30354781,4.44103219 C5.28774606,4.44546986 5.27169639,4.44921278 5.25545004,4.45215774 C5.24833505,4.45341232 5.24144695,4.45449501 5.2345137,4.45543559 L5.21218664,4.45805449 L5.17800824,4.46000733 L5.17800824,4.46000733 L3.38533333,4.45933333 L4.19618526,12.5597148 C4.24409876,13.0388498 4.62525241,13.4109901 5.09605061,13.4556361 L5.19133333,13.4601333 L10.476,13.4601333 C10.9579373,13.4601333 11.36597,13.1182807 11.4571969,12.6541295 L11.4711462,12.5597336 L12.1691462,5.57706695 C12.196613,5.30229398 12.4416267,5.10181272 12.7163997,5.12927952 C12.9682749,5.15445743 13.1577245,5.36243519 13.1663938,5.60856846 L13.1641871,5.67653305 L12.4661895,12.6591757 C12.3679311,13.6426146 11.5687891,14.3999114 10.5938081,14.4567102 L10.476,14.4601333 L5.19133333,14.4601333 C4.20334397,14.4601333 3.36981346,13.740261 3.21627441,12.7760577 L3.20114731,12.6592109 L2.38033333,4.45933333 L1.83333333,4.46 C1.55719096,4.46 1.33333333,4.23614237 1.33333333,3.96 C1.33333333,3.70686949 1.52143592,3.49767269 1.7654863,3.46456441 L1.83333333,3.46 L2.76721346,3.45918587 C2.77264153,3.458465 2.77810048,3.45782942 2.78358906,3.45728065 C2.82108726,3.4535314 2.85803131,3.4540275 2.89394392,3.4583784 L4.79933333,3.45933333 L5.13684146,2.38460212 C5.32132853,1.79537302 5.84536604,1.38405334 6.45368209,1.33770164 L6.56866667,1.33333333 L9.09866667,1.33333333 Z M6.5,5.46 C6.75313051,5.46 6.96232731,5.64810259 6.99543559,5.89215296 L7,5.96 L7,11.2933333 C7,11.5694757 6.77614237,11.7933333 6.5,11.7933333 C6.24686949,11.7933333 6.03767269,11.6052307 6.00456441,11.3611804 L6,11.2933333 L6,5.96 C6,5.68385763 6.22385763,5.46 6.5,5.46 Z M9.16666667,5.46 C9.41979718,5.46 9.62899397,5.64810259 9.66210226,5.89215296 L9.66666667,5.96 L9.66666667,11.2933333 C9.66666667,11.5694757 9.44280904,11.7933333 9.16666667,11.7933333 C8.91353616,11.7933333 8.70433936,11.6052307 8.67123108,11.3611804 L8.66666667,11.2933333 L8.66666667,5.96 C8.66666667,5.68385763 8.89052429,5.46 9.16666667,5.46 Z" id="形状结合"></path>
                                    </g>
                                </g>
                            </g>
                        </g>
                    </g>
                </g>
            </g>
        </g>
    </g>
</svg>