<?xml version="1.0" encoding="UTF-8"?>
<svg width="24px" height="24px" viewBox="0 0 24 24" version="1.1" xmlns="http://www.w3.org/2000/svg" xmlns:xlink="http://www.w3.org/1999/xlink">
    <g id="ic/UIicon/Pause/line" stroke="none" stroke-width="1" fill="none" fill-rule="evenodd">
        <path d="M12,2 C14.4106408,2 16.69047,2.85673136 18.4868122,4.38946176 C18.8019118,4.65832071 18.8393972,5.13171263 18.5705382,5.4468122 C18.3016793,5.76191177 17.8282874,5.79939719 17.5131878,5.53053824 C15.9858576,4.22734258 14.0503421,3.5 12,3.5 C7.30621356,3.5 3.5,7.30621356 3.5,12 C3.5,16.6937864 7.30621356,20.5 12,20.5 C16.6937864,20.5 20.5,16.6937864 20.5,12 C20.5,10.3461578 20.0279929,8.76511067 19.1525142,7.40618675 C18.9281835,7.05797907 19.0286056,6.59384496 19.3768132,6.36951422 C19.7250209,6.14518347 20.189155,6.24560557 20.4134858,6.59381325 C21.4439084,8.19324208 22,10.055941 22,12 C22,17.5222136 17.5222136,22 12,22 C6.47778644,22 2,17.5222136 2,12 C2,6.47778644 6.47778644,2 12,2 Z M9.5,7.7485 C9.87969577,7.7485 10.193491,8.03065388 10.2431534,8.39672944 L10.25,8.4985 L10.25,15.4985 C10.25,15.9127136 9.91421356,16.2485 9.5,16.2485 C9.12030423,16.2485 8.80650904,15.9663461 8.75684662,15.6002706 L8.75,15.4985 L8.75,8.4985 C8.75,8.08428644 9.08578644,7.7485 9.5,7.7485 Z M14.5,7.7485 C14.8796958,7.7485 15.193491,8.03065388 15.2431534,8.39672944 L15.25,8.4985 L15.25,15.4985 C15.25,15.9127136 14.9142136,16.2485 14.5,16.2485 C14.1203042,16.2485 13.806509,15.9663461 13.7568466,15.6002706 L13.75,15.4985 L13.75,8.4985 C13.75,8.08428644 14.0857864,7.7485 14.5,7.7485 Z" id="形状结合" fill="#191919"></path>
    </g>
</svg>