<?xml version="1.0" encoding="UTF-8"?>
<svg width="16px" height="16px" viewBox="0 0 16 16" version="1.1" xmlns="http://www.w3.org/2000/svg" xmlns:xlink="http://www.w3.org/1999/xlink">
    <g id="封稿最终版！！" stroke="none" stroke-width="1" fill="none" fill-rule="evenodd">
        <g id="1-insight-通用-Allocations---jsallocation-0" transform="translate(-463.000000, -432.000000)" fill="#FFFFFF">
            <g id="Group-2" transform="translate(272.500000, 424.000000)">
                <g id="8E0C306C-8E29-44C6-9EC8-7A1A53C765DC_0" transform="translate(190.500000, 8.000000)">
                    <path d="M12.7138898,3.28577994 C15.3171438,5.88903393 15.3171438,10.1102453 12.7138898,12.7142201 C10.1106276,15.3174822 5.88937848,15.3174822 3.28611633,12.7142201 C3.09085419,12.5189579 3.09085419,12.2023754 3.28611633,12.0071133 C3.48137848,11.8118511 3.79796097,11.8118511 3.99322312,12.0071133 C6.20596097,14.2198511 9.79404515,14.2198511 12.0067341,12.0071622 C14.219529,9.79375465 14.219529,6.20563273 12.006783,3.99288672 C9.79404515,1.78014887 6.20596097,1.78014887 3.99332096,3.99278885 C3.25279135,4.7337285 2.74623353,5.64357963 2.50182298,6.62498345 L2.67741795,6.44854502 C2.87262574,6.25322854 3.18920822,6.25314043 3.3845247,6.44834822 C3.56208514,6.62580985 3.57829982,6.90358114 3.43311799,7.09936255 L3.3847215,7.15545498 L2.18738817,8.35345498 L2.17464945,8.36569759 C2.1604917,8.37890413 2.14556625,8.39129828 2.12994738,8.40280576 L2.18738817,8.35345498 C2.16227372,8.37858341 2.13515026,8.40048041 2.1065345,8.41914582 C2.09267452,8.4281086 2.0779926,8.43667699 2.06286026,8.44449533 C2.04998932,8.45118996 2.03720558,8.45709181 2.02424307,8.46242577 C2.01263684,8.46720175 2.00032928,8.47173677 1.98780539,8.47579104 C1.9713568,8.48107112 1.95530676,8.48535563 1.93911762,8.48882976 C1.9270437,8.49147389 1.91398801,8.49376347 1.90076873,8.49553649 C1.88584174,8.49751156 1.87115807,8.49882224 1.85645062,8.49948696 C1.84879915,8.49983113 1.84125416,8.5 1.83366972,8.5 L1.8113002,8.49949953 C1.79683512,8.49885382 1.7823927,8.49758331 1.76801686,8.49568797 L1.83366972,8.5 C1.79648977,8.5 1.76025764,8.49594189 1.7253921,8.48824445 C1.71166316,8.48516655 1.69754168,8.48141014 1.68357456,8.47702634 C1.66850537,8.4723394 1.65386233,8.46695464 1.63955858,8.4609235 C1.62801303,8.45603797 1.61663549,8.45073654 1.60542971,8.44498397 C1.59180531,8.43798409 1.57851498,8.43035709 1.56562563,8.42215601 C1.55423474,8.41492499 1.54285878,8.4070163 1.53175481,8.39858145 C1.51839892,8.38844693 1.5057798,8.3778427 1.49371408,8.36665021 C1.48914959,8.36235416 1.48468469,8.3580526 1.48028142,8.35365178 L1.46606973,8.3389289 C1.45542235,8.32738662 1.44531171,8.31534173 1.43577741,8.30283383 L1.48028142,8.35365178 C1.45353353,8.32691878 1.43044702,8.29790947 1.41102205,8.26724706 C1.40338015,8.25520741 1.39626765,8.2428479 1.38968219,8.2301707 C1.38260836,8.21648204 1.37612009,8.2023901 1.37032117,8.18808403 C1.36557209,8.1765568 1.36135458,8.16495278 1.35756322,8.15315771 C1.35225692,8.13635483 1.34769108,8.11896811 1.34407426,8.10142468 C1.34175086,8.09065819 1.33992395,8.08004616 1.33843695,8.06932545 C1.3359818,8.05097663 1.33444507,8.03248828 1.33393059,8.01397674 C1.3337366,8.00953004 1.33366972,8.00477283 1.33366972,8 C1.33366972,6.24406928 2.01920035,4.5533974 3.28611633,3.28577994 C5.88937848,0.682517797 10.1106276,0.682517797 12.7138898,3.28577994 Z M8.00040306,3.5 C8.25353357,3.5 8.46273037,3.68810259 8.49583865,3.93215296 L8.50040306,4 L8.50040306,8 C8.50040306,8.1060866 8.46668887,8.20869717 8.40519388,8.29350724 L8.35395645,8.35355339 L6.35395645,10.3535534 C6.1586943,10.5488155 5.84211181,10.5488155 5.64684967,10.3535534 C5.46933863,10.1760423 5.45320126,9.89826656 5.59843757,9.70252556 L5.64684967,9.64644661 L7.50020306,7.79186667 L7.50040306,4 C7.50040306,3.74686949 7.68850565,3.53767269 7.93255602,3.50456441 L8.00040306,3.5 Z" id="形状结合"></path>
                </g>
            </g>
        </g>
    </g>
</svg>