<?xml version="1.0" encoding="UTF-8"?>
<svg width="96px" height="96px" viewBox="0 0 96 96" version="1.1" xmlns="http://www.w3.org/2000/svg" xmlns:xlink="http://www.w3.org/1999/xlink">
    <g id="封稿最终版！！" stroke="none" stroke-width="1" fill="none" fill-rule="evenodd">
        <g id="light-首页-初始页面需引导" transform="translate(-1056.000000, -614.000000)" fill-rule="nonzero">
            <g id="Group-31" transform="translate(-1.000000, 241.000000)">
                <g id="Group-2" transform="translate(834.000000, 373.000000)">
                    <g id="ic_user_experience_rate_filled" transform="translate(223.000000, 0.000000)">
                        <rect id="矩形" fill="#D8D8D8" opacity="0" x="0" y="0" width="96" height="96"></rect>
                        <path d="M48,12.0000001 C70.056,12.0000001 88,29.944 88,52.0000001 C88,55.2834853 87.5906859,58.5254226 86.8064058,61.6575323 C83.6546409,57.4455422 78.6263964,54.72 72.96,54.72 C63.414528,54.72 55.68,62.454528 55.68,72 C55.68,76.6624692 57.5231574,80.891545 60.5211246,83.99888 L23.9980716,84.0001164 C14.1918915,76.628572 8.25863386,65.042342 8.0082543,52.806711 L8.00000002,52.0000001 C8.00000002,29.944 25.948,12.0000001 48,12.0000001 Z" id="Combined-Shape" fill="#6C99FB"></path>
                        <path d="M74.9080946,82.062591 L90.6880946,82.062591 C91.1023081,82.062591 91.4380946,82.3983774 91.4380946,82.812591 L91.4380946,84.312591 C91.4380946,84.7268045 91.1023081,85.062591 90.6880946,85.062591 L74.9080946,85.062591 C74.493881,85.062591 74.1580946,84.7268045 74.1580946,84.312591 L74.1580946,82.812591 C74.1580946,82.3983774 74.493881,82.062591 74.9080946,82.062591 Z" id="矩形备份-5" fill="#6C99FB" transform="translate(82.798095, 83.562591) scale(-1, 1) rotate(129.000000) translate(-82.798095, -83.562591) "></path>
                        <path d="M72.96,57.6 C80.91456,57.6 87.36,64.04544 87.36,72 C87.36,79.95744 80.91456,86.4 72.96,86.4 C65.00256,86.4 58.56,79.95744 58.56,72 C58.56,64.04544 65.00544,57.6 72.96,57.6 Z" id="路径" fill="#6C99FB"></path>
                        <path d="M72.96,59.52 C79.853952,59.52 85.44,65.106048 85.44,72 C85.44,78.896448 79.853952,84.48 72.96,84.48 C66.063552,84.48 60.48,78.896448 60.48,72 C60.48,65.106048 66.066048,59.52 72.96,59.52 Z" id="路径" fill="#D5DCF7"></path>
                        <path d="M73.8940138,62 C74.387764,62 74.7880277,62.3645825 74.7880277,62.8143176 C74.7880277,62.9427768 74.8073181,63.1408223 74.844574,63.3811903 L74.9137663,63.7700761 L75.008913,64.2019976 C75.0268785,64.2764348 75.045884,64.3518133 75.0659088,64.4277068 C75.3174466,65.381029 75.6986835,66.3373825 76.2156061,67.2189226 C77.587673,69.5587934 79.6941562,71.0577731 82.7090448,71.3767257 C83.199498,71.428612 83.5509102,71.8328219 83.4939459,72.279554 C83.4369816,72.7262861 82.9932119,73.0463718 82.5027588,72.9944856 C78.8572129,72.6088143 76.2691383,70.7671328 74.6384453,67.9862107 C73.5759051,66.174195 73,63.991529 73,62.8143176 C73,62.3645825 73.4002636,62 73.8940138,62 Z" id="路径-31" fill="#6C99FB" transform="translate(78.250000, 67.500000) rotate(-180.000000) translate(-78.250000, -67.500000) "></path>
                        <rect id="矩形" fill="#D5DCF7" x="13.096" y="50.5" width="10" height="3" rx="0.75"></rect>
                        <path d="M43.75,20.592 L52.25,20.592 C52.6642136,20.592 53,20.9277864 53,21.342 L53,22.842 C53,23.2562136 52.6642136,23.592 52.25,23.592 L43.75,23.592 C43.3357864,23.592 43,23.2562136 43,22.842 L43,21.342 C43,20.9277864 43.3357864,20.592 43.75,20.592 Z" id="矩形备份-4" fill="#D5DCF7" transform="translate(48.000000, 22.092000) rotate(90.000000) translate(-48.000000, -22.092000) "></path>
                        <rect id="矩形备份-2" fill="#D5DCF7" x="72.904" y="50.5" width="10" height="3" rx="0.75"></rect>
                        <path d="M22.4837964,29.2035499 L30.9837964,29.2035499 C31.39801,29.2035499 31.7337964,29.5393363 31.7337964,29.9535499 L31.7337964,31.4535499 C31.7337964,31.8677634 31.39801,32.2035499 30.9837964,32.2035499 L22.4837964,32.2035499 C22.0695829,32.2035499 21.7337964,31.8677634 21.7337964,31.4535499 L21.7337964,29.9535499 C21.7337964,29.5393363 22.0695829,29.2035499 22.4837964,29.2035499 Z" id="矩形备份" fill="#D5DCF7" transform="translate(26.733796, 30.703550) rotate(45.000000) translate(-26.733796, -30.703550) "></path>
                        <path d="M65.2471937,29.2035497 L73.7471937,29.2035497 C74.1614073,29.2035497 74.4971937,29.5393362 74.4971937,29.9535497 L74.4971937,31.4535497 C74.4971937,31.8677633 74.1614073,32.2035497 73.7471937,32.2035497 L65.2471937,32.2035497 C64.8329802,32.2035497 64.4971937,31.8677633 64.4971937,31.4535497 L64.4971937,29.9535497 C64.4971937,29.5393362 64.8329802,29.2035497 65.2471937,29.2035497 Z" id="矩形备份-3" fill="#D5DCF7" transform="translate(69.497194, 30.703550) scale(-1, 1) rotate(45.000000) translate(-69.497194, -30.703550) "></path>
                        <path d="M24.9990212,53.5177283 L56.2590922,53.5177283 C56.6733058,53.5177283 57.0090922,53.8535148 57.0090922,54.2677283 L57.0090922,55.7677283 C57.0090922,56.1819419 56.6733058,56.5177283 56.2590922,56.5177283 L24.9990212,56.5177283 C24.5848077,56.5177283 24.2490212,56.1819419 24.2490212,55.7677283 L24.2490212,54.2677283 C24.2490212,53.8535148 24.5848077,53.5177283 24.9990212,53.5177283 Z" id="矩形备份-5" fill="#145EBE" transform="translate(40.629057, 55.017728) scale(-1, 1) rotate(120.000000) translate(-40.629057, -55.017728) "></path>
                        <circle id="椭圆形" fill="#D5DCF7" cx="48" cy="68.1452952" r="7.98905588"></circle>
                        <circle id="椭圆形" fill="#6C99FB" cx="48" cy="68.1452952" r="3.4368212"></circle>
                    </g>
                </g>
            </g>
        </g>
    </g>
</svg>