<?xml version="1.0" encoding="UTF-8"?>
<svg width="14px" height="15px" viewBox="0 0 14 15" version="1.1" xmlns="http://www.w3.org/2000/svg" xmlns:xlink="http://www.w3.org/1999/xlink">
    <g id="下拉选项框" stroke="none" stroke-width="1" fill="none" fill-rule="evenodd">
        <g id="编组-31" transform="translate(-1.000000, -0.644895)">
            <g id="编组">
                <rect id="矩形备份" x="0" y="0" width="16" height="16"></rect>
                <path d="M11.4613659,1.36891174 C11.5457549,1.58874062 11.4521412,1.83312554 11.2512355,1.94323993 L11.1938361,1.96982278 L10.6919971,2.16193673 C13.0690476,3.21038715 14.6666667,5.58115457 14.6666667,8.26297269 C14.6666667,11.944871 11.6818983,14.9296394 8,14.9296394 C4.31810167,14.9296394 1.33333333,11.944871 1.33333333,8.26297269 C1.33333333,6.210028 2.2677717,4.30975886 3.840751,3.0525814 C4.04141297,2.89220567 4.33409186,2.92486412 4.49446759,3.12552609 C4.65484332,3.32618807 4.62218487,3.61886695 4.4215229,3.77924268 C3.06711306,4.86173215 2.26356589,6.4958216 2.26356589,8.26297269 C2.26356589,11.4311178 4.83185492,13.9994068 8,13.9994068 C11.1681451,13.9994068 13.7364341,11.4311178 13.7364341,8.26297269 C13.7364341,5.93880999 12.34177,3.88590512 10.2725039,2.99385164 L10.4863636,3.58526378 C10.5742162,3.82665044 10.4497523,4.09355162 10.2083656,4.18140424 C9.98709453,4.26193582 9.74438415,4.16406252 9.63780013,3.96126187 L9.61222517,3.9034063 L9.04690278,2.35010865 C9.02384146,2.28674466 9.01541009,2.22162255 9.01988317,2.15844245 C9.00799179,1.98080035 9.09993473,1.80803092 9.25988193,1.72036545 L9.31728139,1.6937826 L10.8604549,1.10138188 C11.1002682,1.00932121 11.3693052,1.1290984 11.4613659,1.36891174 Z M7.87797006,7.02266262 C8.5629744,7.02266262 9.11828013,7.57796835 9.11828013,8.26297269 C9.11828013,8.94797704 8.5629744,9.50328277 7.87797006,9.50328277 C7.19296572,9.50328277 6.63765998,8.94797704 6.63765998,8.26297269 C6.63765998,7.57796835 7.19296572,7.02266262 7.87797006,7.02266262 Z" id="形状结合" fill-opacity="0.9" fill="#FFFFFF" fill-rule="nonzero"></path>
            </g>
            <g id="编组备份" transform="translate(1.333333, 1.070361)"></g>
        </g>
    </g>
</svg>