<?xml version="1.0" encoding="UTF-8"?>
<svg width="13px" height="13px" viewBox="0 0 13 13" version="1.1" xmlns="http://www.w3.org/2000/svg" xmlns:xlink="http://www.w3.org/1999/xlink">
    <g id="insight增强需求" stroke="none" stroke-width="1" fill="none" fill-rule="evenodd">
        <g id="时间轴" transform="translate(-128.000000, -2478.000000)">
            <g id="编组" transform="translate(126.500000, 2476.296928)">
                <rect id="矩形" x="0" y="0" width="16" height="16"></rect>
                <g id="编组-4" transform="translate(1.504867, 2.166407)">
                    <path d="M2.26777994,0.439439664 C2.82580738,-0.118587777 3.71398177,-0.145160512 4.30349977,0.35976946 L4.38960895,0.439495232 L6.51027562,2.56082857 C6.70550707,2.7561214 6.70545732,3.07270388 6.51016449,3.26793534 C6.33262555,3.44541848 6.05484723,3.46151219 5.85912906,3.31624512 L5.80305772,3.26782421 L3.68244661,1.14654644 C3.50480614,0.968905971 3.22687945,0.952756837 3.03100511,1.09809904 L2.97488672,1.14654644 L0.853553391,3.26787978 C0.658291245,3.46314192 0.341708755,3.46314192 0.146446609,3.26787978 C-0.0310644323,3.09036874 -0.0472017997,2.81259295 0.0980345071,2.61685195 L0.146446609,2.560773 L2.26777994,0.439439664 Z" id="Stroke-1" fill="#7A7A7A"></path>
                    <path d="M6.48010218,8.39925077 C6.65764111,8.22176763 6.93541944,8.20567392 7.1311376,8.35094098 L7.18720895,8.3993619 L9.30782006,10.5206397 C9.48546053,10.6982801 9.76338722,10.7144293 9.95926155,10.5690871 L10.0153799,10.5206397 L12.1367133,8.39930633 C12.3319754,8.20404418 12.6485579,8.20404418 12.8438201,8.39930633 C13.0213311,8.57681737 13.0374685,8.85459316 12.8922322,9.05033416 L12.8438201,9.10641311 L10.7224867,11.2277464 C10.1644593,11.7857739 9.27628489,11.8123466 8.68676689,11.3074166 L8.60065772,11.2276909 L6.47999105,9.10635754 C6.28475959,8.91106471 6.28480935,8.59448223 6.48010218,8.39925077 Z" id="Stroke-3" fill="#7A7A7A"></path>
                    <path d="M3.32813333,0.000259720876 C3.58126384,0.000259720876 3.79046064,0.188362309 3.82356892,0.432412683 L3.82813333,0.500259721 L3.82813333,11.1669264 C3.82813333,11.4430688 3.60427571,11.6669264 3.32813333,11.6669264 C3.07500282,11.6669264 2.86580603,11.4788238 2.83269774,11.2347734 L2.82813333,11.1669264 L2.82813333,0.500259721 C2.82813333,0.224117346 3.05199096,0.000259720876 3.32813333,0.000259720876 Z" id="Stroke-5" fill="#7A7A7A"></path>
                    <path d="M9.66146667,0.000259720876 C9.91459718,0.000259720876 10.123794,0.188362309 10.1569023,0.432412683 L10.1614667,0.500259721 L10.1614667,11.1669264 C10.1614667,11.4430688 9.93760904,11.6669264 9.66146667,11.6669264 C9.40833616,11.6669264 9.19913936,11.4788238 9.16603108,11.2347734 L9.16146667,11.1669264 L9.16146667,0.500259721 C9.16146667,0.224117346 9.38532429,0.000259720876 9.66146667,0.000259720876 Z" id="Stroke-7" fill="#7A7A7A"></path>
                </g>
            </g>
        </g>
    </g>
</svg>