<?xml version="1.0" encoding="UTF-8"?>
<svg width="15px" height="14px" viewBox="0 0 15 14" version="1.1" xmlns="http://www.w3.org/2000/svg" xmlns:xlink="http://www.w3.org/1999/xlink">
    <title>矩形</title>
    <g id="6月——调优730需求" stroke="none" stroke-width="1" fill="none" fill-rule="evenodd" opacity="0.6">
        <g id="矩形" transform="translate(-0.500000, -1.000000)">
            <rect x="0" y="0" width="16" height="16"></rect>
            <path d="M9.13798173,1.38402088 L9.20083525,1.39114326 C12.347257,1.96372723 14.6666667,4.71541564 14.6666667,7.9498296 C14.6666667,11.6317039 11.6819178,14.6164528 8.00004349,14.6164528 C4.31816917,14.6164528 1.33342031,11.6317039 1.33342031,7.9498296 C1.33342031,6.23966772 1.98083142,4.63064383 3.12061258,3.40719557 L1.88728135,3.64825863 L1.82451764,3.65613325 C1.59578998,3.66921877 1.3868953,3.5115811 1.34196575,3.28043862 C1.2929517,3.02828318 1.45763033,2.78413707 1.70978576,2.73512302 L1.70978576,2.73512302 L4.14481406,2.26180147 L4.20757776,2.25392684 C4.43630543,2.24084133 4.6452001,2.398479 4.69012965,2.62962148 L4.69012965,2.62962148 L5.1634512,5.06464977 L5.17132583,5.12741348 C5.18441134,5.35614114 5.02677367,5.56503582 4.79563119,5.60996537 L4.79563119,5.60996537 L4.73286748,5.61783999 C4.50413982,5.6309255 4.29524514,5.47328784 4.25031559,5.24214536 L4.25031559,5.24214536 L3.97848884,3.83882351 C3.95970269,3.87047152 3.93683184,3.90038182 3.90986999,3.92779736 C2.86132593,4.99398507 2.2636468,6.42412222 2.2636468,7.9498296 C2.2636468,11.117954 4.83191908,13.6862263 8.00004349,13.6862263 C11.1681679,13.6862263 13.7364402,11.117954 13.7364402,7.9498296 C13.7364402,5.16688335 11.7403636,2.79878909 9.03428844,2.30633913 C8.78156408,2.2603485 8.61397328,2.01819215 8.65996391,1.76546779 C8.70212199,1.53380379 8.90911376,1.37367563 9.13798173,1.38402088 Z" id="形状结合" fill="#FFFFFF" fill-rule="nonzero"></path>
        </g>
    </g>
</svg>