<?xml version="1.0" encoding="UTF-8"?>
<svg width="16px" height="16px" viewBox="0 0 14 14" version="1.1" xmlns="http://www.w3.org/2000/svg" xmlns:xlink="http://www.w3.org/1999/xlink">
    <g id="封稿最终版！！" stroke="none" stroke-width="1" fill-rule="evenodd" fill-opacity="1">
        <g id="6-Allocations-compare" transform="translate(-467.000000, -623.000000)">
            <g id="Group-31" transform="translate(0.000000, 240.000000)">
                <g id="Group-18" transform="translate(290.000000, 321.000000)">
                    <g id="Table_Light备份" transform="translate(0.000000, 46.000000)">
                        <g id="Group" transform="translate(0.000000, -1.000000)">
                            <g transform="translate(177.000000, 17.000000)">
                                <g id="697F4FF0-71FB-4753-8037-2F6068A760FD_0" transform="translate(8.000000, 8.000000) rotate(-180.000000) translate(-8.000000, -8.000000) ">
                                    <path d="M1.73356174,7.02521489 L1.81327994,6.93911328 L6.77261328,1.97977994 C6.96787542,1.7845178 7.28445791,1.7845178 7.47972006,1.97977994 C7.6572311,2.15729098 7.67336847,2.43506677 7.52813216,2.63080777 L7.47972006,2.68688672 L2.66583333,7.49933333 L14.1261667,7.5 C14.402309,7.5 14.6261667,7.72385763 14.6261667,8 C14.6261667,8.25313051 14.4380641,8.46232731 14.1940137,8.49543559 L14.1261667,8.5 L2.66583333,8.49933333 L7.47972006,13.3131133 C7.6749822,13.5083754 7.6749822,13.8249579 7.47972006,14.0202201 C7.30220902,14.1977311 7.02443323,14.2138685 6.82869223,14.0686322 L6.77261328,14.0202201 L1.81327994,9.06088672 C1.52305471,8.77066149 1.37658531,8.39113317 1.37387175,8.01076987 C1.37420795,8.00749052 1.37416667,8.00375008 1.37416667,8 L1.37394405,7.9817165 C1.37807759,7.64043807 1.49795015,7.30030089 1.73356174,7.02521489 Z" id="形状结合"></path>
                                </g>
                            </g>
                        </g>
                    </g>
                </g>
            </g>
        </g>
    </g>
</svg>