<?xml version="1.0" encoding="UTF-8"?>
<svg width="18px" height="17px" viewBox="0 0 18 17" version="1.1" xmlns="http://www.w3.org/2000/svg" xmlns:xlink="http://www.w3.org/1999/xlink">
    <g id="insight增强需求" stroke="none" stroke-width="1" fill="none" fill-rule="evenodd">
        <g id="时间轴" transform="translate(-495.000000, -2485.000000)">
            <g id="Group-9" transform="translate(68.500000, 1865.000000)">
                <g id="Group-5" transform="translate(20.500000, 0.000000)">
                    <g id="Group-4" transform="translate(2.000000, 580.500000)">
                        <g id="Group-3" transform="translate(404.986198, 0.000000)">
                            <g id="Rectangle-Copy-3" transform="translate(0.000000, 40.000000)">
                                <rect id="Rectangle" fill-opacity="0.2" fill="#FFFFFF" x="0" y="0" width="16.4617315" height="16" rx="1"></rect>
                                <g id="Rectangle-Copy-2" transform="translate(1.646173, 1.600000)">
                                    <rect x="0" y="0" width="13.1693852" height="12.8"></rect>
                                    <path d="M7.190803,0.930240452 C7.47035821,0.646668746 7.93349671,0.6370562 8.22525179,0.908770229 L8.22525179,0.908770229 L11.8464834,4.28125455 L11.8899732,4.32533291 C12.1370134,4.59802551 12.1337451,5.0133728 11.872627,5.282543 L11.872627,5.282543 L8.67955634,8.57407862 L8.63429529,8.61693054 C8.3540834,8.86043631 7.92383924,8.85887867 7.64531866,8.60363428 L7.64531866,8.60363428 L7.60123011,8.55964274 C7.3506972,8.28729046 7.35229979,7.86911412 7.61491008,7.5984057 L7.61491008,7.5984057 L9.645932,5.50411009 L9.55953199,5.50503789 L9.22948295,5.50929224 C4.28661846,5.61324756 2.2020875,7.51203526 2.6113451,11.3035809 C2.65350543,11.6941731 2.36190802,12.0440297 1.96004405,12.0850075 C1.55818008,12.1259853 1.19822727,11.8425668 1.15606694,11.4519746 C0.636054481,6.63434639 3.55559462,4.14363046 9.52149721,4.0854472 L7.21289282,1.93567422 L7.1691697,1.89133947 C6.92089848,1.61703761 6.92596122,1.19888733 7.190803,0.930240452 Z" id="Combined-Shape" fill="#FFFFFF" fill-rule="nonzero"></path>
                                </g>
                            </g>
                        </g>
                    </g>
                </g>
            </g>
        </g>
    </g>
</svg>