<?xml version="1.0" encoding="UTF-8"?>
<svg width="16px" height="16px" viewBox="0 0 16 16" version="1.1" xmlns="http://www.w3.org/2000/svg" xmlns:xlink="http://www.w3.org/1999/xlink">
    <g id="1214" stroke="none" stroke-width="1" fill-rule="evenodd">
        <g id="调优工具insight-二期（330）补充场景" transform="translate(-350.000000, -217.000000)">
            <g id="面性/ic_star_filled" transform="translate(350.000000, 217.000000)">
                <g id="编组">
                    <rect id="矩形" opacity="0" x="0" y="0" width="16" height="16"></rect>
                    <path d="M7.29740267,2.19987954 C7.58436582,1.61713866 8.41500187,1.61713866 8.70196503,2.19987954 L8.70196503,2.19987954 L10.2910838,5.41965721 L13.8458115,5.93751829 C14.4886219,6.02962831 14.7452982,6.81931758 14.2801854,7.27268018 L14.2801854,7.27268018 L11.7077505,9.77899055 L12.3154192,13.320062 C12.4205426,13.9329694 11.8081276,14.4063266 11.2509672,14.1792394 L11.2509672,14.1792394 L11.178671,14.145601 L7.99975052,12.4736572 L4.82066259,14.1456189 C4.27045609,14.434806 3.63011823,13.9988304 3.67425254,13.399131 L3.67425254,13.399131 L3.68395454,13.320027 L4.29175052,9.77899055 L1.71984964,7.27268079 C1.27509681,6.83916383 1.49028856,6.09773995 2.07153342,5.953479 L2.07153342,5.953479 L2.15303541,5.93759347 L5.70841718,5.41965721 Z" id="形状结合"></path>
                </g>
            </g>
        </g>
    </g>
</svg>