<?xml version="1.0" encoding="UTF-8"?>
<svg width="16px" height="16px" viewBox="0 0 16 16" version="1.1" xmlns="http://www.w3.org/2000/svg" xmlns:xlink="http://www.w3.org/1999/xlink">
    <g id="Page-1" stroke="none" stroke-width="1" fill-rule="evenodd" opacity="0.600000024">
        <g id="light适配" transform="translate(-586.000000, -293.000000)">
            <g id="Group-31" transform="translate(-1.000000, 241.000000)">
                <g id="Group-20" transform="translate(290.000000, 44.000000)">
                    <g id="Group-3" transform="translate(8.000000, 4.000000)">
                        <g id="D9E424F2-4A88-4C35-A659-DAC870E6C744_0" transform="translate(289.000000, 4.000000)">
                            <path d="M8,1.33333333 C9.56873028,1.33333333 11.0554608,1.87776193 12.2402848,2.8557237 C12.4532511,3.03150754 12.4833935,3.34665181 12.3076096,3.55961813 C12.1318258,3.77258445 11.8166815,3.8027268 11.6037152,3.62694297 C10.5964537,2.79554252 9.33424873,2.33333333 8,2.33333333 C4.87038097,2.33333333 2.33333333,4.87057043 2.33333333,8 C2.33333333,11.1302857 4.86990375,13.6666667 8,13.6666667 C11.1296682,13.6666667 13.6666667,11.1300471 13.6666667,8 C13.6666667,7.01275714 13.4139626,6.06269602 12.9398584,5.22235255 C12.8041698,4.98184636 12.8891413,4.67688026 13.1296475,4.5411917 C13.3701536,4.40550313 13.6751197,4.4904746 13.8108083,4.73098079 C14.3689871,5.72034528 14.6666667,6.83949544 14.6666667,8 C14.6666667,11.6823653 11.6819195,14.6666667 8,14.6666667 C4.31763571,14.6666667 1.33333333,11.6825871 1.33333333,8 C1.33333333,4.3183024 4.3180795,1.33333333 8,1.33333333 Z M11.333,7.50013333 C11.6091424,7.50013333 11.833,7.72399096 11.833,8.00013333 C11.833,8.25326384 11.6448974,8.46246064 11.400847,8.49556892 L11.333,8.50013333 L4.66633333,8.50013333 C4.39019096,8.50013333 4.16633333,8.27627571 4.16633333,8.00013333 C4.16633333,7.74700282 4.35443592,7.53780603 4.5984863,7.50469774 L4.66633333,7.50013333 L11.333,7.50013333 Z" id="形状结合"></path>
                        </g>
                    </g>
                </g>
            </g>
        </g>
    </g>
</svg>