<?xml version="1.0" encoding="UTF-8"?>
<svg width="16px" height="16px" viewBox="0 0 16 16" version="1.1" xmlns="http://www.w3.org/2000/svg" xmlns:xlink="http://www.w3.org/1999/xlink">
    <g id="Page-1" stroke="none" stroke-width="1" fill-rule="evenodd" opacity="0.600000024">
        <g id="light适配" transform="translate(-650.000000, -293.000000)">
            <g id="Group-31" transform="translate(-1.000000, 241.000000)">
                <g id="Group-20" transform="translate(290.000000, 44.000000)">
                    <g id="Group-3" transform="translate(8.000000, 4.000000)">
                        <g id="C5D7B408-ACCD-4A19-9197-875664450405_0" transform="translate(353.000000, 4.000000)">
                            <path d="M8,1.33333333 C9.60709386,1.33333333 11.12698,1.90448757 12.3245415,2.92630784 C12.5346078,3.10554714 12.5595981,3.42114175 12.3803588,3.63120813 C12.2011195,3.84127451 11.8855249,3.8662648 11.6754585,3.68702549 C10.6572384,2.81822839 9.36689474,2.33333333 8,2.33333333 C4.87080904,2.33333333 2.33333333,4.87080904 2.33333333,8 C2.33333333,11.129619 4.87057043,13.6666667 8,13.6666667 C11.1294296,13.6666667 13.6666667,11.129619 13.6666667,8 C13.6666667,6.89847562 13.3519289,5.84422182 12.7687441,4.93704546 C12.619418,4.70476044 12.6866695,4.39540351 12.9189545,4.24607743 C13.1512396,4.09675134 13.4605965,4.16400285 13.6099226,4.39628787 C14.2959763,5.46348256 14.6666667,6.70515663 14.6666667,8 C14.6666667,11.6819205 11.6816976,14.6666667 8,14.6666667 C4.3183024,14.6666667 1.33333333,11.6819205 1.33333333,8 C1.33333333,4.31852429 4.31852429,1.33333333 8,1.33333333 Z M8,4.16666667 C8.25313051,4.16666667 8.46232731,4.35476925 8.49543559,4.59881963 L8.5,4.66666667 L8.49933333,7.49933333 L11.3333333,7.5 C11.6094757,7.5 11.8333333,7.72385763 11.8333333,8 C11.8333333,8.25313051 11.6452307,8.46232731 11.4011804,8.49543559 L11.3333333,8.5 L8.49933333,8.49933333 L8.5,11.3333333 C8.5,11.6094757 8.27614237,11.8333333 8,11.8333333 C7.74686949,11.8333333 7.53767269,11.6452307 7.50456441,11.4011804 L7.5,11.3333333 L7.49933333,8.49933333 L4.66666667,8.5 C4.39052429,8.5 4.16666667,8.27614237 4.16666667,8 C4.16666667,7.74686949 4.35476925,7.53767269 4.59881963,7.50456441 L4.66666667,7.5 L7.49933333,7.49933333 L7.5,4.66666667 C7.5,4.39052429 7.72385763,4.16666667 8,4.16666667 Z" id="形状结合"></path>
                        </g>
                    </g>
                </g>
            </g>
        </g>
    </g>
</svg>