<?xml version="1.0" encoding="UTF-8"?>
<svg width="14px" height="14px" viewBox="0 0 14 14" version="1.1" xmlns="http://www.w3.org/2000/svg" xmlns:xlink="http://www.w3.org/1999/xlink">
    <g id="insight增强需求" stroke="none" stroke-width="1" fill-rule="evenodd">
        <g id="时间轴" transform="translate(-142.000000, -223.000000)">
            <g id="Group-2" transform="translate(77.500000, 83.234357)">
                <g id="Group-15" transform="translate(39.980380, 138.645643)">
                    <g id="Group" transform="translate(24.000000, 0.000000)">
                        <g id="Group-4" transform="translate(1.500000, 1.333333)">
                            <path d="M7.5,0 C8.14433221,0 8.66666667,0.49388831 8.66666667,1.10313042 L8.66666667,1.10313042 L8.66666667,3.68445559 L11.8333333,3.68469602 C12.4454489,3.68469602 12.9474616,4.13043022 12.9961325,4.69735259 L12.9961325,4.69735259 L13,4.78782644 L13,6.59768598 C13,7.20692808 12.4776655,7.70081639 11.8333333,7.70081639 L11.8333333,7.70081639 L11.641,7.7 L12.6579252,12.7725463 C12.7121143,13.0429523 12.5123598,13.2947115 12.2325741,13.3292975 L12.1666667,13.3333333 L0.833333333,13.3333333 C0.543126627,13.3333333 0.318968139,13.1021885 0.333888863,12.8365038 L0.341654875,12.7746683 L1.332,7.7 L1.16666667,7.70081639 C0.565289939,7.70081639 0.0701868067,7.2705848 0.00684584116,6.71788419 L0,6.59768598 L0,4.78782644 C0,4.17858433 0.522334459,3.68469602 1.16663199,3.68469602 L1.16663199,3.68469602 L4.33333333,3.68445559 L4.33333333,1.10313042 C4.33333333,0.524350415 4.80474018,0.0496772155 5.40431519,0.00365684551 L5.40431519,0.00365684551 L5.5,0 Z M10.624,7.7 L2.35,7.7 L1.434,12.3877504 L4.166,12.387 L4.16666667,9.41832447 C4.16666667,9.16224429 4.39052429,8.95465028 4.66666667,8.95465028 C4.91979718,8.95465028 5.12899397,9.12908691 5.16210226,9.35540663 L5.16666667,9.41832447 L5.166,12.387 L7.833,12.387 L7.83333333,9.41832447 C7.83333333,9.16224429 8.05719096,8.95465028 8.33333333,8.95465028 C8.58646384,8.95465028 8.79566064,9.12908691 8.82876892,9.35540663 L8.83333333,9.41832447 L8.833,12.387 L11.5626667,12.3877504 L10.624,7.7 Z M7.5,0.945540356 L5.5,0.945540356 C5.40795254,0.945540356 5.33333333,1.01609583 5.33333333,1.10313042 L5.33333333,1.10313042 L5.33333333,4.15722577 C5.33333333,4.41831672 5.10949684,4.62997784 4.83336801,4.62999594 L4.83336801,4.62999594 L1.16666667,4.63023638 C1.07461921,4.63023638 1,4.70079185 1,4.78782644 L1,4.78782644 L1,6.59768598 C1,6.68472057 1.07461921,6.75527604 1.16666667,6.75527604 L1.16666667,6.75527604 L11.8333333,6.75527604 C11.9253808,6.75527604 12,6.68472057 12,6.59768598 L12,6.59768598 L12,4.78782644 C12,4.70079185 11.9253808,4.63023638 11.8332987,4.63023638 L11.8332987,4.63023638 L8.16663199,4.62999594 C7.89050316,4.62997784 7.66666667,4.41831672 7.66666667,4.15722577 L7.66666667,4.15722577 L7.66666667,1.10313042 C7.66666667,1.01609583 7.59204746,0.945540356 7.5,0.945540356 L7.5,0.945540356 Z" id="Combined-Shape" fill-rule="nonzero"></path>
                            <g id="Group-3" transform="translate(4.166667, 8.896075)"></g>
                        </g>
                    </g>
                </g>
            </g>
        </g>
    </g>
</svg>