<?xml version="1.0" encoding="UTF-8"?>
<svg width="16px" height="16px" viewBox="0 0 16 16" version="1.1" xmlns="http://www.w3.org/2000/svg" xmlns:xlink="http://www.w3.org/1999/xlink">
    <g id="1214" stroke="none" stroke-width="1" fill-rule="evenodd">
        <g id="调优工具insight-二期（330）补充场景" transform="translate(-1059.000000, -2725.000000)">
            <g id="面性/ic_close_filled" transform="translate(1059.000000, 2725.000000)">
                <g id="编组">
                    <rect id="矩形" opacity="0" x="0" y="0" width="16" height="16"></rect>
                    <path d="M13.138,2.86208333 C13.3986667,3.12275 13.3986667,3.54408333 13.138,3.80475 L8.9425,7.99958333 L13.138,12.1954167 C13.3986667,12.4560833 13.3986667,12.8774167 13.138,13.1380833 C13.008,13.2680833 12.8373333,13.3334167 12.6666667,13.3334167 C12.496,13.3334167 12.3253333,13.2680833 12.1953333,13.1380833 L7.9995,8.94258333 L3.80466667,13.1380833 C3.67466667,13.2680833 3.504,13.3334167 3.33333333,13.3334167 C3.16266667,13.3334167 2.992,13.2680833 2.862,13.1380833 C2.60133333,12.8774167 2.60133333,12.4560833 2.862,12.1954167 L7.0565,7.99958333 L2.862,3.80475 C2.60133333,3.54408333 2.60133333,3.12275 2.862,2.86208333 C3.12266667,2.60141667 3.544,2.60141667 3.80466667,2.86208333 L7.9995,7.05658333 L12.1953333,2.86208333 C12.456,2.60141667 12.8773333,2.60141667 13.138,2.86208333 Z" id="形状结合"></path>
                </g>
            </g>
        </g>
    </g>
</svg>