<?xml version="1.0" encoding="UTF-8"?>
<svg width="16px" height="16px" viewBox="0 0 21 21" version="1.1" xmlns="http://www.w3.org/2000/svg" xmlns:xlink="http://www.w3.org/1999/xlink">
    <g id="insight增强需求" stroke="none" stroke-width="1" fill="none" fill-rule="evenodd" opacity="0.6">
        <g id="时间轴" transform="translate(-177.000000, -1266.000000)" fill="#FFFFFF">
            <g id="Group-8" transform="translate(77.500000, 1103.765643)">
                <g id="Group-22-Copy" transform="translate(86.000000, 126.265643)">
                    <g id="Botton-tab/ic_video_filled" transform="translate(12.000000, 34.500000)">
                        <path d="M15.5,4 C17.9852814,4 20,6.01471863 20,8.5 L20,15.5 C20,17.9852814 17.9852814,20 15.5,20 L8.5,20 C6.01471863,20 4,17.9852814 4,15.5 L4,8.5 C4,6.01471863 6.01471863,4 8.5,4 L15.5,4 Z M15.5,5.5 L8.5,5.5 C6.84314575,5.5 5.5,6.84314575 5.5,8.5 L5.5,8.5 L5.5,15.5 C5.5,17.1568542 6.84314575,18.5 8.5,18.5 L8.5,18.5 L15.5,18.5 C17.1568542,18.5 18.5,17.1568542 18.5,15.5 L18.5,15.5 L18.5,8.5 C18.5,6.84314575 17.1568542,5.5 15.5,5.5 L15.5,5.5 Z" id="形状结合"></path>
                        <rect id="矩形备份" x="7" y="7" width="10" height="10" rx="2.25"></rect>
                        <rect id="矩形" x="8" y="2" width="1.5" height="3" rx="0.75"></rect>
                        <rect id="矩形" x="11.25" y="2" width="1.5" height="3" rx="0.75"></rect>
                        <rect id="矩形备份-2" x="14.5" y="2" width="1.5" height="3" rx="0.75"></rect>
                        <rect id="矩形" x="8" y="19" width="1.5" height="3" rx="0.75"></rect>
                        <rect id="矩形" x="11.25" y="19" width="1.5" height="3" rx="0.75"></rect>
                        <rect id="矩形备份-2" x="14.5" y="19" width="1.5" height="3" rx="0.75"></rect>
                        <path d="M3.5,13.75 C3.91421356,13.75 4.25,14.0857864 4.25,14.5 L4.25,16 C4.25,16.4142136 3.91421356,16.75 3.5,16.75 C3.08578644,16.75 2.75,16.4142136 2.75,16 L2.75,14.5 C2.75,14.0857864 3.08578644,13.75 3.5,13.75 Z" id="矩形" transform="translate(3.500000, 15.250000) rotate(-90.000000) translate(-3.500000, -15.250000) "></path>
                        <path d="M3.5,10.5 C3.91421356,10.5 4.25,10.8357864 4.25,11.25 L4.25,12.75 C4.25,13.1642136 3.91421356,13.5 3.5,13.5 C3.08578644,13.5 2.75,13.1642136 2.75,12.75 L2.75,11.25 C2.75,10.8357864 3.08578644,10.5 3.5,10.5 Z" id="矩形" transform="translate(3.500000, 12.000000) rotate(-90.000000) translate(-3.500000, -12.000000) "></path>
                        <path d="M3.5,7.25 C3.91421356,7.25 4.25,7.58578644 4.25,8 L4.25,9.5 C4.25,9.91421356 3.91421356,10.25 3.5,10.25 C3.08578644,10.25 2.75,9.91421356 2.75,9.5 L2.75,8 C2.75,7.58578644 3.08578644,7.25 3.5,7.25 Z" id="矩形备份-2" transform="translate(3.500000, 8.750000) rotate(-90.000000) translate(-3.500000, -8.750000) "></path>
                        <path d="M20.5,13.75 C20.9142136,13.75 21.25,14.0857864 21.25,14.5 L21.25,16 C21.25,16.4142136 20.9142136,16.75 20.5,16.75 C20.0857864,16.75 19.75,16.4142136 19.75,16 L19.75,14.5 C19.75,14.0857864 20.0857864,13.75 20.5,13.75 Z" id="矩形" transform="translate(20.500000, 15.250000) rotate(-90.000000) translate(-20.500000, -15.250000) "></path>
                        <path d="M20.5,10.5 C20.9142136,10.5 21.25,10.8357864 21.25,11.25 L21.25,12.75 C21.25,13.1642136 20.9142136,13.5 20.5,13.5 C20.0857864,13.5 19.75,13.1642136 19.75,12.75 L19.75,11.25 C19.75,10.8357864 20.0857864,10.5 20.5,10.5 Z" id="矩形" transform="translate(20.500000, 12.000000) rotate(-90.000000) translate(-20.500000, -12.000000) "></path>
                        <path d="M20.5,7.25 C20.9142136,7.25 21.25,7.58578644 21.25,8 L21.25,9.5 C21.25,9.91421356 20.9142136,10.25 20.5,10.25 C20.0857864,10.25 19.75,9.91421356 19.75,9.5 L19.75,8 C19.75,7.58578644 20.0857864,7.25 20.5,7.25 Z" id="矩形备份-2" transform="translate(20.500000, 8.750000) rotate(-90.000000) translate(-20.500000, -8.750000) "></path>
                    </g>
                </g>
            </g>
        </g>
    </g>
</svg>