<?xml version="1.0" encoding="UTF-8"?>
<svg width="16px" height="16px" viewBox="0 0 16 16" version="1.1" xmlns="http://www.w3.org/2000/svg"
     xmlns:xlink="http://www.w3.org/1999/xlink">
    <g id="Allocation-Insight" stroke="none" stroke-width="1" fill="none" fill-rule="evenodd"
       opacity="0.8">
        <path d="M2.0952,5.20058333 L7.49986667,8.32125 L7.49986667,14.5625833 C7.32653333,14.5179167 7.15786667,
        14.4519167 6.99986667,14.3599167 L6.99986667,14.3599167 L3.01986667,12.0625833 C2.40253333,
        11.7059167 2.01986667,11.0425833 2.01986667,10.3305833 L2.01986667,10.3305833 L2.01986667,
        5.73458333 C2.01986667,5.55125 2.04653333,5.37258333 2.0952,5.20058333 L2.0952,5.20058333 Z M7.00013333,
        1.70491667 C7.61613333,1.34825 8.38346667,1.34825 9.00013333,1.70491667 L9.00013333,1.70491667 L12.9801333,
        4.00425 C13.1381333,4.09558333 13.2794667,4.20758333 13.4041333,4.33491667 L13.4041333,4.33491667 L9.25213333,
        6.73225 C9.0128,6.87025 8.93146667,7.17625 9.06946667,7.41558333 C9.16146667,7.57558333 9.33013333,
        7.66558333 9.50213333,7.66558333 C9.58746667,7.66558333 9.67346667,7.64358333 9.75213333,7.59825 L9.75213333,
        7.59825 L13.9048,5.20091667 C13.9528,5.37358333 13.9801333,5.55291667 13.9801333,5.73625 L13.9801333,
        5.73625 L13.9801333,10.3309167 C13.9801333,11.04225 13.5968,11.7055833 12.9801333,12.06225 L12.9801333,
        12.06225 L9.00013333,14.36025 C8.84146667,14.4515833 8.6728,14.5175833 8.50013333,14.56225 L8.50013333,
        14.56225 L8.50013333,8.03225 C8.50013333,8.01091667 8.49013333,7.99225 8.48746667,7.97158333 C8.48346667,
        7.93691667 8.4788,7.90425 8.46746667,7.87158333 C8.4568,7.84091667 8.44213333,7.81425 8.42613333,
        7.78691667 C8.41013333,7.75891667 8.39413333,7.73291667 8.3728,7.70825 C8.35013333,7.68158333 8.32413333,
        7.66158333 8.29613333,7.64025 C8.27946667,7.62758333 8.26813333,7.61025 8.25013333,7.59958333 L8.25013333,
        7.59958333 L2.5948,4.33425 C2.71946667,4.20691667 2.86146667,4.09425 3.01946667,4.00225 L3.01946667,4.00225 Z"
              id="形状结合" fill="#D1A738"></path>
    </g>
</svg>
