<?xml version="1.0" encoding="UTF-8"?>
<svg width="15px" height="15px" viewBox="0 0 15 15" version="1.1" xmlns="http://www.w3.org/2000/svg" xmlns:xlink="http://www.w3.org/1999/xlink">
    <g id="insight增强需求" stroke="none" stroke-width="1" fill="none" fill-rule="evenodd">
        <g id="调优工具图表" transform="translate(-182.000000, -1582.000000)">
            <g id="Group-12" transform="translate(82.564619, 592.000000)">
                <g id="Group-51" transform="translate(0.000000, 603.000000)">
                    <g id="Group-53" transform="translate(0.000000, 350.000000)">
                        <g id="Group-42" transform="translate(0.000000, 32.000000)">
                            <g id="编组-5备份-2" transform="translate(99.000000, 4.000000)">
                                <g id="编组-2">
                                    <rect id="矩形" x="0" y="0" width="16" height="16"></rect>
                                </g>
                                <g id="编组-4" transform="translate(7.333333, 5.770643)" fill="#D1A738">
                                    <g id="路径-14" transform="translate(0.166667, 0.000000)" fill-rule="nonzero">
                                        <path d="M0.5,0 C0.75313051,0 0.962327307,0.188102588 0.995435589,0.432152962 L1,0.5 L1,5.1219105 C1,5.39805287 0.776142375,5.6219105 0.5,5.6219105 C0.24686949,5.6219105 0.0376726927,5.43380791 0.00456441066,5.18975753 L0,5.1219105 L0,0.5 C0,0.223857625 0.223857625,0 0.5,0 Z" id="路径-2"></path>
                                    </g>
                                    <circle id="椭圆形" cx="0.666666667" cy="6.78857716" r="1"></circle>
                                </g>
                                <path d="M6.68567614,2.68549379 L1.04361402,12.9437885 C0.921806914,13.165256 0.857937888,13.4139122 0.857937888,13.6666667 C0.857937888,14.4950938 1.52951076,15.1666667 2.35793789,15.1666667 L13.6420621,15.1666667 C13.8948166,15.1666667 14.1434728,15.1027976 14.3649402,14.9809905 C15.0908213,14.581756 15.3556205,13.6696696 14.956386,12.9437885 L9.31432386,2.68549379 C9.1772421,2.43625422 8.9721177,2.23112982 8.72287812,2.09404805 C7.9969971,1.69481349 7.0849107,1.95961277 6.68567614,2.68549379 Z M8.24095937,2.97026396 C8.32403923,3.01595788 8.39241403,3.08433268 8.43810795,3.16741254 L14.0801701,13.4257073 C14.2132483,13.6676676 14.1249818,13.9716964 13.8830215,14.1047746 C13.809199,14.145377 13.7263136,14.1666667 13.6420621,14.1666667 L2.35793789,14.1666667 C2.08179551,14.1666667 1.85793789,13.942809 1.85793789,13.6666667 C1.85793789,13.5824152 1.87922756,13.4995298 1.91982993,13.4257073 L7.56189205,3.16741254 C7.69497023,2.9254522 7.99899903,2.83718577 8.24095937,2.97026396 Z" id="三角形" fill="#D1A738" fill-rule="nonzero"></path>
                            </g>
                        </g>
                    </g>
                </g>
            </g>
        </g>
    </g>
</svg>