<?xml version="1.0" encoding="UTF-8"?>
<svg width="16px" height="16px" viewBox="0 0 16 16" version="1.1" xmlns="http://www.w3.org/2000/svg" xmlns:xlink="http://www.w3.org/1999/xlink">
    <g id="Page-1" stroke="none" stroke-width="1" fill="none" fill-rule="evenodd">
        <g id="2-memory---memory分析" transform="translate(-24.000000, -657.000000)" fill="#6B8052">
            <g id="Group-31" transform="translate(0.000000, 241.000000)">
                <g id="Group-9" transform="translate(0.000000, 44.000000)">
                    <g id="Group-6" transform="translate(0.000000, 106.000000)">
                        <g id="Group-4" transform="translate(16.000000, 0.000000)">
                            <g id="list-01-copy" transform="translate(0.000000, 257.000000)">
                                <g id="5CB8F220-E2C0-4DD5-BE68-5AF390D2AC7D_0" transform="translate(8.000000, 9.000000)">
                                    <path d="M10.21,10.21 C10.1126667,10.3073333 9.98466667,10.3566667 9.85666667,10.3566667 C9.728,10.3566667 9.60066667,10.3073333 9.50266667,10.21 L7.646,8.35333333 C7.55266667,8.25933333 7.5,8.13266667 7.5,8 L7.5,4.02 C7.5,3.744 7.724,3.52 8,3.52 C8.276,3.52 8.5,3.744 8.5,4.02 L8.5,7.79266667 L10.21,9.50266667 C10.4053333,9.698 10.4053333,10.0146667 10.21,10.21 M8,1.33333333 C4.324,1.33333333 1.33333333,4.324 1.33333333,8 C1.33333333,11.6753333 4.324,14.6666667 8,14.6666667 C11.6753333,14.6666667 14.6666667,11.6753333 14.6666667,8 C14.6666667,4.324 11.6753333,1.33333333 8,1.33333333" id="Fill-1"></path>
                                </g>
                            </g>
                        </g>
                    </g>
                </g>
            </g>
        </g>
    </g>
</svg>