<?xml version="1.0" encoding="UTF-8"?>
<svg width="12px" height="12px" viewBox="0 0 12 12" version="1.1" xmlns="http://www.w3.org/2000/svg" xmlns:xlink="http://www.w3.org/1999/xlink">
    <g id="Page-1" stroke="none" stroke-width="1" fill-rule="evenodd">
        <g id="insight_session_stop" transform="translate(-304.000000, -294.000000)">
            <g id="Group-31" transform="translate(0.000000, 240.000000)">
                <g id="Group-20" transform="translate(290.000000, 44.000000)">
                    <g id="Group-2" transform="translate(8.000000, 4.000000)">
                        <path d="M10.1139992,6.375 L13.8860008,6.375 C15.1861322,6.375 15.6575913,6.51037068 16.1329,6.76456853 C16.6082086,7.01876637 16.9812336,7.39179137 17.2354315,7.86710002 C17.4896293,8.34240866 17.625,8.81386775 17.625,10.1139992 L17.625,13.8860008 C17.625,15.1861322 17.4896293,15.6575913 17.2354315,16.1329 C16.9812336,16.6082086 16.6082086,16.9812336 16.1329,17.2354315 C15.6575913,17.4896293 15.1861322,17.625 13.8860008,17.625 L10.1139992,17.625 C8.81386775,17.625 8.34240866,17.4896293 7.86710002,17.2354315 C7.39179137,16.9812336 7.01876637,16.6082086 6.76456853,16.1329 C6.51037068,15.6575913 6.375,15.1861322 6.375,13.8860008 L6.375,10.1139992 C6.375,8.81386775 6.51037068,8.34240866 6.76456853,7.86710002 C7.01876637,7.39179137 7.39179137,7.01876637 7.86710002,6.76456853 C8.34240866,6.51037068 8.81386775,6.375 10.1139992,6.375 Z" id="Rectangle-9"></path>
                    </g>
                </g>
            </g>
        </g>
    </g>
</svg>