<?xml version="1.0" encoding="UTF-8"?>
<svg width="16px" height="16px" viewBox="0 0 16 16" version="1.1" xmlns="http://www.w3.org/2000/svg" xmlns:xlink="http://www.w3.org/1999/xlink">
    <title>icon-Insight-04</title>
    <g id="icon-Insight-04" stroke="none" stroke-width="1" fill="none" fill-rule="evenodd">
        <g id="编组-3" transform="translate(0.600000, 1.600000)" fill="#6E6E6E">
            <path d="M6.5,0 C9.78494145,0 12.5007406,2.43678771 12.9383834,5.60134899 C12.4485008,5.32810591 11.8941206,5.15572903 11.3040269,5.1113812 C10.7479128,3.18051911 9.05774049,1.72928451 7.00070198,1.52475737 L7,3 L6,3 L6.00030016,1.52465783 C3.67159059,1.75572489 1.81283558,3.58452206 1.53570414,5.89938031 L3,5.9 L3,6.9 L1.51577703,6.89958507 C1.60960066,8.08378772 2.11793682,9.17640862 2.93473021,10.0060188 L3.134,10.198 L7.1522241,10.1967436 C7.31134667,10.7560746 7.58913776,11.2654384 7.95664871,11.6958863 L2.59798128,11.6989591 C1.02034882,10.5129981 0,8.62565666 0,6.5 C0,2.91014913 2.91014913,0 6.5,0 Z M6.50149536,4 L7.36036009,7.43842973 C7.16039752,7.87573452 7.03693016,8.3553384 7.00707385,8.86012557 C6.85911052,8.94951853 6.68545055,9 6.5,9 C5.94771525,9 5.5,8.55228475 5.5,8 C5.5,7.83000366 5.54241846,7.66991469 5.61724829,7.52974018 L6.50149536,4 Z" id="形状结合" fill-rule="nonzero"></path>
            <g id="magnifier" transform="translate(8.000000, 6.100000)">
                <path d="M3,0 C4.65685425,0 6,1.34314575 6,3 C6,4.65685425 4.65685425,6 3,6 C1.34314575,6 0,4.65685425 0,3 C0,1.34314575 1.34314575,0 3,0 Z M3,1.5 C2.17157288,1.5 1.5,2.17157288 1.5,3 C1.5,3.82842712 2.17157288,4.5 3,4.5 C3.82842712,4.5 4.5,3.82842712 4.5,3 C4.5,2.17157288 3.82842712,1.5 3,1.5 Z" id="椭圆形" fill-rule="nonzero" transform="translate(3.000000, 3.000000) rotate(-360.000000) translate(-3.000000, -3.000000) "></path>
                <rect id="矩形" transform="translate(5.244273, 5.190990) rotate(-45.000000) translate(-5.244273, -5.190990) " x="4.49427317" y="3.69099026" width="1.5" height="3"></rect>
            </g>
        </g>
    </g>
</svg>