<?xml version="1.0" encoding="UTF-8"?>
<svg width="13px" height="12px" viewBox="0 0 13 12" version="1.1" xmlns="http://www.w3.org/2000/svg" xmlns:xlink="http://www.w3.org/1999/xlink">
    <g id="insight增强需求" stroke="none" stroke-width="1" fill-rule="evenodd">
        <g id="时间轴" transform="translate(-726.000000, -395.000000)" >
            <g id="Group-2" transform="translate(77.500000, 83.234357)">
                <g id="编组" transform="translate(648.602085, 311.765643)">
                    <rect id="矩形" fill-opacity="0.2" x="0" y="0" width="11.9926426" height="12"></rect>
                    <path d="M10.0761075,1.69512086 L10.2030724,1.81468526 L10.2204717,1.8334699 C10.7745665,2.44334815 10.7503042,3.38170662 10.1654335,3.96209947 L5.07234728,9.01921371 C4.92538443,9.16505141 4.68809519,9.1640662 4.54234691,9.01701319 C4.39659864,8.86996019 4.39758324,8.63252536 4.54454608,8.48668767 L8.93506035,4.1259134 L8.90532527,4.10126467 L7.91643196,3.11176467 L7.89806035,3.0879134 L3.39618084,7.5977222 L2.51921885,9.4877222 L3.54986452,9.06935528 C3.73750869,8.98195009 3.96043681,9.06330317 4.04778841,9.25106246 C4.12543427,9.41795961 4.06982203,9.61275253 3.92471666,9.71536685 L3.86619264,9.74929182 L1.90635593,10.6006905 C1.60936402,10.7390301 1.30214912,10.4591761 1.38612222,10.162327 L1.40825162,10.1028495 L2.74440699,7.22223427 L2.81920704,7.11507982 L8.1409847,1.7844972 C8.67060165,1.254004 9.51142103,1.22411003 10.0761075,1.69512086 Z M8.74160097,2.25298051 L8.67126512,2.31455149 L8.42406035,2.5619134 L8.44643688,2.58143458 L9.4353302,3.57093458 L9.46106035,3.6039134 L9.63763235,3.42957343 C9.91449268,3.15483275 9.94639123,2.72367646 9.72616908,2.41297906 L9.65459363,2.32587294 L9.64304278,2.31404593 C9.39692831,2.06803641 9.01083099,2.04772581 8.74160097,2.25298051 Z" id="形状结合"></path>
                </g>
            </g>
        </g>
    </g>
</svg>