<?xml version="1.0" encoding="UTF-8"?>
<svg id="ic_range_start_flag" width="16px" height="16px" viewBox="0 0 16 16" version="1.1" xmlns="http://www.w3.org/2000/svg" xmlns:xlink="http://www.w3.org/1999/xlink">
    <g id="画板备份-15" stroke="none" stroke-width="1" fill-rule="evenodd">
        <g id="面性/ic_only_filled-copy-6">
            <rect id="矩形" opacity="0" x="0" y="0" width="15.9901901" height="16"></rect>
            <path d="M3.53571429,0.852760736 C3.83158112,0.852760736 4.07142857,1.09260819 4.07142857,1.38847502 L4.07142857,14.611525 C4.07142857,14.9073918 3.83158112,15.1472393 3.53571429,15.1472393 C3.23984746,15.1472393 3,14.9073918 3,14.611525 L3,1.38847502 C3,1.09260819 3.23984746,0.852760736 3.53571429,0.852760736 Z M5.00093451,1.28921999 C6.54975098,0.793174991 8.0002062,0.913018395 9.33039337,1.6507935 L9.33039337,1.6507935 L9.31671429,1.6427122 L9.40558896,1.68041607 C10.3887531,2.07965342 11.2586787,2.02900127 12.0480505,1.53086852 L12.2159806,1.41727747 L12.296373,1.3573979 C12.4863954,1.21148649 12.7603241,1.2452369 12.9081582,1.43273378 C12.9676826,1.50822812 13,1.60114435 13,1.69678969 L13,1.69678969 L13,7.52813665 C13,7.65341812 12.9228819,7.7661462 12.8051149,7.81301166 C11.1313184,8.47910032 9.71896911,8.41087065 8.59927798,7.5802655 C7.7354368,6.90174419 6.63343448,6.90174419 5.24012499,7.61278774 C5.03288087,7.71855002 4.78571429,7.57014653 4.78571429,7.33995096 L4.78571429,7.33995096 L4.78571429,1.58138762 C4.78571429,1.44828097 4.87260865,1.33031938 5.00093451,1.28921999 Z" id="形状结合"></path>
        </g>
        <path d="M6.435091,10.4096942 C6.68055089,10.4096942 6.88469937,10.5865693 6.92703533,10.8198185 L6.935091,10.9096942 L6.935,13.559 L12.4231469,13.5599916 C12.6686067,13.5599916 12.8727552,13.7368667 12.9150912,13.9701159 L12.9231469,14.0599916 C12.9231469,14.3054515 12.7462717,14.5095999 12.5130225,14.5519359 L12.4231469,14.5599916 L6.435091,14.5599916 C6.18963111,14.5599916 5.98548263,14.3831164 5.94314667,14.1498672 L5.935091,14.0599916 L5.935091,10.9096942 C5.935091,10.6335518 6.15894862,10.4096942 6.435091,10.4096942 Z" id="路径-15" fill-rule="nonzero" transform="translate(9.429119, 12.484843) scale(1, -1) translate(-9.429119, -12.484843) "></path>
    </g>
</svg>