<?xml version="1.0" encoding="UTF-8"?>
<svg id="ic_flag_svg"  width="17px" height="16px" viewBox="0 0 17 16" version="1.1" xmlns="http://www.w3.org/2000/svg" xmlns:xlink="http://www.w3.org/1999/xlink">
    <g id="insight增强需求"  stroke-width="1" fill-rule="evenodd">
        <g id="时间轴" transform="translate(-618.000000, -224.000000)">
            <g id="Group-2" transform="translate(77.500000, 83.234357)">
                <g id="编组" transform="translate(540.668302, 140.765643)">
                    <rect id="矩形" opacity="0" x="0" y="0" width="15.9901901" height="16"></rect>
                    <path  d="M3.83098304,1.33333333 C4.1069561,1.33333333 4.33067648,1.55705371 4.33067648,1.83302677 L4.33067648,14.1669732 C4.33067648,14.4429463 4.1069561,14.6666667 3.83098304,14.6666667 C3.55500997,14.6666667 3.3312896,14.4429463 3.3312896,14.1669732 L3.3312896,1.83302677 C3.3312896,1.55705371 3.55500997,1.33333333 3.83098304,1.33333333 Z M5.19768345,1.74044554 C6.64235918,1.27775407 7.99528737,1.38953933 9.2360342,2.07770724 L9.2360342,2.07770724 L9.22142861,2.06970097 L9.30617372,2.10533802 C10.2887351,2.50433059 11.1500438,2.42159423 11.9275976,1.85989258 L11.9275976,1.85989258 L12.0025846,1.80403924 C12.1798301,1.66793876 12.4353401,1.69941983 12.573234,1.87430962 C12.6287561,1.9447278 12.6589005,2.03139645 12.6589005,2.1206107 L12.6589005,2.1206107 L12.6589005,7.55986423 C12.6589005,7.67672191 12.5869677,7.78187027 12.4771192,7.82558455 C10.915867,8.44688613 9.59848253,8.38324415 8.55407822,7.60848799 C7.74832078,6.97558972 6.72041589,6.97558972 5.42079102,7.63882347 C5.22748177,7.73747441 4.9969344,7.59904941 4.9969344,7.38433194 L4.9969344,7.38433194 L4.9969344,2.01296814 C4.9969344,1.88881143 5.07798608,1.77878145 5.19768345,1.74044554 Z" id="形状结合" ></path>
                </g>
            </g>
        </g>
    </g>
</svg>