<?xml version="1.0" encoding="utf-8"?>
<!-- Generator: Adobe Illustrator 23.0.0, SVG Export Plug-In . SVG Version: 6.00 Build 0)  -->
<svg width="55px" height="55px" version="1.1" id="图层_1" xmlns="http://www.w3.org/2000/svg" xmlns:xlink="http://www.w3.org/1999/xlink"
	 viewBox="0 0 65 61" style="enable-background:new 0 0 65 61;" xml:space="preserve">
<style type="text/css">
	.st0{fill-rule:evenodd;clip-rule:evenodd;fill:#2A2A2C;}
	.st1{fill-rule:evenodd;clip-rule:evenodd;fill:#50525B;}
	.st2{fill-rule:evenodd;clip-rule:evenodd;fill:#50525B;stroke:#2A2F37;}
	.st3{fill:#D1D1D1;}
</style>
<g id="页面-1">
	<g id="进入页备份-5" transform="translate(-232.000000, -478.000000)">
		<g id="编组-12" transform="translate(232.000000, 478.000000)">
			<g id="编组-4">
				<circle id="椭圆形备份" class="st0 Select" cx="31" cy="31" r="27"/>
				<circle class="st1" cx="31" cy="31" r="14"/>
				<circle id="椭圆形" class="st2 Select" cx="31" cy="57" r="3.5"/>
				<circle id="椭圆形备份-21" class="st2 Select" cx="31" cy="4" r="3.5"/>
				<circle id="椭圆形备份-22" class="st2 Select" cx="4" cy="33" r="3.5"/>
				<circle id="椭圆形备份-23" class="st2 Select" cx="58" cy="33" r="3.5"/>
				<g id="编组" transform="translate(24.000000, 25.000000)">
				</g>
			</g>
			<g id="编组-8" transform="translate(24.000000, 25.000000)">
				<path id="矩形备份-2" class="st3" d="M13.5,3C13.8,3,14,3.2,14,3.5c0,0,0,0.1,0,0.1l-2,8C12,11.8,11.8,12,11.6,12H0.5
					C0.2,12,0,11.8,0,11.5c0,0,0-0.1,0-0.1l2-8C2,3.2,2.2,3,2.4,3H13.5z M12.9,4h-10l-1.7,7h10L12.9,4z"/>
				<path id="路径" class="st3" d="M5.7,0C6,0,6.3,0.2,6.5,0.4l0.1,0.1l0.8,1.4c0,0,0,0,0,0l0,0h3.5c0.5,0,1,0.4,1,0.9l0,0.1v0.7
					h-1V2.9c0,0,0,0,0,0l0,0H7.4c-0.3,0-0.7-0.2-0.8-0.4L6.5,2.4L5.7,1c0,0,0,0,0,0l0,0H1c0,0,0,0,0,0l0,0v11H0V1c0-0.5,0.4-1,0.9-1
					L1,0H5.7z"/>
			</g>
		</g>
	</g>
</g>
</svg>
