<?xml version="1.0" encoding="utf-8"?>
<!-- Generator: Adobe Illustrator 24.0.1, SVG Export Plug-In . SVG Version: 6.00 Build 0)  -->
<svg width="55px" height="55px" version="1.1" id="图层_1" xmlns="http://www.w3.org/2000/svg" xmlns:xlink="http://www.w3.org/1999/xlink" x="0px" y="0px"
	 viewBox="0 0 62 61" style="enable-background:new 0 0 62 61;" xml:space="preserve">
<style type="text/css">
	.st0{fill-rule:evenodd;clip-rule:evenodd;fill:#EDEFF1;}
	.st1{fill-rule:evenodd;clip-rule:evenodd;fill:#D1D1D1;stroke:#E8E8E8;}
	.st2{fill-rule:evenodd;clip-rule:evenodd;fill:#D1D1D1;}
	.st3{fill-rule:evenodd;clip-rule:evenodd;fill:#595959;}
	.st4{fill:#595959;}
	.st5{fill:#007AFF;}
	.st6{fill:#EBEBEB;}
</style>
<g id="页面-1">
	<g id="analysis-summary备份" transform="translate(-306.000000, -409.000000)">
		<g id="round_light" transform="translate(306.000000, 409.000000)">
			<circle id="椭圆形备份" class="st0 Select" cx="31" cy="31" r="27"/>
			<circle id="椭圆形" class="st1 Select" cx="31" cy="57" r="3.5"/>
			<circle id="椭圆形备份-21" class="st1 Select" cx="31" cy="4" r="3.5"/>
			<circle id="椭圆形备份-22" class="st1 Select" cx="4" cy="33" r="3.5"/>
			<circle id="椭圆形备份-23" class="st1 Select" cx="58" cy="33" r="3.5"/>
			<circle id="椭圆形备份_1_" class="st2" cx="31" cy="31" r="14"/>
			<g id="icons_x2F_light_x2F_normal_x2F_menu_x2F_file_x2F_actions_x2F_menu-open" transform="translate(24.000000, 24.000000)">
				<path id="矩形备份" class="st3" d="M5.5,0L5.5,0C5.8,0,6,0.2,6,0.5v2C6,2.8,5.8,3,5.5,3l0,0C5.2,3,5,2.8,5,2.5v-2
					C5,0.2,5.2,0,5.5,0z"/>
				<path id="矩形备份-3" class="st4" d="M11.5,2C11.8,2,12,2.2,12,2.5v9c0,0.3-0.2,0.5-0.5,0.5h-9C2.2,12,2,11.8,2,11.5v-9
					C2,2.2,2.2,2,2.5,2H11.5z M11,3H3v8h8V3z"/>
				<path id="矩形备份-12" class="st3" d="M0.5,5h2C2.8,5,3,5.2,3,5.5l0,0C3,5.8,2.8,6,2.5,6h-2C0.2,6,0,5.8,0,5.5l0,0
					C0,5.2,0.2,5,0.5,5z"/>
				<path id="矩形备份-14" class="st3" d="M11.5,5h2C13.8,5,14,5.2,14,5.5l0,0C14,5.8,13.8,6,13.5,6h-2C11.2,6,11,5.8,11,5.5
					l0,0C11,5.2,11.2,5,11.5,5z"/>
				<path id="矩形备份-13" class="st3" d="M0.5,8h2C2.8,8,3,8.2,3,8.5l0,0C3,8.8,2.8,9,2.5,9h-2C0.2,9,0,8.8,0,8.5l0,0
					C0,8.2,0.2,8,0.5,8z"/>
				<path id="矩形备份-15" class="st3" d="M11.5,8h2C13.8,8,14,8.2,14,8.5l0,0C14,8.8,13.8,9,13.5,9h-2C11.2,9,11,8.8,11,8.5
					l0,0C11,8.2,11.2,8,11.5,8z"/>
				<path id="矩形备份-8" class="st3" d="M5.5,11L5.5,11C5.8,11,6,11.2,6,11.5v2C6,13.8,5.8,14,5.5,14l0,0C5.2,14,5,13.8,5,13.5
					v-2C5,11.2,5.2,11,5.5,11z"/>
				<path id="矩形备份-7" class="st3" d="M8.5,0L8.5,0C8.8,0,9,0.2,9,0.5v2C9,2.8,8.8,3,8.5,3l0,0C8.2,3,8,2.8,8,2.5v-2
					C8,0.2,8.2,0,8.5,0z"/>
				<path id="矩形备份-6" class="st3" d="M8.5,11L8.5,11C8.8,11,9,11.2,9,11.5v2C9,13.8,8.8,14,8.5,14l0,0C8.2,14,8,13.8,8,13.5
					v-2C8,11.2,8.2,11,8.5,11z"/>
				<path id="矩形" class="st5" d="M4,9.5v-5C4,4.2,4.2,4,4.5,4h1C5.8,4,6,4.2,6,4.5v2C6,6.8,6.2,7,6.5,7C6.8,7,7,7.2,7,7.5v2
					C7,9.8,6.8,10,6.5,10h-2C4.2,10,4,9.8,4,9.5z"/>
				<path id="路径" class="st6" d="M3.5,4.5c0-0.6,0.4-1,1-1h1c0.6,0,1,0.4,1,1v2l0.1,0c0.5,0.1,0.9,0.5,0.9,1v2c0,0.6-0.4,1-1,1
					h-2c-0.6,0-1-0.4-1-1V4.5z"/>
				<path id="路径_1_" class="st5" d="M4,4.5v5C4,9.8,4.2,10,4.5,10h2C6.8,10,7,9.8,7,9.5v-2C7,7.2,6.8,7,6.5,7C6.2,7,6,6.8,6,6.5
					v-2C6,4.2,5.8,4,5.5,4h-1C4.2,4,4,4.2,4,4.5z"/>
				<path id="矩形备份-2" class="st5" d="M10,4.5v5C10,9.8,9.8,10,9.5,10h-1C8.2,10,8,9.8,8,9.5v-3C8,6.2,7.8,6,7.5,6
					C7.2,6,7,5.8,7,5.5v-1C7,4.2,7.2,4,7.5,4h2C9.8,4,10,4.2,10,4.5z"/>
				<path id="路径_2_" class="st6" d="M10.5,9.5c0,0.6-0.4,1-1,1h-1c-0.6,0-1-0.4-1-1v-3l-0.1,0C6.9,6.4,6.5,6,6.5,5.5v-1
					c0-0.6,0.4-1,1-1h2c0.6,0,1,0.4,1,1V9.5z"/>
				<path id="路径_3_" class="st5" d="M10,9.5v-5C10,4.2,9.8,4,9.5,4h-2C7.2,4,7,4.2,7,4.5v1C7,5.8,7.2,6,7.5,6C7.8,6,8,6.2,8,6.5
					v3C8,9.8,8.2,10,8.5,10h1C9.8,10,10,9.8,10,9.5z"/>
			</g>
		</g>
	</g>
</g>
</svg>
