<?xml version="1.0" encoding="UTF-8"?>
<svg id="ic_place_flag" width="16px" height="16px" viewBox="0 0 16 16" version="1.1" xmlns="http://www.w3.org/2000/svg" xmlns:xlink="http://www.w3.org/1999/xlink">
    <g id="画板备份-13" stroke="none" stroke-width="1" fill-rule="evenodd">
        <g id="面性/ic_only_filled-copy-6" transform="translate(0.000000, 0.000000)" opacity="0">
            <g id="编组">
                <rect id="矩形" x="0" y="0" width="15.9901901" height="16" ></rect>
            </g>
        </g>
        <path d="M12,0 C14.209139,-4.05812251e-16 16,1.790861 16,4 L16,12 C16,14.209139 14.209139,16 12,16 L4,16 C1.790861,16 2.705415e-16,14.209139 0,12 L0,4 C-2.705415e-16,1.790861 1.790861,4.05812251e-16 4,0 L12,0 Z M9.85582822,9.46518405 C9.61898955,9.46518405 9.42699387,9.62518045 9.42699387,9.82254601 L9.42699387,9.82254601 L9.42665644,11.180184 L8.0690184,11.1805215 L8.00478214,11.1874306 C7.83807335,11.2237408 7.71165644,11.3988326 7.71165644,11.6093558 C7.71165644,11.8461945 7.87165284,12.0381902 8.0690184,12.0381902 L8.0690184,12.0381902 L9.42665644,12.038184 L9.42699387,13.3961656 L9.43390296,13.4604019 C9.47021319,13.6271107 9.64530495,13.7535276 9.85582822,13.7535276 C10.0926669,13.7535276 10.2846626,13.5935312 10.2846626,13.3961656 L10.2846626,13.3961656 L10.2846564,12.038184 L11.642638,12.0381902 L11.7068743,12.0312811 C11.8735831,11.9949709 12,11.8198791 12,11.6093558 C12,11.3725172 11.8400036,11.1805215 11.642638,11.1805215 L11.642638,11.1805215 L10.2846564,11.180184 L10.2846626,9.82254601 L10.2777535,9.75830975 C10.2414433,9.59160096 10.0663515,9.46518405 9.85582822,9.46518405 Z M4.42857143,2.24647239 C4.19187796,2.24647239 4,2.43835036 4,2.67504382 L4,2.67504382 L4,13.2534838 C4,13.4901773 4.19187796,13.6820552 4.42857143,13.6820552 C4.66526489,13.6820552 4.85714286,13.4901773 4.85714286,13.2534838 L4.85714286,13.2534838 L4.85714286,2.67504382 C4.85714286,2.43835036 4.66526489,2.24647239 4.42857143,2.24647239 Z M8.85020708,2.77344538 C7.84510001,2.28408505 6.75719724,2.22525953 5.60074761,2.5956398 C5.49808692,2.62851931 5.42857143,2.72288858 5.42857143,2.8293739 L5.42857143,2.8293739 L5.42857143,7.43622457 L5.43557983,7.49499743 C5.47211786,7.64425359 5.6447264,7.72970273 5.79209999,7.65449399 C6.90674758,7.08565916 7.78834944,7.08565916 8.47942239,7.6284762 C9.37517529,8.29296032 10.5050547,8.34754406 11.8440919,7.81467313 C11.9383055,7.77718076 12,7.6869983 12,7.58677312 L12,7.58677312 L12,2.92169556 L11.9915335,2.84634239 C11.9803457,2.79717257 11.9582729,2.75071448 11.9265266,2.71045083 C11.8082593,2.56045333 11.5891163,2.533453 11.4370984,2.65018212 L11.4370984,2.65018212 L11.3727844,2.69808578 L11.2175984,2.8019665 C10.5916366,3.18831194 9.90235929,3.22447676 9.12447117,2.90859666 L9.12447117,2.90859666 L9.058,2.881 Z" id="形状结合" ></path>
    </g>
</svg>