<?xml version="1.0" encoding="UTF-8"?>
<svg width="16px" height="16px" viewBox="0 0 16 16" version="1.1" xmlns="http://www.w3.org/2000/svg" xmlns:xlink="http://www.w3.org/1999/xlink">
    <g stroke="none" stroke-width="1" fill="none" fill-rule="evenodd">
        <g transform="translate(-176.000000, -173.000000)" fill-rule="nonzero">
            <g transform="translate(-0.000000, 24.000000)">
                <g transform="translate(4.000000, 145.000000)">
                    <g transform="translate(172.000000, 4.000000)">
                        <path d="M15.4285714,0 C15.7441627,0 16,0.255837286 16,0.571428571 L16,15.4285714 C16,15.7441627 15.7441627,16 15.4285714,16 L0.571428571,16 C0.255837286,16 0,15.7441627 0,15.4285714 L0,0.571428571 C0,0.255837286 0.255837286,0 0.571428571,0 L15.4285714,0 Z M15,1 L1,1 L1,15 L15,15 L15,1 Z"></path>
                        <path d="M12,7.5 C12.2761424,7.5 12.5,7.72385763 12.5,8 C12.5,8.24545989 12.3231248,8.44960837 12.0898756,8.49194433 L12,8.5 L4,8.5 C3.72385763,8.5 3.5,8.27614237 3.5,8 C3.5,7.75454011 3.67687516,7.55039163 3.91012437,7.50805567 L4,7.5 L12,7.5 Z" fill="#D1D1D1"></path>
                        <path d="M8,3.5 C8.24545989,3.5 8.44960837,3.67687516 8.49194433,3.91012437 L8.5,4 L8.5,12 C8.5,12.2761424 8.27614237,12.5 8,12.5 C7.75454011,12.5 7.55039163,12.3231248 7.50805567,12.0898756 L7.5,12 L7.5,4 C7.5,3.72385763 7.72385763,3.5 8,3.5 Z" fill="#D1D1D1"></path>
                    </g>
                </g>
            </g>
        </g>
    </g>
</svg>