<?xml version="1.0" encoding="UTF-8"?>
<svg width="14px" height="12px" viewBox="0 0 14 12" version="1.1" xmlns="http://www.w3.org/2000/svg" xmlns:xlink="http://www.w3.org/1999/xlink">
    <g id="组件库" stroke="none" stroke-width="1" fill="none" fill-rule="evenodd">
        <g transform="translate(-157.000000, -384.000000)" id="告警图标,状态=alarm">
            <g transform="translate(157.000000, 384.000000)">
                <path d="M13.8849137,10.72 L10.8149137,5.57 L7.75491371,0.42 C7.58491371,0.14 7.29491371,0 7.00491371,0 C6.70491371,0 6.41491371,0.14 6.24491371,0.42 L3.18491371,5.57 L0.114913714,10.72 C-0.215086286,11.29 0.204913714,12 0.874913714,12 L13.1249137,12 C13.7949137,12 14.2149137,11.29 13.8849137,10.72 Z" id="路径" fill="#EBAF00"></path>
                <path d="M7.00491371,2.5 C6.72854371,2.5 6.50491371,2.72363 6.50491371,3 L6.50491371,7 C6.50491371,7.27637 6.72854371,7.5 7.00491371,7.5 C7.28128371,7.5 7.50491371,7.27637 7.50491371,7 L7.50491371,3 C7.50491371,2.72363 7.28128371,2.5 7.00491371,2.5 Z M6.25491371,9.25 C6.25491371,9.6641 6.59085371,10 7.00491371,10 C7.41897371,10 7.75491371,9.6641 7.75491371,9.25 C7.75491371,8.8359 7.41897371,8.5 7.00491371,8.5 C6.59085371,8.5 6.25491371,8.8359 6.25491371,9.25 Z" id="形状" fill="#FFFFFF"></path>
            </g>
        </g>
    </g>
</svg>