<?xml version="1.0" encoding="UTF-8"?>
<svg width="92px" height="16px" viewBox="0 0 92 16" version="1.1" xmlns="http://www.w3.org/2000/svg" xmlns:xlink="http://www.w3.org/1999/xlink">
    <g id="组件库" stroke="none" stroke-width="1" fill="none" fill-rule="evenodd">
        <g transform="translate(-137.000000, -1260.000000)" id="编组-5备份-2">
            <g transform="translate(183.000000, 1268.000000) rotate(-270.000000) translate(-183.000000, -1268.000000) translate(175.000000, 1222.000000)">
                <polygon id="矩形" fill="#2A2F37" transform="translate(8.000000, 46.000000) scale(-1, 1) rotate(-90.000000) translate(-8.000000, -46.000000) " points="-23.9358601 38 39.9358601 38 54 54 -38 54"></polygon>
                <g id="icons/dark/normal/project/下拉三角" transform="translate(8.000000, 46.000000) rotate(-270.000000) translate(-8.000000, -46.000000) translate(1.500000, 43.000000)" fill="#8D98AA">
                    <path d="M7.1782801,0.62610471 L12.0603148,5.13259828 C12.2632252,5.31990016 12.2758784,5.63622968 12.0885765,5.83914005 C11.9939231,5.94168115 11.8607238,6 11.7211747,6 L1.27882525,6 C1.00268288,6 0.778825251,5.77614237 0.778825251,5.5 C0.778825251,5.36045098 0.837144096,5.2272516 0.939685199,5.13259828 L5.8217199,0.62610471 C6.20478159,0.272509303 6.79521841,0.272509303 7.1782801,0.62610471 Z" id="三角形" transform="translate(6.500000, 3.000000) scale(1, -1) translate(-6.500000, -3.000000) "></path>
                </g>
            </g>
        </g>
    </g>
</svg>