<?xml version="1.0" encoding="UTF-8"?>
<svg width="16px" height="17px" viewBox="0 0 16 17" version="1.1" xmlns="http://www.w3.org/2000/svg" xmlns:xlink="http://www.w3.org/1999/xlink">
    <g id="高保真3" stroke="none" stroke-width="1" fill="none" fill-rule="evenodd">
        <g id="summary-Tensor/Data-Parellel" transform="translate(-288.000000, -1150.000000)">
            <g id="编组" transform="translate(288.000000, 1150.000000)">
                <path d="M0.501822633,7.99389257 C0.501822633,6.82219817 0.497721707,5.65050377 0.501822633,4.47880937 C0.499465327,3.9118275 0.569153213,3.3468434 0.7092124,2.7974279 C1.01619612,1.63452121 1.77369603,0.944393203 2.93543022,0.676661033 C3.5179388,0.550804817 4.1129078,0.491838567 4.70878847,0.500906873 C6.9557062,0.500906873 9.20281923,0.500906873 11.4501275,0.500906873 C12.0176823,0.497383723 12.5835922,0.562295223 13.1356088,0.69423645 C14.3324938,0.98716005 15.0507419,1.74524633 15.3243324,2.93803123 C15.4473329,3.50176153 15.5060967,4.07760813 15.4995006,4.65456353 C15.4995006,6.92569783 15.4995006,9.19702743 15.4995006,11.4685523 C15.502569,12.0306364 15.4378541,12.5910402 15.306757,13.137631 C15.0138336,14.3351027 14.2522328,15.0498363 13.0594487,15.3234269 C12.4768654,15.4488068 11.8819509,15.5077676 11.2860904,15.4991811 C9.04854623,15.4991811 6.81119733,15.4991811 4.5740437,15.4991811 C4.00215057,15.5038488 3.43176073,15.4399258 2.875088,15.3087807 C1.67293038,15.0158571 0.951167127,14.2542558 0.67816252,13.0556124 C0.538730983,12.4463313 0.501822633,11.8352927 0.501822633,11.2189814 C0.501822633,10.1441471 0.501822633,9.06911747 0.501822633,7.99389257 Z" id="path1" stroke-opacity="0" stroke="#FFFFFF" fill-opacity="0" fill="#FFFFFF" fill-rule="nonzero"></path>
                <path d="M0.501822633,7.99389257 C0.501822633,6.82219817 0.497721707,5.65050377 0.501822633,4.47880937 C0.499465327,3.9118275 0.569153213,3.3468434 0.7092124,2.7974279 C1.01619612,1.63452121 1.77369603,0.944393203 2.93543022,0.676661033 C3.5179388,0.550804817 4.1129078,0.491838567 4.70878847,0.500906873 C6.9557062,0.500906873 9.20281923,0.500906873 11.4501275,0.500906873 C12.0176823,0.497383723 12.5835922,0.562295223 13.1356088,0.69423645 C14.3324938,0.98716005 15.0507419,1.74524633 15.3243324,2.93803123 C15.4473329,3.50176153 15.5060967,4.07760813 15.4995006,4.65456353 C15.4995006,6.92569783 15.4995006,9.19702743 15.4995006,11.4685523 C15.502569,12.0306364 15.4378541,12.5910402 15.306757,13.137631 C15.0138336,14.3351027 14.2522328,15.0498363 13.0594487,15.3234269 C12.4768654,15.4488068 11.8819509,15.5077676 11.2860904,15.4991811 C9.04854623,15.4991811 6.81119733,15.4991811 4.5740437,15.4991811 C4.00215057,15.5038488 3.43176073,15.4399258 2.875088,15.3087807 C1.67293038,15.0158571 0.951167127,14.2542558 0.67816252,13.0556124 C0.538730983,12.4463313 0.501822633,11.8352927 0.501822633,11.2189814 C0.501822633,10.1441471 0.501822633,9.06911747 0.501822633,7.99389257 Z" id="path2" stroke-opacity="0" stroke="#FFFFFF"></path>
                <circle id="path3" fill-opacity="0" fill="#FFFFFF" fill-rule="nonzero" cx="8" cy="8" r="8"></circle>
                <path d="M8,3.5 C10.4852814,3.5 12.5,5.5073387 12.5,7.9835165 C12.5,9.58783823 11.6542662,10.9953518 10.3827703,11.7876239 L10.3823529,13.3842491 C10.3823529,13.678801 10.1435715,13.9175824 9.8490196,13.9175824 L6.1509804,13.9175824 C5.85642853,13.9175824 5.61764707,13.678801 5.61764707,13.3842491 L5.61722973,11.7876239 C4.34573383,10.9953518 3.5,9.58783823 3.5,7.9835165 C3.5,5.5073387 5.51471863,3.5 8,3.5 Z" id="path4" stroke="#EBAF00" fill="#EBAF00" fill-rule="nonzero" stroke-linecap="round" stroke-linejoin="round"></path>
                <line x1="5.61764707" y1="15.3681319" x2="10.3823529" y2="15.3681319" id="path5" stroke-opacity="0" stroke="#FFFFFF" stroke-linecap="round" stroke-linejoin="round"></line>
                <path d="M10.25,15.5333333 C10.3230965,15.5333333 10.3823529,15.5930287 10.3823529,15.6666667 C10.3823529,15.7403046 10.3230965,15.8 10.25,15.8 L5.75,15.8 C5.6769035,15.8 5.61764707,15.7403046 5.61764707,15.6666667 C5.61764707,15.5930287 5.6769035,15.5333333 5.75,15.5333333 L10.25,15.5333333 Z" id="path6" stroke="#EBAF00" fill="#EBAF00" fill-rule="nonzero" stroke-linejoin="round"></path>
                <path d="M8,0.833333333 L8,1.66666667 M13.0675986,2.9324014 L12.4783429,3.52165707 M15.1666667,8 L14.3333333,8 M0.833333333,8 L1.66666667,8 M2.9324014,2.9324014 L3.52165707,3.52165707" id="path7" stroke-opacity="0" stroke="#FFFFFF" stroke-linecap="round" stroke-linejoin="round"></path>
                <path d="M8,0.833333333 C8.1840949,0.833333333 8.33333333,0.98257175 8.33333333,1.16666667 L8.33333333,1.5 C8.33333333,1.68409492 8.1840949,1.83333333 8,1.83333333 C7.8159051,1.83333333 7.66666667,1.68409492 7.66666667,1.5 L7.66666667,1.16666667 C7.66666667,0.98257175 7.8159051,0.833333333 8,0.833333333 Z M13.0675986,2.9324014 C13.1977734,3.06257617 13.1977734,3.27363116 13.0675986,3.40380593 L12.8318963,3.63950817 C12.7017216,3.76968293 12.4906666,3.76968293 12.3604918,3.63950817 C12.2303171,3.50933343 12.2303171,3.29827843 12.3604918,3.16810366 L12.5961941,2.9324014 C12.7263688,2.80222664 12.9374238,2.80222664 13.0675986,2.9324014 Z M15.1666667,8 C15.1666667,8.1840949 15.0174282,8.33333333 14.8333333,8.33333333 L14.5,8.33333333 C14.3159051,8.33333333 14.1666667,8.1840949 14.1666667,8 C14.1666667,7.8159051 14.3159051,7.66666667 14.5,7.66666667 L14.8333333,7.66666667 C15.0174282,7.66666667 15.1666667,7.8159051 15.1666667,8 Z M0.833333333,8 C0.833333333,7.8159051 0.98257175,7.66666667 1.16666667,7.66666667 L1.5,7.66666667 C1.68409492,7.66666667 1.83333333,7.8159051 1.83333333,8 C1.83333333,8.1840949 1.68409492,8.33333333 1.5,8.33333333 L1.16666667,8.33333333 C0.98257175,8.33333333 0.833333333,8.1840949 0.833333333,8 Z M2.9324014,2.9324014 C3.06257617,2.80222664 3.27363116,2.80222664 3.40380593,2.9324014 L3.63950817,3.16810366 C3.76968293,3.29827843 3.76968293,3.50933343 3.63950817,3.63950817 C3.50933343,3.76968293 3.29827843,3.76968293 3.16810366,3.63950817 L2.9324014,3.40380593 C2.80222664,3.27363116 2.80222664,3.06257617 2.9324014,2.9324014 Z" id="path8" stroke="#EBAF00" fill="#EBAF00" fill-rule="nonzero" stroke-linejoin="round"></path>
            </g>
        </g>
    </g>
</svg>