<?xml version="1.0" encoding="UTF-8"?>
<svg width="16px" height="16px" viewBox="0 0 16 16" version="1.1" xmlns="http://www.w3.org/2000/svg" xmlns:xlink="http://www.w3.org/1999/xlink">
    <g stroke="none" stroke-width="1" fill="none" fill-rule="evenodd">
        <g transform="translate(-25.000000, -1374.000000)" >
            <g transform="translate(25.000000, 1374.000000)">
                <rect x="0" y="0" width="16" height="16"></rect>
                <path d="M11.5,7 C12.8807119,7 14,8.11928813 14,9.5 C14,10.8807119 12.8807119,12 11.5,12 C10.1192881,12 9,10.8807119 9,9.5 C9,8.11928813 10.1192881,7 11.5,7 Z M5.54110265,3.14396944 C5.74917233,3.14559685 5.94391103,3.27456356 6.01941229,3.48148471 L6.01941229,3.48148471 L8.82431614,11.1686923 C8.8244099,11.1689493 8.82450346,11.1692063 8.82459681,11.1694634 C8.92104297,11.435109 8.78387975,11.7286423 8.51823417,11.8250885 C8.25203737,11.9217348 7.95785755,11.7845568 7.86078449,11.5185153 L7.86078449,11.5185153 L6.95454382,9.03395386 L4.05862413,9.03422102 C4.05418965,9.03422102 4.04976835,9.03416458 4.04536092,9.03405237 L3.13921551,11.5185153 C3.04214245,11.7845568 2.74796263,11.9217348 2.48176583,11.8250885 C2.24563643,11.7393586 2.11102395,11.4979055 2.15176246,11.2587362 L2.17540319,11.1694634 C2.17549654,11.1692063 2.1755901,11.1689493 2.17568386,11.1686923 L4.98058771,3.48148471 C5.06100255,3.26109727 5.27667962,3.12914086 5.49966067,3.14528329 Z M11.5,8 C10.6715729,8 10,8.67157288 10,9.5 C10,10.3284271 10.6715729,11 11.5,11 C12.3284271,11 13,10.3284271 13,9.5 C13,8.67157288 12.3284271,8 11.5,8 Z M5.49954382,5.04795386 L4.41854382,8.01095386 L6.58054382,8.01095386 L5.49954382,5.04795386 Z"
                      fill="currentColor"></path>
                <rect fill="currentColor" x="13" y="7" width="1" height="5" rx="0.5"></rect>
            </g>
        </g>
    </g>
</svg>