<?xml version="1.0" encoding="UTF-8"?>
<svg width="16px" height="16px" viewBox="0 0 16 16" version="1.1" xmlns="http://www.w3.org/2000/svg" xmlns:xlink="http://www.w3.org/1999/xlink">
    <g id="规范" stroke="none" stroke-width="1" fill="currentColor" fill-rule="evenodd">
        <g id="表格" transform="translate(-318.000000, -3531.000000)">
            <g id="编组-8" transform="translate(248.000000, 3523.000000)">
                <g id="Dark/1-icon/16/公共/筛选" transform="translate(71.920000, 10.000000)">
                    <g>
                        <path d="M11.3514719,-1.0658141e-14 C11.5636451,-1.0658141e-14 11.7671282,0.0854725916 11.9171573,0.23761478 C12.1812262,0.50540293 12.2260555,0.920470382 11.9983287,1.28653284 L11.9170803,1.38499846 L8.074,5.27932394 L8.07573593,10.9859155 C8.07573593,11.5059744 7.68969574,11.9345988 7.19235706,11.9931775 L7.07573593,12 C6.98097885,12 6.88670273,11.9863423 6.79573593,11.9594366 L5.15573593,11.4743662 C4.51573593,11.2850704 4.07573593,10.6901408 4.07573594,10.014161 L4.075,5.27932394 L0.234314575,1.38492043 C0.144783267,1.29412812 0.0782515824,1.18358269 0.0356739944,1.03739288 L0.00824710994,0.920818905 L-3.92574862e-13,0.811267606 C-3.92574862e-13,0.432557973 0.257721537,0.10691537 0.673998871,0.0113652792 L0.8,-1.0658141e-14 Z M1.279,1.01002817 L4.92854168,4.71086356 C5.02229854,4.80593464 5.07497998,4.93487666 5.07499999,5.06933192 L5.07573593,10.0140845 C5.07573593,10.2394366 5.2224026,10.4377465 5.43573593,10.5008451 L7.07573593,10.9859155 L7.075,5.06947241 C7.07498327,4.93493604 7.12769285,4.80590828 7.22152357,4.71079741 L10.872,1.01408451 L1.279,1.01002817 Z M11.5757359,9.5 C11.8518783,9.5 12.0757359,9.72385763 12.0757359,10 C12.0757359,10.2454599 11.8988608,10.4496084 11.6656116,10.4919443 L11.5757359,10.5 L9.07573593,10.5 C8.79959356,10.5 8.57573593,10.2761424 8.57573593,10 C8.57573593,9.75454011 8.75261109,9.55039163 8.9858603,9.50805567 L9.07573593,9.5 L11.5757359,9.5 Z M11.5757359,7.5 C11.8518783,7.5 12.0757359,7.72385763 12.0757359,8 C12.0757359,8.24545989 11.8988608,8.44960837 11.6656116,8.49194433 L11.5757359,8.5 L9.07573593,8.5 C8.79959356,8.5 8.57573593,8.27614237 8.57573593,8 C8.57573593,7.75454011 8.75261109,7.55039163 8.9858603,7.50805567 L9.07573593,7.5 L11.5757359,7.5 Z M11.5757359,5.5 C11.8518783,5.5 12.0757359,5.72385763 12.0757359,6 C12.0757359,6.24545989 11.8988608,6.44960837 11.6656116,6.49194433 L11.5757359,6.5 L9.07573593,6.5 C8.79959356,6.5 8.57573593,6.27614237 8.57573593,6 C8.57573593,5.75454011 8.75261109,5.55039163 8.9858603,5.50805567 L9.07573593,5.5 L11.5757359,5.5 Z"></path>
                    </g>
                </g>
            </g>
        </g>
    </g>
</svg>