<?xml version="1.0" encoding="UTF-8"?>
<svg width="16px" height="16px" viewBox="0 0 16 16" version="1.1" xmlns="http://www.w3.org/2000/svg" xmlns:xlink="http://www.w3.org/1999/xlink">
    <g stroke="none" stroke-width="1" fill="none" fill-rule="evenodd">
        <g transform="translate(-24.000000, -88.000000)">
            <g transform="translate(24.004103, 89.000000)">
                <path d="M15.5,0 C15.7761424,-5.07265313e-17 16,0.223857625 16,0.5 L16,13.5 C16,13.7761424 15.7761424,14 15.5,14 L0.5,14 C0.223857625,14 3.38176876e-17,13.7761424 0,13.5 L0,0.5 C-3.38176876e-17,0.223857625 0.223857625,5.07265313e-17 0.5,0 L15.5,0 Z M14.4958974,2 L1.49589744,2 C1.21975506,2 0.995897436,2.22385763 0.995897436,2.5 L0.995897436,11.5 C0.995897436,11.7761424 1.21975506,12 1.49589744,12 L14.4958974,12 C14.7720398,12 14.9958974,11.7761424 14.9958974,11.5 L14.9958974,2.5 C14.9958974,2.22385763 14.7720398,2 14.4958974,2 Z" fill="#007AFF"></path>
                <path d="M2.49589744,3 L13.4958974,3 C13.7720398,3 13.9958974,3.22385763 13.9958974,3.5 L13.9958974,10.5 C13.9958974,10.7761424 13.7720398,11 13.4958974,11 L2.49589744,11 C2.21975506,11 1.99589744,10.7761424 1.99589744,10.5 L1.99589744,3.5 C1.99589744,3.22385763 2.21975506,3 2.49589744,3 Z" fill="#8D98AA"></path>
            </g>
        </g>
    </g>
</svg>