<?xml version="1.0" encoding="UTF-8"?>
<svg width="16px" height="16px" viewBox="0 0 16 16" version="1.1" xmlns="http://www.w3.org/2000/svg" xmlns:xlink="http://www.w3.org/1999/xlink">
    <g stroke="none" stroke-width="1" fill="none" fill-rule="evenodd">
        <g transform="translate(-199.000000, -1168.000000)" fill="currentColor">
            <g transform="translate(200.000000, 1169.500000)">
                <g transform="translate(0.000000, 1.181818)">
                    <rect x="0" y="0.318181818" width="14" height="1" rx="0.5"></rect>
                    <rect x="5" y="3.31818182" width="1" height="6" rx="0.5"></rect>
                    <rect x="8" y="3.31818182" width="1" height="6" rx="0.5"></rect>
                </g>
                <path d="M11.5,2 C11.7454599,2 11.9496084,2.17687516 11.9919443,2.41012437 L12,2.5 L12,12 C12,12.5128358 11.6139598,12.9355072 11.1166211,12.9932723 L11,13 L3,13 C2.48716416,13 2.06449284,12.6139598 2.00672773,12.1166211 L2,12 L2,2.5 C2,2.22385763 2.22385763,2 2.5,2 C2.74545989,2 2.94960837,2.17687516 2.99194433,2.41012437 L3,2.5 L3,12 L11,12 L11,2.5 C11,2.22385763 11.2238576,2 11.5,2 Z" fill-rule="nonzero"></path>
                <path d="M9,-0.5 C9.51283584,-0.5 9.93550716,-0.11395981 9.99327227,0.383378875 L10,0.5 L10,2 C10,2.27614237 9.77614237,2.5 9.5,2.5 C9.25454011,2.5 9.05039163,2.32312484 9.00805567,2.08987563 L9,2 L9,0.5 L5,0.5 L5,2 C5,2.27614237 4.77614237,2.5 4.5,2.5 C4.25454011,2.5 4.05039163,2.32312484 4.00805567,2.08987563 L4,2 L4,0.5 C4,-0.0128358391 4.38604019,-0.435507161 4.88337887,-0.493272269 L5,-0.5 L9,-0.5 Z" fill-rule="nonzero"></path>
            </g>
        </g>
    </g>
</svg>