<svg viewBox="0 0 15 15" xmlns="http://www.w3.org/2000/svg" xmlns:xlink="http://www.w3.org/1999/xlink" width="15.000000"
     height="15.000000" fill="none" customFrame="#000000">
    <g id="eye-close-outlined-dark">
        <rect id="矩形" width="15.000000" height="15.000000" x="0.000000" y="0.000000" opacity="0"
              fill="rgb(188,188,188)"/>
        <path id="形状"
              d="M12.8657 2.25879L12.2446 1.6377C12.1992 1.59229 12.1245 1.59229 12.0791 1.6377L10.3682 3.34717C9.51269 2.93262 8.55762 2.72461 7.5 2.72461C4.68457 2.72461 2.58691 4.19678 1.19824 7.12354L1.19824 7.125C1.08545 7.36231 1.08545 7.64062 1.19824 7.8794C1.73145 9.00293 2.37012 9.91113 3.11279 10.6055L1.6377 12.0776C1.59229 12.123 1.59229 12.1978 1.6377 12.2432L2.25879 12.8643C2.3042 12.9097 2.37891 12.9097 2.42432 12.8643L12.8657 2.42285C12.9111 2.37891 12.9111 2.3042 12.8657 2.25879ZM8.5459 5.16943C8.21045 5.01123 7.83691 4.92188 7.44141 4.92188C6.01758 4.92188 4.86328 6.07617 4.86328 7.5C4.86328 7.89551 4.95264 8.26904 5.11084 8.60449L3.85693 9.8584C3.2168 9.26953 2.66309 8.48584 2.18555 7.50146C3.40723 4.97754 5.13721 3.7793 7.5 3.7793C8.25146 3.7793 8.93994 3.90088 9.56836 4.14697L8.5459 5.16943ZM13.8003 7.12207L13.8032 7.125C13.9146 7.36377 13.9146 7.63916 13.8018 7.87646C12.4131 10.8032 10.3154 12.2754 7.5 12.2754C6.44238 12.2754 5.4873 12.0674 4.63037 11.6543L5.43164 10.853C6.06006 11.0991 6.74854 11.2207 7.5 11.2207C9.86426 11.2207 11.5942 10.0225 12.8145 7.49854C12.3369 6.51416 11.7832 5.73047 11.1431 5.1416L11.8857 4.39746C12.6284 5.09033 13.2671 5.99854 13.8003 7.12207ZM5.80078 7.5C5.80078 7.62744 5.81543 7.75195 5.84326 7.87207L7.81348 5.90185C7.69482 5.87402 7.56885 5.85937 7.44141 5.85937C6.53467 5.85937 5.80078 6.59326 5.80078 7.5ZM7.16602 9.11719C7.25537 9.1333 7.34766 9.14062 7.44141 9.14062C8.34814 9.14062 9.08203 8.40674 9.0835 7.49854C9.0835 7.40479 9.07471 7.3125 9.06006 7.22314L9.80859 6.47461C9.94482 6.78809 10.0195 7.13525 10.0195 7.49854C10.0195 8.92236 8.86523 10.0767 7.44141 10.0767C7.07812 10.0767 6.73096 10.002 6.41748 9.86572L7.16602 9.11719Z"
              fill="currentColor" fill-rule="evenodd"/>
    </g>
</svg>
