<?xml version="1.0" encoding="UTF-8"?>
<svg width="16px" height="16px" viewBox="0 0 16 16" version="1.1" xmlns="http://www.w3.org/2000/svg" xmlns:xlink="http://www.w3.org/1999/xlink">
    <g id="组件库" stroke="none" stroke-width="1" fill="none" fill-rule="evenodd">
        <g transform="translate(-251.000000, -1168.000000)" id="编组-32备份-2">
            <g transform="translate(251.000000, 1168.000000)">
                <polygon id="矩形" points="16 0 16 16 0 16 0 0"></polygon>
                <path d="M13.492025,1 C13.61507,1 13.733929,1.0425925 13.826528,1.119865 C14.037648,1.2960475 14.059046,1.6021075 13.874316,1.8034675 L8,8.205 L8,14 C8,14.27614 7.776142,14.5 7.5,14.5 C7.25454,14.5 7.050392,14.323124 7.008056,14.089877 L7.00447556,14.0499317 C7.00328207,14.0366166 7.00179022,14.0199727 7,14 L6.99953693,8.20574034 C3.08363498,3.93755845 1.125684,1.8034675 1.125684,1.8034675 C1.044655,1.715155 1,1.6018 1,1.484455 C1,1.2169 1.227422,1 1.507962,1 Z M12.3733584,2.21972211 L2.62760417,2.21972211 L7.47256643,7.50073985 C7.48164863,7.50024873 7.49079527,7.5 7.5,7.5 L7.527,7.502 L12.3733584,2.21972211 Z" id="形状结合" fill="#D1D1D1"></path>
            </g>
        </g>
    </g>
</svg>