<?xml version="1.0" encoding="UTF-8"?>
<svg width="16px" height="16px" viewBox="0 0 16 16" version="1.1" xmlns="http://www.w3.org/2000/svg" xmlns:xlink="http://www.w3.org/1999/xlink">
    <g id="组件库" stroke="none" stroke-width="1" fill="none" fill-rule="evenodd">
        <g transform="translate(-282.000000, -88.000000)" id="编组备份-7">
            <g transform="translate(282.000000, 88.000000)">
                <polygon id="矩形" points="16 0 16 16 0 16 0 0"></polygon>
                <path d="M3,1.5 L3,14.5 C3,14.77614 2.776142,15 2.5,15 C2.223858,15 2,14.77614 2,14.5 C2,14.5 2,10.1666667 2,1.5 C2,1.22386 2.223858,1 2.5,1 C2.776142,1 3,1.22386 3,1.5 C3,1.5 3,1.5 3,1.5 Z" id="路径" fill="#8D98AA"></path>
                <path d="M13.5,4 C13.77614,4 14,4.22386 14,4.5 L14,10.5 C14,10.77614 13.77614,11 13.5,11 L7.5,11 C7.22386,11 7,10.77614 7,10.5 L7,9 L8,9 L8,10 L13,10 L13,5 L10,5 L10,4 L13.5,4 Z" id="形状结合" fill="#8D98AA"></path>
                <path d="M9.5,2 C9.776144,2 10,2.22386 10,2.5 L10,8.5 C10,8.77614 9.776144,9 9.5,9 L2.5,9 C2.223856,9 2,8.77614 2,8.5 L2,2.5 C2,2.22386 2.223856,2 2.5,2 L9.5,2 Z M9,3 L3,3 L3,8 L9,8 L9,3 Z" id="路径-31" fill="#8D98AA"></path>
            </g>
        </g>
    </g>
</svg>