<?xml version="1.0" encoding="UTF-8"?>
<svg width="16px" height="16px" viewBox="0 0 16 16" version="1.1" xmlns="http://www.w3.org/2000/svg"
     xmlns:xlink="http://www.w3.org/1999/xlink">
    <g stroke="none" stroke-width="1" fill="none" fill-rule="evenodd">
        <g transform="translate(-43.000000, -1374.000000)">
            <g transform="translate(43.000000, 1374.000000)">
                <rect x="0" y="0" width="16" height="16"></rect>
                <path d="M4.16359677,2.89929129 C4.44620848,2.8990649 4.67549407,3.12798343 4.67572046,3.41059514 C4.67572068,3.41086868 4.67572068,3.41114222 4.67572046,3.41141576 L4.66915285,11.5943616 C4.66892556,11.8775598 4.4394046,12.1070804 4.15620645,12.1073072 C3.87359474,12.1075336 3.64430915,11.8786151 3.64408276,11.5960034 C3.64408254,11.5957298 3.64408254,11.5954563 3.64408276,11.5951828 L3.65065036,3.41223691 C3.65087766,3.12903876 3.88039862,2.89951815 4.16359677,2.89929129 Z"
                      fill="currentColor"
                      transform="translate(4.159902, 7.503299) scale(-1, 1) rotate(20.000000) translate(-4.159902, -7.503299) "></path>
                <path d="M11.8014569,2.89929129 C12.0840686,2.8990649 12.3133542,3.12798343 12.3135806,3.41059514 C12.3135808,3.41086868 12.3135808,3.41114222 12.3135806,3.41141576 L12.307013,11.5943616 C12.3067857,11.8775598 12.0772647,12.1070804 11.7940666,12.1073072 C11.5114548,12.1075336 11.2821693,11.8786151 11.2819429,11.5960034 C11.2819426,11.5957298 11.2819426,11.5954563 11.2819429,11.5951828 L11.2885105,3.41223691 C11.2887378,3.12903876 11.5182587,2.89951815 11.8014569,2.89929129 Z"
                      fill="currentColor"
                      transform="translate(11.797762, 7.503299) rotate(20.000000) translate(-11.797762, -7.503299) "></path>
                <path d="M6.79473356,4.08428604 C7.07734071,4.08408937 7.30659851,4.31302831 7.30679518,4.59563546 C7.30679537,4.59591175 7.30679534,4.59618803 7.30679509,4.59646431 L7.3003518,11.5706811 C7.30009016,11.8538805 7.07054272,12.0833756 6.78734324,12.0835727 C6.50473608,12.0837694 6.27547828,11.8548304 6.27528161,11.5722233 C6.27528142,11.571947 6.27528145,11.5716707 6.27528171,11.5713944 L6.28172499,4.59717767 C6.28198663,4.31397824 6.51153407,4.08448312 6.79473356,4.08428604 Z"
                      fill="currentColor"
                      transform="translate(6.791038, 8.083929) rotate(20.000000) translate(-6.791038, -8.083929) "></path>
                <path d="M9.19473356,4.08428604 C9.47734071,4.08408937 9.70659851,4.31302831 9.70679518,4.59563546 C9.70679537,4.59591175 9.70679534,4.59618803 9.70679509,4.59646431 L9.7003518,11.5706811 C9.70009016,11.8538805 9.47054272,12.0833756 9.18734324,12.0835727 C8.90473608,12.0837694 8.67547828,11.8548304 8.67528161,11.5722233 C8.67528142,11.571947 8.67528145,11.5716707 8.67528171,11.5713944 L8.68172499,4.59717767 C8.68198663,4.31397824 8.91153407,4.08448312 9.19473356,4.08428604 Z"
                      fill="currentColor"
                      transform="translate(9.191038, 8.083929) scale(-1, 1) rotate(20.000000) translate(-9.191038, -8.083929) "></path>
            </g>
        </g>
    </g>
</svg>