<?xml version="1.0" encoding="UTF-8"?>
<svg width="16px" height="16px" viewBox="0 0 16 16" version="1.1" xmlns="http://www.w3.org/2000/svg" xmlns:xlink="http://www.w3.org/1999/xlink">
    <g id="组件库" stroke="none" stroke-width="1" fill="none" fill-rule="evenodd">
        <g transform="translate(-72.000000, -40.000000)" id="icons/light/normal/ascendinsight/help备份">
            <g transform="translate(72.000000, 40.000000)">
                <rect id="矩形" x="0" y="0" width="16" height="16"></rect>
                <path d="M8.51,10 L8.51,9.86 C8.51,9.62 8.56,9.4 8.66,9.2 C8.75,9.02 8.88,8.85 9.06,8.71 C9.54,8.29 9.83,8.02 9.92,7.92 C10.16,7.6 10.29,7.19 10.29,6.69 C10.29,6.08 10.09,5.6 9.69,5.25 C9.29,4.89 8.76,4.72 8.11,4.72 C7.37,4.72 6.79,4.93 6.36,5.35 C5.92,5.77 5.71,6.26197568 5.71,7.00197568 L6.85,7.00197568 C6.85,6.57197568 6.93,6.33 7.1,6.1 C7.3,5.83 7.61,5.7 8.04,5.7 C8.38,5.7 8.65,5.79 8.84,5.98 C9.02,6.17 9.12,6.43 9.12,6.76 C9.12,7.01 9.03,7.25 8.85,7.47 L8.73,7.61 C8.08,8.19 7.69,8.61 7.56,8.88 C7.42,9.15 7.36,9.48 7.36,9.86 L7.36,10 L8.51,10 Z M7.93,12 C8.15,12 8.33,11.93 8.49,11.79 C8.63,11.65 8.71,11.46 8.71,11.24 C8.71,11.02 8.63,10.84 8.49,10.7 C8.34,10.56 8.15,10.49 7.93,10.49 C7.71,10.49 7.53,10.56 7.39,10.7 C7.23,10.84 7.16,11.02 7.16,11.24 C7.16,11.46 7.23,11.64 7.39,11.78 C7.53,11.92 7.71,12 7.93,12 Z" id="?" fill="#595959" fill-rule="nonzero"></path>
                <path d="M8,2 C11.3137085,2 14,4.6862915 14,8 C14,11.3137085 11.3137085,14 8,14 C4.6862915,14 2,11.3137085 2,8 C2,4.6862915 4.6862915,2 8,2 Z M8,2.85714286 C5.15967843,2.85714286 2.85714286,5.15967843 2.85714286,8 C2.85714286,10.8403216 5.15967843,13.1428571 8,13.1428571 C10.8403216,13.1428571 13.1428571,10.8403216 13.1428571,8 C13.1428571,5.15967843 10.8403216,2.85714286 8,2.85714286 Z" id="椭圆形" fill="#595959" fill-rule="nonzero"></path>
            </g>
        </g>
    </g>
</svg>