<?xml version="1.0" encoding="UTF-8"?>
<svg width="16px" height="16px" viewBox="0 0 16 16" version="1.1" xmlns="http://www.w3.org/2000/svg" xmlns:xlink="http://www.w3.org/1999/xlink">
    <title>icons/dark/normal/ascendinsight/pin_line</title>
    <g id="组件库" stroke="none" stroke-width="1" fill="none" fill-rule="evenodd">
        <g transform="translate(-43.000000, -1120.000000)" id="icons/dark/normal/ascendinsight/pin_line">
            <g transform="translate(43.000000, 1120.000000)">
                <rect id="矩形" x="0" y="0" width="16" height="16"></rect>
                <path d="M11.5,1 C12.3284271,1 13,1.67157288 13,2.5 C13,3.32842712 12.3284271,4 11.499953,4 L10.9995086,3.999 L10.9995086,6.87 L11.1957515,6.92109839 C12.5949449,7.28690406 13.0611938,7.42401093 13.2901794,7.56374162 L13.3228347,7.58474982 C13.7684077,7.88733564 13.9839704,8.38731539 13.9028849,8.92615605 C13.7831763,9.72166047 13.1489629,10 12.4979758,10 L9.49950857,9.999 L9.50077751,13.8073766 C9.50077751,14.4287528 9.02848287,14.9398436 8.42345273,15.0011818 L8.30077751,15.0073522 L7.69977861,15.0073522 C7.03726712,15.0072054 6.50020328,14.4702073 6.49997556,13.8074744 L6.49850857,10 L3.50350857,10 C3.25775079,10 3.17480845,10.0673569 2.72113517,9.85200779 C2.26746188,9.63665872 2.00350857,9.19855564 2.00350857,8.6901289 C2.00350857,8.15026563 2.26052767,7.78375706 2.67145827,7.50980332 C2.82443259,7.40782044 3.60011602,7.19755267 4.99850857,6.879 L4.99950857,4 L4.5,4 C3.72030388,4 3.07955132,3.40511192 3.00686658,2.64446001 L3,2.5 C3,1.67157288 3.67157288,1 4.5,1 L11.5,1 Z M11.5,2 L4.5,2 C4.22385763,2 4,2.22385763 4,2.5 C4,2.77614237 4.22385763,3 4.5,3 L5.5,3 C5.74545989,2.99990469 5.94960837,3.17676927 5.99194433,3.4100173 L5.99989277,3.5 L5.99907879,7.29550275 C5.99902156,7.56234421 5.7894345,7.78211714 5.52289594,7.79482794 C4.05355955,8.11829711 3.2879804,8.300639 3.22615847,8.34185361 C3.08705914,8.4345865 3.00350857,8.5229523 3.00350857,8.6901289 C3.00350857,8.96627127 3.22736619,9 3.50350857,9 L6.99938782,9 C7.27550632,9.00006113 7.49935406,9.2238815 7.49944895,9.5 L7.49997555,13.8073522 C7.5000135,13.9177995 7.5895526,14.0073522 7.7,14.0073522 L8.30077751,14.0073522 C8.39282497,14.0073522 8.47034889,13.9451932 8.49363332,13.8605444 L8.50075306,13.8073522 L8.50022646,9.5 C8.50014212,9.25454012 8.67698628,9.05037001 8.91022964,9.00800554 L9.00016533,9 L12.4979933,9 C12.6651699,9 12.8892855,8.94170901 12.9140185,8.7773501 C12.9387514,8.61299119 12.8834083,8.49512605 12.7610375,8.41202478 C12.7418421,8.39898928 12.6853599,8.37721196 12.591591,8.34669281 L12.4229725,8.29435771 C12.0625694,8.18639002 11.4201852,8.01231226 10.4958199,7.77212441 C10.2222265,7.77212441 10.0004279,7.55034673 10.0004022,7.27675327 L10.000047,3.5 C9.99998214,3.25454011 10.1768335,3.050375 10.4100782,3.0080171 L10.5,3 L11.5,3 C11.7761424,3 12,2.77614237 12,2.5 C12,2.22385763 11.7761424,2 11.5,2 Z" id="路径" fill="#007AFF" fill-rule="nonzero"></path>
            </g>
        </g>
    </g>
</svg>