<?xml version="1.0" encoding="UTF-8"?>
<svg width="16px" height="16px" viewBox="0 0 16 16" version="1.1" xmlns="http://www.w3.org/2000/svg" xmlns:xlink="http://www.w3.org/1999/xlink">
    <title>icons/dark/normal/ascendinsight/pin</title>
    <g id="组件库" stroke="none" stroke-width="1" fill="none" fill-rule="evenodd">
        <g transform="translate(-24.000000, -1120.000000)" id="icons/dark/normal/ascendinsight/pin">
            <g transform="translate(24.000000, 1120.000000)">
                <rect id="矩形" x="0" y="0" width="16" height="16"></rect>
                <path d="M12.5,1 L3.5,1 C3.22385763,1 3,1.22385763 3,1.5 L3,2.5 C3,2.77614237 3.22385763,3 3.5,3 L5,3 L4.99897657,8 C4.96964039,8.00938911 4.80331487,8.01732091 4.5,8.0237954 L2.22615847,9.08397485 C2.08705914,9.17670774 2.00350857,9.33282341 2.00350857,9.5 C2.00350857,9.77614237 2.22736619,10 2.50350857,10 L6.99938782,10 L7,14.5 C7,14.7761424 7.22385763,15 7.5,15 L8.5,15 C8.77614237,15 9,14.7761424 9,14.5 L8.99938782,10 L13.4979933,10 C13.6651699,10 13.8212856,9.91644943 13.9140185,9.7773501 C14.0671947,9.54758575 14.0051078,9.23715108 13.7753434,9.08397485 L11.4958199,8 L11.0004488,8 L11,3 L12.5,3 C12.7761424,3 13,2.77614237 13,2.5 L13,1.5 C13,1.22385763 12.7761424,1 12.5,1 Z" id="路径" fill="#007AFF" fill-rule="nonzero"></path>
            </g>
        </g>
    </g>
</svg>