<?xml version="1.0" encoding="UTF-8"?>
<svg width="16px" height="16px" viewBox="0 0 16 16" version="1.1" xmlns="http://www.w3.org/2000/svg" xmlns:xlink="http://www.w3.org/1999/xlink">
    <g id="高保真" stroke="none" stroke-width="1" fill="none" fill-rule="evenodd">
        <g id="Timeline-view-解析方案一" transform="translate(-470.000000, -812.000000)">
            <g id="编组备份-20" transform="translate(470.000000, 812.000000)">
                <path d="M0.501822633,7.99388737 C0.501822633,6.8221938 0.497721707,5.6505002 0.501822633,4.4788066 C0.499465327,3.91182513 0.569153213,3.34684143 0.7092124,2.79742631 C1.01619612,1.63452042 1.77369603,0.944392897 2.93543022,0.67666091 C3.5179388,0.55080478 4.1129078,0.491838573 4.70878847,0.500906873 C6.9557062,0.500906873 9.20281923,0.500906873 11.4501275,0.500906873 C12.0176823,0.497383723 12.5835922,0.56229518 13.1356088,0.694236313 C14.3324938,0.987159713 15.0507419,1.74524547 15.3243324,2.93802954 C15.4473329,3.50175947 15.5060967,4.07760567 15.4995006,4.65456063 C15.4995006,6.9256934 15.4995006,9.19702143 15.4995006,11.4685447 C15.502569,12.0306284 15.4378541,12.5910319 15.306757,13.1376222 C15.0138336,14.3350931 14.2522328,15.0498262 13.0594487,15.3234166 C12.4768654,15.4487964 11.8819509,15.5077572 11.2860904,15.4991707 C9.04854623,15.4991707 6.81119733,15.4991707 4.5740437,15.4991707 C4.00215057,15.5038384 3.43176073,15.4399154 2.875088,15.3087705 C1.67293038,15.0158471 0.951167127,14.2542462 0.67816252,13.0556037 C0.538730983,12.446323 0.501822633,11.8352848 0.501822633,11.218974 C0.501822633,10.1441404 0.501822633,9.06911153 0.501822633,7.99388737 Z" id="path1" stroke-opacity="0" stroke="#FFFFFF" fill-opacity="0" fill="#FFFFFF" fill-rule="nonzero"></path>
                <path d="M0.501822633,7.99388737 C0.501822633,6.8221938 0.497721707,5.6505002 0.501822633,4.4788066 C0.499465327,3.91182513 0.569153213,3.34684143 0.7092124,2.79742631 C1.01619612,1.63452042 1.77369603,0.944392897 2.93543022,0.67666091 C3.5179388,0.55080478 4.1129078,0.491838573 4.70878847,0.500906873 C6.9557062,0.500906873 9.20281923,0.500906873 11.4501275,0.500906873 C12.0176823,0.497383723 12.5835922,0.56229518 13.1356088,0.694236313 C14.3324938,0.987159713 15.0507419,1.74524547 15.3243324,2.93802954 C15.4473329,3.50175947 15.5060967,4.07760567 15.4995006,4.65456063 C15.4995006,6.9256934 15.4995006,9.19702143 15.4995006,11.4685447 C15.502569,12.0306284 15.4378541,12.5910319 15.306757,13.1376222 C15.0138336,14.3350931 14.2522328,15.0498262 13.0594487,15.3234166 C12.4768654,15.4487964 11.8819509,15.5077572 11.2860904,15.4991707 C9.04854623,15.4991707 6.81119733,15.4991707 4.5740437,15.4991707 C4.00215057,15.5038384 3.43176073,15.4399154 2.875088,15.3087705 C1.67293038,15.0158471 0.951167127,14.2542462 0.67816252,13.0556037 C0.538730983,12.446323 0.501822633,11.8352848 0.501822633,11.218974 C0.501822633,10.1441404 0.501822633,9.06911153 0.501822633,7.99388737 Z" id="path2" stroke-opacity="0" stroke="#FFFFFF" opacity="0.200000003"></path>
                <circle id="path3" fill-opacity="0" fill="#FFFFFF" fill-rule="nonzero" cx="8" cy="8" r="8"></circle>
                <circle id="path4" stroke-opacity="0" stroke="#FFFFFF" fill-opacity="0" fill="#FFFFFF" fill-rule="nonzero" stroke-linecap="round" stroke-linejoin="round" cx="8" cy="8" r="7.5"></circle>
                <path d="M12.8110432,2.24616919 C11.5088234,1.15615984 9.83103887,0.5 8,0.5 C3.85786437,0.5 0.5,3.85786437 0.5,8 C0.5,12.1421356 3.85786437,15.5 8,15.5 C12.1421356,15.5 15.5,12.1421356 15.5,8 C15.5,6.1688766 14.8437796,4.49102167 13.7536798,3.18877638" id="path5" stroke="#0077FF" stroke-linecap="round" stroke-linejoin="round"></path>
                <path d="M9.06086837,5.32377027 L11.8834081,10.0280032 C12.0728402,10.3437233 11.9704635,10.7532302 11.6547433,10.9426623 C11.551133,11.0048284 11.4325754,11.037667 11.3117461,11.037667 L5.66666667,11.037667 C5.29847683,11.037667 5,10.7391902 5,10.3710003 C5,10.250171 5.03283853,10.1316134 5.0950047,10.0280032 L7.91754443,5.32377027 C8.10697657,5.00805007 8.5164834,4.90567337 8.83220357,5.09510547 C8.92603663,5.1514053 9.0045685,5.22993717 9.06086837,5.32377027 Z" id="path6" stroke="#0077FF" fill="#0077FF" fill-rule="nonzero" stroke-linejoin="round" transform="translate(8.489257, 8.018833) rotate(90.000000) translate(-8.489257, -8.018833) "></path>
            </g>
        </g>
    </g>
</svg>