<?xml version="1.0" encoding="UTF-8"?>
<svg width="16px" height="16px" viewBox="0 0 16 16" version="1.1" xmlns="http://www.w3.org/2000/svg" xmlns:xlink="http://www.w3.org/1999/xlink">
    <defs>
        <path d="M7.28026667,0 L1.5,0 C0.671546667,0 0,0.671873333 0,1.5 L0,9.5 C0,10.3281333 0.671546667,11 1.5,11 L5.08528667,11 C5.29134,11.5826667 5.847,12 6.5,12 L12.2952667,12 C13.1236667,12 13.7952667,11.3281333 13.7952667,10.5 L13.7952667,2.5 C13.7952667,1.67187333 13.1236667,1 12.2952667,1 L8.695,1 C8.48893333,0.41732 7.93326667,0 7.28026667,0 Z M6.52573333,2.22330667 C6.6292,1.67122667 7.02766667,1.23763333 7.5394,1.07226667 C7.46386667,1.02669333 7.375,1 7.28026667,1 L1.5,1 C1.22396,1 1,1.22396 1,1.5 L1,9.5 C1,9.77606667 1.22396,10 1.5,10 L5.06770667,10 L6.52573333,2.22330667 Z M4.06933333,6 L4.06933333,4.74806667 L5.60026,4.74806667 L5.60026,2.71289333 L4.06933333,2.71289333 L4.06933333,2 L3.51790667,2 L3.51790667,2.71289333 L2.00032667,2.71289333 L2.00032667,4.74806667 L3.51790667,4.74806667 L3.51790667,6 L4.06933333,6 Z M2.55176,4.22200667 L3.51790667,4.22200667 L3.51790667,3.24348667 L2.55176,3.24348667 L2.55176,4.22200667 Z M5.04427333,4.22200667 L4.06933333,4.22200667 L4.06933333,3.24348667 L5.04427333,3.24348667 L5.04427333,4.22200667 Z M9.69466667,9.2194 L9.69466667,10 L6.80013333,10 L6.80013333,5.5 L9.6292,5.5 L9.6292,6.27473333 L7.66013333,6.27473333 L7.66013333,7.332 L9.42186667,7.332 L9.42186667,8.10026667 L7.66013333,8.10026667 L7.66013333,9.2194 L9.69466667,9.2194 Z M11.1598,10 L11.1598,8.40166667 C11.1598,8.1146 11.2200667,7.8926 11.3404667,7.7344 C11.4612667,7.5768 11.6204667,7.49806667 11.8180667,7.49806667 C11.9258,7.49806667 12.0179333,7.52213333 12.0944,7.57093333 C12.2819333,7.69073333 12.3756667,7.95766667 12.3756667,8.37106667 L12.3756667,10 L13.2002,10 L13.2002,8.0944 C13.2002,7.65166667 13.1012667,7.31446667 12.9036667,7.08266667 C12.7057333,6.85153333 12.4368667,6.73566667 12.097,6.73566667 C11.8506,6.73566667 11.6419333,6.79233333 11.4707333,6.9056 C11.3232667,7.00393333 11.2038,7.14386667 11.1123333,7.32553333 C11.0963333,7.23566667 11.0788,7.06573333 11.0589333,6.81573333 L10.3352667,6.81573333 L10.3352667,10 L11.1598,10 Z" id="path-1"></path>
    </defs>
    <g stroke="none" stroke-width="1" fill="none" fill-rule="evenodd">
        <g transform="translate(-54.000000, -332.000000)">
            <g transform="translate(54.000000, 332.000000)">
                <rect opacity="0.611272903" x="0" y="0" width="16" height="16"></rect>
                <g transform="translate(1.000000, 2.000000)">
                    <mask id="lang-en-mask" fill="white">
                        <use xlink:href="#path-1"></use>
                    </mask>
                    <rect fill="#8D98AA" fill-rule="nonzero" mask="url(#lang-en-mask)" x="-1" y="-2" width="16" height="16"></rect>
                </g>
            </g>
        </g>
    </g>
</svg>