<?xml version="1.0" encoding="UTF-8"?>
<svg width="16px" height="16px" viewBox="0 0 16 16" version="1.1" xmlns="http://www.w3.org/2000/svg" xmlns:xlink="http://www.w3.org/1999/xlink">
    <g id="组件库" stroke="none" stroke-width="1" fill="none" fill-rule="evenodd">
        <g transform="translate(-379.000000, -88.000000)" id="编组备份-8">
            <g transform="translate(379.000000, 88.000000)">
                <polygon id="矩形" points="16 0 16 16 0 16 0 0"></polygon>
                <path d="M5.5,10 C5.776145,10 6,10.22386 6,10.5 L6,14.5 C6,14.776145 5.776145,15 5.5,15 L1.5,15 C1.22386,15 1,14.776145 1,14.5 L1,10.5 C1,10.22386 1.22386,10 1.5,10 L5.5,10 Z M5,11 L2,11 L2,14 L5,14 L5,11 Z" id="矩形" fill="#8D98AA"></path>
                <path d="M11,4 L8.5,4 L8.5,12.5 C8.5,12.74546 8.323124,12.94961 8.089874,12.99194 C8.089874,12.99194 8.059916,12.9946267 8,13 L5,13 L5,12 L7.5,12 L7.5,3.5 C7.5,3.25454 7.676876,3.05039 7.910126,3.00806 C7.910126,3.00806 7.940084,3.00537333 8,3 L11,3 L11,4 L11,4 Z" id="路径" fill="#8D98AA"></path>
                <path d="M14.5,1 C14.776145,1 15,1.22386 15,1.5 L15,5.5 C15,5.776145 14.776145,6 14.5,6 L10.5,6 C10.22386,6 10,5.776145 10,5.5 L10,1.5 C10,1.22386 10.22386,1 10.5,1 L14.5,1 Z M14,2 L11,2 L11,5 L14,5 L14,2 Z" id="矩形备份" fill="#8D98AA"></path>
            </g>
        </g>
    </g>
</svg>