<?xml version="1.0" encoding="UTF-8"?>
<svg width="16px" height="16px" viewBox="0 0 16 16" version="1.1" xmlns="http://www.w3.org/2000/svg" xmlns:xlink="http://www.w3.org/1999/xlink">
    <g stroke="none" stroke-width="1" fill="none" fill-rule="evenodd">
        <g transform="translate(-89.000000, -88.000000)" fill-rule="nonzero">
            <g transform="translate(90.000000, 88.500000)">
                <path d="M11,6.50378323 C11.5362839,6.50378323 11.9361712,6.8981975 11.9937727,7.41506115 L12,7.52759276 L12,8.5 L11,8.5 M3.00079013,5.5 C2.56728121,5.5 1.91701784,5.5 1.05,5.5 C1.02805115,5.5 1.01314521,5.50722824 1.00564668,5.51428292 L1,5.52380952 L1,14.5 L0.5,14.5 C0.223857625,14.5 0,14.2761424 0,14 L0,5.52380952 C0,4.99084068 0.414134981,4.56089516 0.936515885,4.50593784 L1.05,4.5 L3,4.5" fill="#595959"></path>
                <g transform="translate(3.500000, 0.000000)">
                    <path d="M6,0 C6.55228475,0 7,0.44771525 7,1 L7,7 C7,7.55228475 6.55228475,8 6,8 L1,8 C0.44771525,8 0,7.55228475 0,7 L0,1 C0,0.44771525 0.44771525,0 1,0 L6,0 Z M5,5.5 L2,5.5 C1.72385763,5.5 1.5,5.72385763 1.5,6 C1.5,6.27614237 1.72385763,6.5 2,6.5 L5,6.5 C5.27614237,6.5 5.5,6.27614237 5.5,6 C5.5,5.72385763 5.27614237,5.5 5,5.5 Z M5,3.5 L2,3.5 C1.72385763,3.5 1.5,3.72385763 1.5,4 C1.5,4.27614237 1.72385763,4.5 2,4.5 L5,4.5 C5.27614237,4.5 5.5,4.27614237 5.5,4 C5.5,3.72385763 5.27614237,3.5 5,3.5 Z M5,1.5 L2,1.5 C1.72385763,1.5 1.5,1.72385763 1.5,2 C1.5,2.27614237 1.72385763,2.5 2,2.5 L5,2.5 C5.27614237,2.5 5.5,2.27614237 5.5,2 C5.5,1.72385763 5.27614237,1.5 5,1.5 Z" fill="#EBEBEB"></path>
                    <path d="M6,0.5 C6.27614237,0.5 6.5,0.723857625 6.5,1 L6.5,7 C6.5,7.27614237 6.27614237,7.5 6,7.5 L1,7.5 C0.723857625,7.5 0.5,7.27614237 0.5,7 L0.5,1 C0.5,0.723857625 0.723857625,0.5 1,0.5 Z M5,5.5 L2,5.5 C1.72385763,5.5 1.5,5.72385763 1.5,6 C1.5,6.27614237 1.72385763,6.5 2,6.5 L5,6.5 C5.27614237,6.5 5.5,6.27614237 5.5,6 C5.5,5.72385763 5.27614237,5.5 5,5.5 Z M5,3.5 L2,3.5 C1.72385763,3.5 1.5,3.72385763 1.5,4 C1.5,4.27614237 1.72385763,4.5 2,4.5 L5,4.5 C5.27614237,4.5 5.5,4.27614237 5.5,4 C5.5,3.72385763 5.27614237,3.5 5,3.5 Z M5,1.5 L2,1.5 C1.72385763,1.5 1.5,1.72385763 1.5,2 C1.5,2.27614237 1.72385763,2.5 2,2.5 L5,2.5 C5.27614237,2.5 5.5,2.27614237 5.5,2 C5.5,1.72385763 5.27614237,1.5 5,1.5 Z" fill="#007AFF"></path>
                    <path d="M5,3.5 C5.27614237,3.5 5.5,3.72385763 5.5,4 C5.5,4.27614237 5.27614237,4.5 5,4.5 L2,4.5 C1.72385763,4.5 1.5,4.27614237 1.5,4 C1.5,3.72385763 1.72385763,3.5 2,3.5 L5,3.5 Z M5,3.7 L2,3.7 C1.83431458,3.7 1.7,3.83431458 1.7,4 C1.7,4.16568542 1.83431458,4.3 2,4.3 L5,4.3 C5.16568542,4.3 5.3,4.16568542 5.3,4 C5.3,3.83431458 5.16568542,3.7 5,3.7 Z" fill="#EBEBEB"></path>
                    <path d="M5,1.5 C5.27614237,1.5 5.5,1.72385763 5.5,2 C5.5,2.27614237 5.27614237,2.5 5,2.5 L2,2.5 C1.72385763,2.5 1.5,2.27614237 1.5,2 C1.5,1.72385763 1.72385763,1.5 2,1.5 L5,1.5 Z M5,1.7 L2,1.7 C1.83431458,1.7 1.7,1.83431458 1.7,2 C1.7,2.16568542 1.83431458,2.3 2,2.3 L5,2.3 C5.16568542,2.3 5.3,2.16568542 5.3,2 C5.3,1.83431458 5.16568542,1.7 5,1.7 Z" fill="#EBEBEB"></path>
                    <path d="M5,5.5 C5.27614237,5.5 5.5,5.72385763 5.5,6 C5.5,6.27614237 5.27614237,6.5 5,6.5 L2,6.5 C1.72385763,6.5 1.5,6.27614237 1.5,6 C1.5,5.72385763 1.72385763,5.5 2,5.5 L5,5.5 Z M5,5.7 L2,5.7 C1.83431458,5.7 1.7,5.83431458 1.7,6 C1.7,6.16568542 1.83431458,6.3 2,6.3 L5,6.3 C5.16568542,6.3 5.3,6.16568542 5.3,6 C5.3,5.83431458 5.16568542,5.7 5,5.7 Z" fill="#EBEBEB"></path>
                </g>
                <path d="M13.5078005,8.5 C13.7796348,8.5 14,8.72385763 14,9 C14,9.04054431 13.9951455,9.08093811 13.9855434,9.12029157 L12.0335729,14.1202916 C11.9791472,14.3433507 11.7820537,14.5 11.55583,14.5 L0.492199465,14.5 C0.220365206,14.5 0,14.2761424 0,14 C0,13.9594557 0.00485451975,13.9190619 0.0144566195,13.8797084 L1.96642715,8.87970843 C2.02085275,8.65664931 2.21794631,8.5 2.44416999,8.5 L13.5078005,8.5 Z M12.877846,9.5 L2.82910174,9.5 L1.12116959,13.5 L11.1699139,13.5 L12.877846,9.5 Z" fill="#595959"></path>
            </g>
        </g>
    </g>
</svg>