<?xml version="1.0" encoding="UTF-8"?>
<svg width="16px" height="16px" viewBox="0 0 16 16" version="1.1" xmlns="http://www.w3.org/2000/svg" xmlns:xlink="http://www.w3.org/1999/xlink">
    <g stroke="none" stroke-width="1" fill="none" fill-rule="evenodd">
        <g transform="translate(-92.000000, -1168.000000)" >
            <g transform="translate(93.000000, 1168.500000)">
                <path d="M5.6735018,4.5 C6.00995281,4.5 6.32522921,4.65711091 6.52212572,4.92073505 L6.59022299,5.02448809 L7.37753427,6.48230689 C7.38170157,6.48958312 7.39139366,6.49670275 7.40451239,6.5006407 L7.4264982,6.50378323 L10.95,6.50378323 C11.4862839,6.50378323 11.9361712,6.8981975 11.9937727,7.41506115 L12,7.52759276 L12,8.5 L11,8.5 L11,7.52759276 C11,7.5225621 10.9924103,7.51365698 10.9775955,7.50827919 L10.95,7.50378323 L7.4264982,7.50378323 C7.09004719,7.50378323 6.77477079,7.34667232 6.57787428,7.08304818 L6.50977701,6.97929514 L5.72246573,5.52147634 C5.71829843,5.51420011 5.70860634,5.50708048 5.69548761,5.50314253 L5.6735018,5.5 L1.05,5.5 C1.02805115,5.5 1.01314521,5.50722824 1.00564668,5.51428292 L1,5.52380952 L1,14.5 L0.5,14.5 C0.223857625,14.5 3.38176876e-17,14.2761424 0,14 L0,5.52380952 L0,5.52380952 C0,4.99084068 0.414134981,4.56089516 0.936515885,4.50593784 L1.05,4.5 L5.6735018,4.5 Z" fill="#D1D1D1" fill-rule="nonzero"></path>
                <g transform="translate(3.500000, 0.000000)">
                    <rect stroke="#242425" stroke-width="0.5" fill="#007AFF" x="0.25" y="0.25" width="6.5" height="7.5" rx="1"></rect>
                    <rect fill="#242425" x="1.5" y="3.5" width="4" height="1" rx="0.5"></rect>
                    <rect fill="#242425" x="1.5" y="1.5" width="4" height="1" rx="0.5"></rect>
                    <rect fill="#242425" x="1.5" y="5.5" width="4" height="1" rx="0.5"></rect>
                </g>
                <path d="M13.5078005,8.5 C13.7796348,8.5 14,8.72385763 14,9 C14,9.04054431 13.9951455,9.08093811 13.9855434,9.12029157 L12.0335729,14.1202916 C11.9791472,14.3433507 11.7820537,14.5 11.55583,14.5 L0.492199465,14.5 C0.220365206,14.5 0,14.2761424 0,14 C0,13.9594557 0.00485451975,13.9190619 0.0144566195,13.8797084 L1.96642715,8.87970843 C2.02085275,8.65664931 2.21794631,8.5 2.44416999,8.5 L13.5078005,8.5 Z M12.877846,9.5 L2.82910174,9.5 L1.12116959,13.5 L11.1699139,13.5 L12.877846,9.5 Z" fill="#D1D1D1" fill-rule="nonzero"></path>
            </g>
        </g>
    </g>
</svg>