<?xml version="1.0" encoding="UTF-8"?>
<svg width="16px" height="16px" viewBox="0 0 16 16" version="1.1" xmlns="http://www.w3.org/2000/svg" xmlns:xlink="http://www.w3.org/1999/xlink">
    <g id="组件库" stroke="none" stroke-width="1" fill="none" fill-rule="evenodd">
        <g transform="translate(-440.000000, -1168.000000)" id="编组备份">
            <g transform="translate(440.000000, 1168.000000)">
                <polygon id="矩形" points="16 0 16 16 0 16 0 0"></polygon>
                <path d="M8,2 C11.313704,2 14,4.686296 14,8 C14,11.313704 11.313704,14 8,14 C4.686296,14 2,11.313704 2,8 C2,4.686296 4.686296,2 8,2 Z M7.99962807,2.85709635 C5.1593103,2.85709635 2.85677083,5.15963582 2.85677083,7.99995359 C2.85677083,10.8402714 5.1593103,13.1428108 7.99962807,13.1428108 C10.8399458,13.1428108 13.1424853,10.8402714 13.1424853,7.99995359 C13.1424853,5.15963582 10.8399458,2.85709635 7.99962807,2.85709635 Z" id="椭圆形" fill="currentColor"></path>
                <path d="M10.666664,7.5 C10.850762,7.5 11,7.649238 11,7.833333 C11,7.833333 11,7.94444433 11,8.166667 C11,8.350762 10.850762,8.5 10.666664,8.5 C10.666664,8.5 8.888888,8.5 5.333336,8.5 C5.149238,8.5 5,8.350762 5,8.166667 C5,8.166667 5,8.05555567 5,7.833333 C5,7.649238 5.149238,7.5 5.333336,7.5 C5.333336,7.5 7.111112,7.5 10.666664,7.5 L10.666664,7.5 Z" id="矩形" fill="currentColor"></path>
                <path d="M10.666664,7.49902344 C10.850762,7.49902344 11,7.64826144 11,7.83235644 C11,7.83235644 11,7.94346777 11,8.16569044 C11,8.34978544 10.850762,8.49902344 10.666664,8.49902344 C10.666664,8.49902344 8.888888,8.49902344 5.333336,8.49902344 C5.149238,8.49902344 5,8.34978544 5,8.16569044 C5,8.16569044 5,8.0545791 5,7.83235644 C5,7.64826144 5.149238,7.49902344 5.333336,7.49902344 C5.333336,7.49902344 7.111112,7.49902344 10.666664,7.49902344 L10.666664,7.49902344 Z" id="矩形" fill="currentColor" transform="translate(8.000000, 7.999023) rotate(90.000000) translate(-8.000000, -7.999023) "></path>
            </g>
        </g>
    </g>
</svg>