<?xml version="1.0" encoding="UTF-8"?>
<svg version="1.1" id="图层_1" xmlns="http://www.w3.org/2000/svg" xmlns:xlink="http://www.w3.org/1999/xlink" x="0px" y="0px"
     viewBox="0 0 16 16" style="enable-background:new 0 0 16 16;" xml:space="preserve" class="icon" fill="currentColor">
    <g>
	<g id="编组" transform="translate(0.500000, 1.000000)">
		<path id="路径" class="st0" d="M3.7,1.1C3.9,0.9,4.2,1,4.4,1.2c0.2,0.2,0.1,0.5-0.1,0.7C2.5,3,1.5,4.9,1.5,7
			c0,2.9,2.1,5.4,4.9,5.9l0.3,0L6,11.5c-0.1-0.2,0-0.5,0.1-0.6l0.1,0c0.2-0.1,0.5,0,0.6,0.1l0,0.1l1.1,2.2C8.1,13.6,7.9,14,7.5,14
			c-3.9,0-7-3.1-7-7C0.5,4.6,1.7,2.4,3.7,1.1z"/>
        <path id="路径备份" class="st0" d="M11.3,12.9c-0.2,0.2-0.5,0.1-0.7-0.1c-0.2-0.2-0.1-0.5,0.1-0.7c1.7-1.1,2.7-3,2.7-5.1
			c0-2.9-2.1-5.4-4.9-5.9l-0.3,0L9,2.5c0.1,0.2,0,0.5-0.1,0.6l-0.1,0C8.6,3.2,8.3,3.2,8.2,3l0-0.1L7.1,0.7C6.9,0.4,7.1,0,7.5,0
			c3.9,0,7,3.1,7,7C14.5,9.4,13.3,11.6,11.3,12.9z"/>
	</g>
</g>
</svg>