<?xml version="1.0" encoding="UTF-8"?>
<svg width="16px" height="16px" viewBox="0 0 16 16" version="1.1" xmlns="http://www.w3.org/2000/svg" xmlns:xlink="http://www.w3.org/1999/xlink">
    <g id="组件库" stroke="none" stroke-width="1" fill="none" fill-rule="evenodd">
        <g transform="translate(-364.000000, -1168.000000)" id="编组备份-9">
            <g transform="translate(364.000000, 1168.000000)">
                <polygon id="矩形" points="16 0 16 16 0 16 0 0"></polygon>
                <path d="M14,9 C14,12.313704 11.313704,15 8,15 C4.686296,15 2,12.313704 2,9 C2,8.723856 2.22386,8.5 2.5,8.5 C2.776148,8.5 3,8.723856 3,9 C3,11.761428 5.238572,14 8,14 C10.761428,14 13,11.761428 13,9 C13,6.238572 10.761428,4 8,4 C7.723856,4 7.5,3.776148 7.5,3.5 C7.5,3.22386 7.723856,3 8,3 C11.313704,3 14,5.686296 14,9 C14,9 14,9 14,9 Z" id="路径" fill="currentColor"></path>
                <path d="M7.83072917,10.6595052 C6.72572917,10.6595052 5.83072917,9.76410521 5.83072917,8.65950521 C5.83072917,7.55490521 6.72572917,6.65950521 7.83072917,6.65950521 C8.93572917,6.65950521 9.83072917,7.55490521 9.83072917,8.65950521 C9.83072917,9.76410521 8.93572917,10.6595052 7.83072917,10.6595052 Z" id="Clip-1058" fill="currentColor"></path>
            </g>
        </g>
    </g>
</svg>