<?xml version="1.0" encoding="UTF-8"?>
<svg width="16px" height="16px" viewBox="0 0 16 16" version="1.1" xmlns="http://www.w3.org/2000/svg" xmlns:xlink="http://www.w3.org/1999/xlink">
    <g id="组件库" stroke="none" stroke-width="1" fill="none" fill-rule="evenodd">
        <g transform="translate(-347.000000, -88.000000)" id="编组备份-6">
            <g transform="translate(347.000000, 88.000000)">
                <polygon id="矩形" points="16 0 16 16 0 16 0 0"></polygon>
                <path d="M7,1 C10.313704,1 13,3.686296 13,7 C13,10.313704 10.313704,13 7,13 C3.686296,13 1,10.313704 1,7 C1,3.686296 3.686296,1 7,1 Z M7,2 C4.23858,2 2,4.23858 2,7 C2,9.76142 4.23858,12 7,12 C9.76142,12 12,9.76142 12,7 C12,4.23858 9.76142,2 7,2 Z" id="椭圆形" fill="#8D98AA"></path>
                <path d="M13.2109375,15.2307943 C13.2109375,15.5069343 12.9870795,15.7307943 12.7109375,15.7307943 C12.4347955,15.7307943 12.2109375,15.5069343 12.2109375,15.2307943 C12.2109375,15.2307943 12.2109375,13.5641276 12.2109375,10.2307943 C12.2109375,9.95465427 12.4347955,9.73079427 12.7109375,9.73079427 C12.9870795,9.73079427 13.2109375,9.95465427 13.2109375,10.2307943 C13.2109375,10.2307943 13.2109375,11.8974609 13.2109375,15.2307943 L13.2109375,15.2307943 Z" id="矩形" fill="#8D98AA" transform="translate(12.710937, 12.730794) rotate(-45.000000) translate(-12.710937, -12.730794) "></path>
            </g>
        </g>
    </g>
</svg>