<?xml version="1.0" encoding="UTF-8"?>
<svg width="16px" height="16px" viewBox="0 0 16 16" version="1.1" xmlns="http://www.w3.org/2000/svg" xmlns:xlink="http://www.w3.org/1999/xlink">
    <defs>
        <path d="M7,0 C10.865625,0 14,3.134375 14,7 C14,10.865625 10.865625,14 7,14 C3.134375,14 0,10.865625 0,7 C0,3.134375 3.134375,0 7,0 Z M4.45587838,3.76016403 C4.26101024,3.62516798 3.99158584,3.64445313 3.81801948,3.81801948 C3.62275734,4.01328163 3.62275734,4.32986412 3.81801948,4.52512627 L6.29257288,6.99957288 L3.81801948,9.47487373 L3.76016403,9.54412162 C3.62516798,9.73898976 3.64445313,10.0084142 3.81801948,10.1819805 C4.01328163,10.3772427 4.32986412,10.3772427 4.52512627,10.1819805 L6.99957288,7.70657288 L9.47487373,10.1819805 L9.54412162,10.239836 C9.73898976,10.374832 10.0084142,10.3555469 10.1819805,10.1819805 C10.3772427,9.98671837 10.3772427,9.67013588 10.1819805,9.47487373 L7.70657288,6.99957288 L10.1819805,4.52512627 L10.239836,4.45587838 C10.374832,4.26101024 10.3555469,3.99158584 10.1819805,3.81801948 C9.98671837,3.62275734 9.67013588,3.62275734 9.47487373,3.81801948 L6.99957288,6.29257288 L4.52512627,3.81801948 Z" id="path-1"></path>
    </defs>
    <g id="高保真" stroke="none" stroke-width="1" fill="none" fill-rule="evenodd">
        <g id="Timeline-view-筛选" transform="translate(-467.000000, -142.000000)">
            <g id="编组-2" transform="translate(292.000000, 126.000000)">
                <g id="编组-20" transform="translate(16.000000, 8.000000)">
                    <g id="Dark/2-控件/09tag/03tag/01default" transform="translate(136.000000, 4.000000)">
                        <g id="1-icon/16/01" transform="translate(24.000000, 5.000000)">
                            <mask id="mask-2" fill="white">
                                <use xlink:href="#path-1"></use>
                            </mask>
                            <use id="形状结合" fill="#000000" xlink:href="#path-1"></use>
                            <g id="0-color/Dark/3Secondary" mask="url(#mask-2)" fill="#3291FE">
                                <g transform="translate(-1.000000, -1.000000)" id="矩形">
                                    <rect x="0" y="0" width="16" height="16"></rect>
                                </g>
                            </g>
                        </g>
                    </g>
                </g>
            </g>
        </g>
    </g>
</svg>