<?xml version="1.0" encoding="UTF-8"?>
<svg width="15px" height="12px" viewBox="0 0 15 12" version="1.1" xmlns="http://www.w3.org/2000/svg" xmlns:xlink="http://www.w3.org/1999/xlink" fill="#9C554B">
    <g id="insight增强需求" stroke="none" stroke-width="1" fill-rule="evenodd">
        <g id="时间轴" transform="translate(-118.000000, -224.000000)">
            <g id="Group-2" transform="translate(77.500000, 83.234357)">
                <g id="Group-15" transform="translate(39.980380, 138.645643)">
                    <g id="Group-2" transform="translate(0.666667, 2.138344)">
                        <path d="M10.1416786,0 C10.5129367,-6.81990032e-17 10.8197587,0.275883795 10.8683175,0.633824344 L10.8750119,0.733333333 L10.8750119,1.12032992 C10.8750119,1.491588 11.1508957,1.79840997 11.5088363,1.84696878 L11.6083453,1.85366325 L13.9333333,1.85366325 C14.3045914,1.85366325 14.6114134,2.12954705 14.6599722,2.4874876 L14.6666667,2.58699659 L14.666,3.85 L12.0698143,3.85 L11.9951826,3.85502085 C11.7267272,3.89143996 11.5198143,4.12155644 11.5198143,4.4 C11.5198143,4.67338095 11.7192715,4.90017619 11.9806015,4.94280143 L12.0698143,4.95 L14.666,4.95 L14.666,6.049 L13.0739623,6.05 L12.9993305,6.05502085 C12.7308751,6.09143996 12.5239623,6.32155644 12.5239623,6.6 C12.5239623,6.87338095 12.7234194,7.10017619 12.9847494,7.14280143 L13.0739623,7.15 L14.666,7.149 L14.6666667,8.25 L12.0698143,8.25 L11.9951826,8.25502085 C11.7267272,8.29143996 11.5198143,8.52155644 11.5198143,8.8 C11.5198143,9.07338095 11.7192715,9.30017619 11.9806015,9.34280143 L12.0698143,9.35 L14.6666667,9.35 L14.6666,10.9999324 C14.6615943,11.3711568 14.3815987,11.6742311 14.0230359,11.7179593 L13.9234457,11.7233115 L0.723445723,11.5453183 C0.355755826,11.5403603 0.054268709,11.265424 0.00657425827,10.910646 L0,10.8120517 L0,2.58699659 C5.63044418e-17,2.2157385 0.275883795,1.90891653 0.633824344,1.86035772 L0.733333333,1.85366325 L3.42068175,1.85366325 C3.79193983,1.85366325 4.0987618,1.57777946 4.14732062,1.21983891 L4.15401509,1.12032992 L4.15401509,0.733333333 C4.15401509,0.362075252 4.42989888,0.0552532827 4.78783943,0.00669446897 L4.88734842,0 L10.1416786,0 Z M13.7945259,10.7240678 L0.900263403,10.7240678 L0.858226752,10.7289098 C0.777234573,10.7479108 0.71693007,10.8206135 0.71693007,10.9074011 C0.71693007,11.0086533 0.799011199,11.0907345 0.900263403,11.0907345 L0.900263403,11.0907345 L13.7945259,11.0907345 L13.8365625,11.0858925 C13.9175547,11.0668915 13.9778592,10.9941887 13.9778592,10.9074011 C13.9778592,10.8061489 13.8957781,10.7240678 13.7945259,10.7240678 L13.7945259,10.7240678 Z M7.33333333,3.66666667 C6.11830688,3.66666667 5.13333333,4.65164022 5.13333333,5.86666667 C5.13333333,7.08169312 6.11830688,8.06666667 7.33333333,8.06666667 C8.54835978,8.06666667 9.53333333,7.08169312 9.53333333,5.86666667 C9.53333333,4.65164022 8.54835978,3.66666667 7.33333333,3.66666667 Z" id="Combined-Shape"></path>
                    </g>
                </g>
            </g>
        </g>
    </g>
</svg>