<?xml version="1.0" encoding="UTF-8"?>
<svg width="16px" height="16px" viewBox="0 0 16 16" version="1.1" xmlns="http://www.w3.org/2000/svg" xmlns:xlink="http://www.w3.org/1999/xlink">
    <defs>
        <path d="M3.54053185,9.16664575 L7.52022006,13.1464466 L7.54271426,13.1704449 C7.71516978,13.3668412 7.70767172,13.6661017 7.52022006,13.8535534 C7.3327684,14.0410051 7.03350791,14.0485031 6.83711154,13.8760476 L6.81311328,13.8535534 L2.12619851,9.16664575 L3.54053185,9.16664575 Z M6.81311328,2.14644661 C7.00837542,1.95118446 7.32495791,1.95118446 7.52022006,2.14644661 C7.70767172,2.33389827 7.71516978,2.63315876 7.54271426,2.82955512 L7.52022006,2.85355339 L2.87366667,7.5 L14,7.5 C14.2662801,7.5 14.4839435,7.70815333 14.4991512,7.9706212 L14.5,8 C14.5,8.26628015 14.2918467,8.48394348 14.0293788,8.49915122 L14,8.5 L2.06903559,8.5 C1.8922246,8.5 1.72265533,8.42976211 1.59763107,8.30473785 C1.34595986,8.05306664 1.33757082,7.65023927 1.57246395,7.38849098 L1.59763107,7.36192881 L6.81311328,2.14644661 Z" id="path-123"></path>
    </defs>
    <g id="封稿最终版！！" stroke="none" stroke-width="1" fill="none" fill-rule="evenodd">
        <g id="3-session-列表" transform="translate(-24.000000, -293.000000)">
            <g id="Public/ic_public_back" transform="translate(24.000000, 293.000000)">
                <mask id="mask-22" fill="white">
                    <use xlink:href="#path-123"></use>
                </mask>
                <g id="形状结合" fill-rule="nonzero"></g>
                <g id="Group" mask="url(#mask-22)" fill="#FFFFFF">
                    <g id="Symbol/color-light/colorPrimary">
                        <rect id="color/#000000" x="0" y="0" width="16" height="16"></rect>
                    </g>
                </g>
            </g>
        </g>
    </g>
</svg>