<?xml version="1.0" encoding="UTF-8"?>
<svg width="13px" height="13px" viewBox="0 0 12 12" version="1.1" xmlns="http://www.w3.org/2000/svg" xmlns:xlink="http://www.w3.org/1999/xlink">
    <g id="控件" stroke="none" stroke-width="1" fill="none" fill-rule="evenodd" opacity="0.6">
        <g id="Dark/SearchBar/WhiteBG/Typing" transform="translate(-302.000000, -10.000000)" fill="#FFFFFF" fill-rule="nonzero">
            <g id="ic/cancel" transform="translate(302.916667, 10.916667)">
                <path d="M9.94442007,0.219669914 C10.2106866,0.485936477 10.2348927,0.902600159 10.0170382,1.19621165 L9.94442007,1.28033009 L1.28033009,9.94442007 C0.987436867,10.2373133 0.512563133,10.2373133 0.219669914,9.94442007 C-0.0465966484,9.67815351 -0.0708026996,9.26148983 0.147051761,8.96787833 L0.219669914,8.8837599 L4.08,5.023 L0.278595479,1.22140452 L0.253428358,1.19484235 C0.0185352286,0.933094061 0.026924269,0.530266689 0.278595479,0.278595479 C0.512910054,0.0442809042 0.8782506,0.0208494467 1.13877037,0.208301107 L1.22140452,0.278595479 L5.023,4.08 L8.8837599,0.219669914 C9.17665312,-0.0732233047 9.65152685,-0.0732233047 9.94442007,0.219669914 Z M6.49833333,5.55533333 L9.88549451,8.94268546 L9.91066163,8.96924764 C10.1455548,9.23099592 10.1371657,9.6338233 9.88549451,9.88549451 C9.65117993,10.1198091 9.28583939,10.1432405 9.02531962,9.95578888 L8.94268546,9.88549451 L5.55533333,6.49833333 L6.49833333,5.55533333 Z" id="形状结合"></path>
            </g>
        </g>
    </g>
</svg>