<?xml version="1.0" encoding="UTF-8"?>
<svg width="16px" height="16px" viewBox="0 0 23 23" version="1.1" xmlns="http://www.w3.org/2000/svg" xmlns:xlink="http://www.w3.org/1999/xlink">
    <g id="insight增强需求" stroke="none" stroke-width="1" fill="none" fill-rule="evenodd">
        <g id="时间轴" transform="translate(-441.000000, -1929.000000)">
            <g id="Group-8" transform="translate(77.700000, 1768.165643)">
                <g id="编组-4" transform="translate(363.000000, 160.765643)">
                    <rect id="矩形" x="0" y="0" width="24" height="24"></rect>
                    <path d="M16.4922756,14.5378372 L14.0124991,9.52804965 L17.5,1 L20.25,1 C21.7687831,1 23,2.23121694 23,3.75 L23,20.25 C23,21.7687831 21.7687831,23 20.25,23 L10.8708879,23 L16.4922756,14.5378372 Z M5.64063151,17.8911807 L3.80729817,17.8911807 C3.30103715,17.8911807 2.89063151,18.3015863 2.89063151,18.8078474 L2.89063151,18.8078474 L2.89063151,20.6411807 C2.89063151,21.1474417 3.30103715,21.5578474 3.80729817,21.5578474 L3.80729817,21.5578474 L5.64063151,21.5578474 C6.14689253,21.5578474 6.55729817,21.1474417 6.55729817,20.6411807 L6.55729817,20.6411807 L6.55729817,18.8078474 C6.55729817,18.3015863 6.14689253,17.8911807 5.64063151,17.8911807 L5.64063151,17.8911807 Z M20.2849958,17.8911807 L18.4516624,17.8911807 C17.9454014,17.8911807 17.5349958,18.3015863 17.5349958,18.8078474 L17.5349958,18.8078474 L17.5349958,20.6411807 C17.5349958,21.1474417 17.9454014,21.5578474 18.4516624,21.5578474 L18.4516624,21.5578474 L20.2849958,21.5578474 C20.7912568,21.5578474 21.2016624,21.1474417 21.2016624,20.6411807 L21.2016624,20.6411807 L21.2016624,18.8078474 C21.2016624,18.3015863 20.7912568,17.8911807 20.2849958,17.8911807 L20.2849958,17.8911807 Z M5.64063151,12.7415047 L3.80729817,12.7415047 C3.30103715,12.7415047 2.89063151,13.1519103 2.89063151,13.6581713 L2.89063151,13.6581713 L2.89063151,15.4915047 C2.89063151,15.9977657 3.30103715,16.4081713 3.80729817,16.4081713 L3.80729817,16.4081713 L5.64063151,16.4081713 C6.14689253,16.4081713 6.55729817,15.9977657 6.55729817,15.4915047 L6.55729817,15.4915047 L6.55729817,13.6581713 C6.55729817,13.1519103 6.14689253,12.7415047 5.64063151,12.7415047 L5.64063151,12.7415047 Z M20.2849958,12.7415047 L18.4516624,12.7415047 C17.9454014,12.7415047 17.5349958,13.1519103 17.5349958,13.6581713 L17.5349958,13.6581713 L17.5349958,15.4915047 C17.5349958,15.9977657 17.9454014,16.4081713 18.4516624,16.4081713 L18.4516624,16.4081713 L20.2849958,16.4081713 C20.7912568,16.4081713 21.2016624,15.9977657 21.2016624,15.4915047 L21.2016624,15.4915047 L21.2016624,13.6581713 C21.2016624,13.1519103 20.7912568,12.7415047 20.2849958,12.7415047 L20.2849958,12.7415047 Z M5.64063151,7.59182866 L3.80729817,7.59182866 C3.30103715,7.59182866 2.89063151,8.00223431 2.89063151,8.50849533 L2.89063151,8.50849533 L2.89063151,10.3418287 C2.89063151,10.8480897 3.30103715,11.2584953 3.80729817,11.2584953 L3.80729817,11.2584953 L5.64063151,11.2584953 C6.14689253,11.2584953 6.55729817,10.8480897 6.55729817,10.3418287 L6.55729817,10.3418287 L6.55729817,8.50849533 C6.55729817,8.00223431 6.14689253,7.59182866 5.64063151,7.59182866 L5.64063151,7.59182866 Z M20.2849958,7.59182866 L18.4516624,7.59182866 C17.9454014,7.59182866 17.5349958,8.00223431 17.5349958,8.50849533 L17.5349958,8.50849533 L17.5349958,10.3418287 C17.5349958,10.8480897 17.9454014,11.2584953 18.4516624,11.2584953 L18.4516624,11.2584953 L20.2849958,11.2584953 C20.7912568,11.2584953 21.2016624,10.8480897 21.2016624,10.3418287 L21.2016624,10.3418287 L21.2016624,8.50849533 C21.2016624,8.00223431 20.7912568,7.59182866 20.2849958,7.59182866 L20.2849958,7.59182866 Z M5.64063151,2.44215265 L3.80729817,2.44215265 C3.30103715,2.44215265 2.89063151,2.85255829 2.89063151,3.35881931 L2.89063151,3.35881931 L2.89063151,5.19215265 C2.89063151,5.69841367 3.30103715,6.10881931 3.80729817,6.10881931 L3.80729817,6.10881931 L5.64063151,6.10881931 C6.14689253,6.10881931 6.55729817,5.69841367 6.55729817,5.19215265 L6.55729817,5.19215265 L6.55729817,3.35881931 C6.55729817,2.85255829 6.14689253,2.44215265 5.64063151,2.44215265 L5.64063151,2.44215265 Z M20.2849958,2.44215265 L18.4516624,2.44215265 C17.9454014,2.44215265 17.5349958,2.85255829 17.5349958,3.35881931 L17.5349958,3.35881931 L17.5349958,5.19215265 C17.5349958,5.69841367 17.9454014,6.10881931 18.4516624,6.10881931 L18.4516624,6.10881931 L20.2849958,6.10881931 C20.7912568,6.10881931 21.2016624,5.69841367 21.2016624,5.19215265 L21.2016624,5.19215265 L21.2016624,3.35881931 C21.2016624,2.85255829 20.7912568,2.44215265 20.2849958,2.44215265 L20.2849958,2.44215265 Z M11.3971786,10.2551922 L13.3194772,14.5378372 L6.5,23 L3.75,23 C2.23121694,23 1,21.7687831 1,20.25 L1,3.75 C1,2.23121694 2.23121694,1 3.75,1 L15.2417757,1 L11.3971786,10.2551922 Z" id="形状结合" fill="#DB6B42"></path>
                </g>
            </g>
        </g>
    </g>
</svg>