<?xml version="1.0" encoding="UTF-8"?>
<svg width="16px" height="16px" viewBox="0 0 17 17" version="1.1" xmlns="http://www.w3.org/2000/svg" xmlns:xlink="http://www.w3.org/1999/xlink">
    <g id="insight增强需求" stroke="none" stroke-width="1" fill-rule="evenodd">
        <g id="时间轴" transform="translate(-410.000000, -1810.000000)">
            <g id="Group-6" transform="translate(68.500000, 1647.531285)">
                <g id="Group-4" transform="translate(0.000000, 127.765643)">
                    <g id="线性/ic_funnel_lined" transform="translate(342.000000, 35.000000)">
                        <g id="编组">
<!--                            <rect id="矩形备份" x="0" y="0" width="16" height="16"></rect>-->
                            <path d="M12.6992061,1.99851381 C13.4171763,1.99851381 13.9992061,2.58054364 13.9992061,3.29851381 C13.9992061,3.61715096 13.8822536,3.92321829 13.6729238,4.15984149 L13.5901429,4.24520891 L10.2371869,7.40068305 C10.0360926,7.58993336 9.71965571,7.58033189 9.5304054,7.37923755 C9.35835966,7.19642452 9.35065424,6.91828709 9.50176027,6.72704094 L9.5518509,6.67245605 L12.9048069,3.51698191 C12.9650481,3.46028879 12.9992061,3.38123692 12.9992061,3.29851381 C12.9992061,3.15123788 12.893081,3.02874879 12.7531315,3.00334722 L12.6992061,2.99851381 L3.30079794,2.99851381 C3.21795235,2.99851381 3.13879468,3.03277271 3.08208851,3.09316974 C2.98285616,3.19886088 2.97503352,3.35743018 3.05554815,3.47139585 L3.09545386,3.51722324 L6.71969795,6.91998949 C6.80358272,6.99874805 6.85721501,7.10349216 6.87276231,7.2161242 L6.87745783,7.28450519 L6.87745783,12.8346722 C6.87745783,12.8663605 6.88649158,12.8973921 6.90350001,12.924129 C6.94467139,12.9888497 7.02306866,13.0155451 7.09300232,12.9940546 L7.13358136,12.9752967 L9.0319147,11.7676908 C9.06798033,11.744748 9.09337803,11.7091766 9.10382277,11.668781 L9.1091245,11.6270663 L9.1091245,8.64745428 C9.1091245,8.3713119 9.33298212,8.14745428 9.6091245,8.14745428 C9.86225501,8.14745428 10.0714518,8.33555687 10.1045601,8.57960724 L10.1091245,8.64745428 L10.1091245,11.6270663 C10.1091245,11.9897479 9.94064847,12.3295693 9.65711444,12.5492388 L9.5686559,12.6114377 L7.67032257,13.8190436 C7.12666925,14.1648832 6.40559273,14.0045236 6.05975308,13.4608702 C5.96053727,13.3049049 5.90008722,13.1280624 5.8826932,12.9450803 L5.87745783,12.8346722 L5.87693751,7.50022519 L2.41097362,4.24625465 C1.91509938,3.78068332 1.86572828,3.01779529 2.27975843,2.49373039 L2.3530571,2.4086895 C2.57148085,2.17604908 2.86677561,2.0329022 3.18183551,2.00396388 L3.30079794,1.99851381 L12.6992061,1.99851381 Z" id="路径"></path>
                        </g>
                        <path d="M4.68395226,3.53409532 C4.87286889,3.36877489 5.15110302,3.3711353 5.33675821,3.52906019 L5.3894955,3.58109248 L6.8200814,5.21586598 C7.00193388,5.42367427 6.98089253,5.73955674 6.77308424,5.92140922 C6.58416761,6.08672966 6.30593348,6.08436925 6.12027829,5.92644435 L6.067541,5.87441206 L4.6369551,4.23963857 C4.45510262,4.03183027 4.47614396,3.7159478 4.68395226,3.53409532 Z" id="路径-27" fill-rule="nonzero" transform="translate(5.728518, 4.727752) rotate(-5.000000) translate(-5.728518, -4.727752) "></path>
                    </g>
                </g>
            </g>
        </g>
    </g>
</svg>