<?xml version="1.0" encoding="UTF-8"?>
<svg width="20px" height="20px" viewBox="0 0 24 24" version="1.1" xmlns="http://www.w3.org/2000/svg" xmlns:xlink="http://www.w3.org/1999/xlink">
    <defs>
        <path d="M18.75,15.75 C20.2687831,15.75 21.5,16.9812169 21.5,18.5 C21.5,20.0187831 20.2687831,21.25 18.75,21.25 L5.25,21.25 C3.73121694,21.25 2.5,20.0187831 2.5,18.5 C2.5,16.9812169 3.73121694,15.75 5.25,15.75 L18.75,15.75 Z M5.75,17.25 C5.05964406,17.25 4.5,17.8096441 4.5,18.5 C4.5,19.1903559 5.05964406,19.75 5.75,19.75 C6.44035594,19.75 7,19.1903559 7,18.5 C7,17.8096441 6.44035594,17.25 5.75,17.25 Z M18.75,9.25 C20.2687831,9.25 21.5,10.4812169 21.5,12 C21.5,13.5187831 20.2687831,14.75 18.75,14.75 L5.25,14.75 C3.73121694,14.75 2.5,13.5187831 2.5,12 C2.5,10.4812169 3.73121694,9.25 5.25,9.25 L18.75,9.25 Z M5.75,10.75 C5.05964406,10.75 4.5,11.3096441 4.5,12 C4.5,12.6903559 5.05964406,13.25 5.75,13.25 C6.44035594,13.25 7,12.6903559 7,12 C7,11.3096441 6.44035594,10.75 5.75,10.75 Z M18.75,2.75 C20.2687831,2.75 21.5,3.98121694 21.5,5.5 C21.5,7.01878306 20.2687831,8.25 18.75,8.25 L5.25,8.25 C3.73121694,8.25 2.5,7.01878306 2.5,5.5 C2.5,3.98121694 3.73121694,2.75 5.25,2.75 L18.75,2.75 Z M5.75,4.25 C5.05964406,4.25 4.5,4.80964406 4.5,5.5 C4.5,6.19035594 5.05964406,6.75 5.75,6.75 C6.44035594,6.75 7,6.19035594 7,5.5 C7,4.80964406 6.44035594,4.25 5.75,4.25 Z" id="path-1002"></path>
    </defs>
    <g id="Page-1" stroke="none" stroke-width="1" fill="none" fill-rule="evenodd">
        <g id="light适配" transform="translate(-24.000000, -364.000000)">
            <g id="Group-31" transform="translate(0.000000, 241.000000)">
                <g id="Group-9" transform="translate(0.000000, 46.000000)">
                    <g id="Pull-Down-Boxes/Normal备份-3" transform="translate(16.000000, 16.000000)">
                        <g id="DEB650C8-5E9D-41C2-AE19-C50E35F32752_0" transform="translate(8.000000, 61.000000)">
                            <mask id="HistoryIcon" fill="white">
                                <use xlink:href="#path-1002"></use>
                            </mask>
                            <g id="形状结合"></g>
                            <g id="Group" mask="url(#HistoryIcon)" fill="#A3A3A3" fill-opacity="0.9">
                                <g id="color/#000000">
                                    <rect x="0" y="0" width="24" height="24"></rect>
                                </g>
                            </g>
                        </g>
                    </g>
                </g>
            </g>
        </g>
    </g>
</svg>