<?xml version="1.0" encoding="UTF-8"?>
<svg width="16px" height="16px" viewBox="0 0 16 16" version="1.1" xmlns="http://www.w3.org/2000/svg" xmlns:xlink="http://www.w3.org/1999/xlink">
    <g id="20220915-定稿" stroke="none" stroke-width="1" fill="none" fill-rule="evenodd" opacity="0.600000024">
        <g id="1-insight-通用-Allocations---jsallocation-0" transform="translate(-24.000000, -398.000000)" fill="#FFFFFF">
            <g id="Group-31" transform="translate(0.000000, 240.000000)">
                <g id="Group-9" transform="translate(0.000000, 44.000000)">
                    <g id="Group-6" transform="translate(0.000000, 106.000000)">
                        <g id="Group-4" transform="translate(16.000000, 0.000000)">
                            <g id="Botton-tab/ic_video_filled" transform="translate(8.000000, 8.000000)">
                                <path d="M12.6606667,2.4108 C13.7633333,2.4108 14.6606667,3.30813333 14.6606667,4.4108 L14.6606667,4.4108 L14.6606667,9.6248 C14.6606667,10.7281333 13.7633333,11.6248 12.6606667,11.6248 L12.6606667,11.6248 L8.49933333,11.6238 L8.49933333,12.5888 L11.9998667,12.5892 C12.2758667,12.5892 12.4998667,12.8132 12.4998667,13.0892 C12.4998667,13.3652 12.2758667,13.5892 11.9998667,13.5892 L3.99986667,13.5892 C3.72386667,13.5892 3.49986667,13.3652 3.49986667,13.0892 C3.49986667,12.8132 3.72386667,12.5892 3.99986667,12.5892 L7.49933333,12.5888 L7.49933333,11.6238 L3.33933333,11.6248 C2.28615152,11.6248 1.42127548,10.8077959 1.34482638,9.77390875 L1.33933333,9.6248 L1.33933333,7.80946667 L5.40733333,7.80946667 L6.17866667,9.51546667 C6.26,9.69413333 6.438,9.80946667 6.63466667,9.80946667 C6.83133333,9.80946667 7.00866667,9.69413333 7.09066667,9.5148 L7.09066667,9.5148 L8.74533333,5.85546667 L9.496,7.51546667 C9.57733333,7.69413333 9.75533333,7.80946667 9.952,7.80946667 L9.952,7.80946667 L12.23,7.80946667 C12.506,7.80946667 12.73,7.58546667 12.73,7.30946667 C12.73,7.03346667 12.506,6.80946667 12.23,6.80946667 L12.23,6.80946667 L10.274,6.80946667 L9.20133333,4.43613333 C9.038,4.07946667 8.45266667,4.0788 8.28933333,4.4368 L8.28933333,4.4368 L6.63466667,8.09613333 L6.18533333,7.1028 C6.104,6.9248 5.926,6.80946667 5.73,6.80946667 L5.73,6.80946667 L1.33933333,6.80946667 L1.33933333,4.4108 C1.33933333,3.30813333 2.236,2.4108 3.33933333,2.4108 L3.33933333,2.4108 Z" id="形状结合"></path>
                            </g>
                        </g>
                    </g>
                </g>
            </g>
        </g>
    </g>
</svg>
