<?xml version="1.0" encoding="UTF-8"?>
<svg width="16px" height="16px" viewBox="0 0 16 16" version="1.1" xmlns="http://www.w3.org/2000/svg" xmlns:xlink="http://www.w3.org/1999/xlink">
    <g id="1214" stroke="none" stroke-width="1" fill-rule="evenodd">
        <g id="调优工具insight-二期（330）补充场景" transform="translate(-158.000000, -2675.000000)">
            <g id="线性/ic_search_lined" transform="translate(158.000000, 2675.000000)">
                <g id="编组">
                    <rect id="矩形" opacity="0" x="0" y="0" width="16" height="16"></rect>
                    <path d="M6.68,1.33333333 C9.63280904,1.33333333 12.0266667,3.72719096 12.0266667,6.68 C12.0266667,7.59878937 11.794072,8.48490013 11.3570786,9.27148813 C11.222972,9.51288 10.9185704,9.5998519 10.6771785,9.4657453 C10.4357867,9.33163871 10.3488148,9.02723707 10.4829214,8.7858452 C10.8379023,8.14687943 11.0266667,7.42774826 11.0266667,6.68 C11.0266667,4.27947571 9.08052429,2.33333333 6.68,2.33333333 C4.27904992,2.33333333 2.33333333,4.27923481 2.33333333,6.68 C2.33333333,9.08076519 4.27904992,11.0266667 6.68,11.0266667 C7.74460244,11.0266667 8.74859928,10.6429825 9.53481304,9.95773907 C9.71345003,9.80204371 9.97320698,9.79503807 10.1587871,9.93122407 L10.2176869,9.98191525 L13.7565752,13.5368767 C13.9513945,13.7325807 13.9506772,14.0491624 13.7549731,14.2439816 C13.5770603,14.42109 13.2992487,14.436598 13.1038372,14.2909185 L13.0478681,14.2423795 L9.82414323,11.0038888 L9.6869695,11.1015225 C8.86943046,11.6586575 7.90846056,11.9817105 6.89739066,12.0223081 L6.68,12.0266667 C3.7267439,12.0266667 1.33333333,9.63302867 1.33333333,6.68 C1.33333333,3.72697133 3.7267439,1.33333333 6.68,1.33333333 Z" id="Stroke-1"></path>
                </g>
            </g>
        </g>
    </g>
</svg>