<?xml version="1.0" encoding="UTF-8"?>
<svg width="17px" height="16px" viewBox="0 0 17 16" version="1.1" xmlns="http://www.w3.org/2000/svg" xmlns:xlink="http://www.w3.org/1999/xlink">
    <title>编组备份</title>
    <defs>
        <rect id="path-1" x="0.0614530731" y="0" width="16" height="16"></rect>
    </defs>
    <g id="6月——调优730需求" stroke="none" stroke-width="1" fill="none" fill-rule="evenodd">
        <g transform="translate(-231.000000, -682.000000)" id="编组-18备份">
            <g transform="translate(47.000000, 673.000000)">
                <g id="编组备份" transform="translate(184.265938, 8.999416)">
                    <mask id="mask-2" fill="white">
                        <use xlink:href="#path-1"></use>
                    </mask>
                    <g id="蒙版"></g>
                    <path d="M3.61048635,1.50140427 C4.59307537,0.875439859 5.81317598,0.749055656 6.90320719,1.16032757 C7.76491483,1.48545234 8.4675372,2.11742872 8.88631728,2.93114258 L8.96625177,3.09627145 L9.02467382,3.23333037 L9.0334676,3.2337823 C11.3735311,3.29299958 13.6865664,4.17557884 15.1238006,5.56344323 L15.2744,5.71406198 L15.4180649,5.86846078 C15.9474127,6.46028968 15.9474127,7.35540793 15.4172514,7.94814409 C14.0622963,9.4556203 11.7204959,10.4483957 9.28809854,10.5721455 L9.03067382,10.5813304 L8.99437036,10.6716903 C8.45431768,11.9274446 7.25490722,12.7861969 5.88959011,12.8847964 L5.73134532,12.8927791 L5.57179645,12.8939116 C4.86947271,12.8962277 4.18083804,12.6996769 3.58536873,12.3268585 C3.20365784,12.0876355 2.8700907,11.7790859 2.59932357,11.4136437 C2.32283451,11.0336546 2.29224008,10.5276697 2.5223256,10.1146463 C2.76393252,9.68668618 3.24104801,9.44812843 3.71329584,9.50988624 C3.86710303,9.52519164 4.02104598,9.52241852 4.17168305,9.50267508 L4.3210907,9.4773159 L4.45934049,9.4426637 L4.41016117,9.36968387 C4.35458096,9.28012122 4.30993994,9.18222964 4.27775517,9.07767077 L4.24977868,8.97095101 L4.23044348,8.86015564 L4.22286728,8.74006073 L4.22286941,5.0741777 C4.22339759,4.89319188 4.26444203,4.71832984 4.34128458,4.55950914 L4.39164813,4.46622102 L4.44934049,4.37733037 L4.33035947,4.34709026 C4.23584915,4.3266735 4.14015154,4.31332597 4.04421319,4.30726251 L3.90024343,4.30365722 L3.75662248,4.31113919 C3.26929021,4.37462974 2.7921747,4.13607199 2.54838609,3.7042067 C2.32227622,3.29519179 2.35282177,2.79236512 2.63026379,2.40897206 C2.8985201,2.04727346 3.23195617,1.73884509 3.61048635,1.50140427 Z M6.55019549,2.09594647 C5.75489254,1.79587639 4.86468904,1.88808817 4.14483411,2.34666184 C3.86882062,2.51980739 3.62756447,2.74296934 3.43695295,2.99991862 C3.39014719,3.06460882 3.38492847,3.15051686 3.4213777,3.21649199 C3.46265629,3.28960907 3.54417157,3.33036671 3.64618225,3.31743548 C4.39398194,3.2485794 5.14011669,3.46544377 5.73450536,3.92440745 C6.02311404,4.14725979 5.98006011,4.58546454 5.6749356,4.75571327 L5.61043705,4.78604707 L5.37674366,4.87523544 L5.32731741,4.89841172 C5.27603113,4.92740994 5.24009201,4.97689095 5.22765805,5.03275876 L5.22286728,5.07563689 L5.22147887,8.7028253 L5.22461574,8.75643991 C5.23232441,8.81390229 5.26397364,8.86500181 5.31572952,8.89988909 L5.35825652,8.92286087 L5.63361784,9.04642044 C5.96153292,9.19356183 6.02584226,9.62059566 5.77897602,9.85995828 L5.72129588,9.90820736 L5.58002424,10.0097294 C5.00295299,10.3984667 4.30770817,10.5739753 3.59919021,10.5032388 C3.51592939,10.4923915 3.43441411,10.5331491 3.3945311,10.6037776 C3.35545938,10.6739176 3.36068644,10.7603652 3.40535397,10.8217855 C3.5992613,11.0834708 3.84043194,11.3065536 4.11622181,11.4793947 C4.55146378,11.751896 5.05496216,11.895605 5.57749117,11.8939479 C6.78887024,11.9117771 7.86125326,11.1138949 8.1922682,9.94848239 C8.24655584,9.75735055 8.40774665,9.61888768 8.59988786,9.5904778 L8.67324327,9.58509491 L9.01665949,9.58204441 C11.2710215,9.52337606 13.4667709,8.62225287 14.6727089,7.28057017 C14.8625314,7.06834214 14.8625314,6.74735548 14.6731321,6.53560003 C13.4686379,5.19236833 11.2582838,4.2921593 9.01484028,4.23363784 L8.78268176,4.2306027 L8.669713,4.2306027 C8.47617769,4.2306027 8.30241913,4.11927877 8.2198213,3.9488247 L8.19325969,3.88223464 L8.14662332,3.73513211 C7.90068769,3.02696224 7.37152432,2.45446991 6.68875831,2.15265947 L6.55019549,2.09594647 Z M10.0182461,4.99573943 C10.879286,4.99573943 11.5772967,5.69375018 11.5772967,6.55479007 C11.5772967,7.41582996 10.879286,8.11384071 10.0182461,8.11384071 C9.15720618,8.11384071 8.45919544,7.41582996 8.45919544,6.55479007 C8.45919544,5.69375018 9.15720618,4.99573943 10.0182461,4.99573943 Z M10.0182461,5.99573943 C9.70949093,5.99573943 9.45919544,6.24603493 9.45919544,6.55479007 C9.45919544,6.86354521 9.70949093,7.11384071 10.0182461,7.11384071 C10.3270012,7.11384071 10.5772967,6.86354521 10.5772967,6.55479007 C10.5772967,6.24603493 10.3270012,5.99573943 10.0182461,5.99573943 Z" id="形状结合" fill="#9E7349" fill-rule="nonzero" mask="url(#mask-2)" transform="translate(9.091847, 6.908069) rotate(-45.000000) translate(-9.091847, -6.908069) "></path>
                    <path d="M3.57351591,9.70410753 C3.76877806,9.50884539 4.08536055,9.50884539 4.28062269,9.70410753 C4.45813373,9.88161858 4.4742711,10.1593944 4.3290348,10.3551354 L4.28062269,10.4112143 L2.61135238,12.0804846 C2.41609023,12.2757468 2.09950775,12.2757468 1.9042456,12.0804846 C1.72673456,11.9029736 1.71059719,11.6251978 1.8558335,11.4294568 L1.9042456,11.3733778 L3.57351591,9.70410753 Z" id="路径-16" fill="#9E7349" fill-rule="nonzero" mask="url(#mask-2)"></path>
                    <path d="M5.68625659,11.6764364 C5.88151874,11.4811743 6.19810123,11.4811743 6.39336338,11.6764364 C6.57087442,11.8539474 6.58701178,12.1317232 6.44177548,12.3274642 L6.39336338,12.3835432 L5.54243765,13.2344689 C5.34717551,13.4297311 5.03059302,13.4297311 4.83533087,13.2344689 C4.65781983,13.0569579 4.64168246,12.7791821 4.78691877,12.5834411 L4.83533087,12.5273621 L5.68625659,11.6764364 Z" id="路径-16备份-2" fill="#9E7349" fill-rule="nonzero" mask="url(#mask-2)"></path>
                    <path d="M4.61282991,10.709688 C4.8078614,10.5141955 5.12444367,10.5138217 5.3199362,10.7088532 C5.49765668,10.8861546 5.51412198,11.1639111 5.36911686,11.3598234 L5.320771,11.4159595 L2.98067102,13.7615914 C2.78563954,13.9570839 2.46905727,13.9574577 2.27356474,13.7624262 C2.09584425,13.5851248 2.07937896,13.3073683 2.22438407,13.111456 L2.27272994,13.0553199 L4.61282991,10.709688 Z" id="路径-16备份" fill="#9E7349" fill-rule="nonzero" mask="url(#mask-2)"></path>
                </g>
            </g>
        </g>
    </g>
</svg>