<?xml version="1.0" encoding="utf-8"?>
<!-- Generator: Adobe Illustrator 24.0.1, SVG Export Plug-In . SVG Version: 6.00 Build 0)  -->
<svg version="1.1" id="图层_1" xmlns="http://www.w3.org/2000/svg" xmlns:xlink="http://www.w3.org/1999/xlink" x="0px" y="0px"
	 width="15px" height="15px" viewBox="0 0 16 16" style="enable-background:new 0 0 16 16;" xml:space="preserve">
<style type="text/css">
	.st0{fill:#595959;}
</style>
<title>icons/dark/disable/structure/hierarchy/supertypes</title>
<g id="icons_x2F_dark_x2F_disable_x2F_structure_x2F_hierarchy_x2F_supertypes">
	<g id="编组" transform="translate(1.000000, 1.000000)">
		<path id="矩形" class="st0" d="M4.5,9C4.8,9,5,9.2,5,9.5v4C5,13.8,4.8,14,4.5,14h-4C0.2,14,0,13.8,0,13.5v-4C0,9.2,0.2,9,0.5,9
			H4.5z M4,10H1v3h3V10z"/>
		<path id="路径-24" class="st0" d="M10,2v1H7.5v8.5c0,0.2-0.2,0.4-0.4,0.5L7,12H4v-1h2.5V2.5c0-0.2,0.2-0.4,0.4-0.5L7,2H10z"/>
		<path id="矩形备份" class="st0" d="M13.5,0C13.8,0,14,0.2,14,0.5v4C14,4.8,13.8,5,13.5,5h-4C9.2,5,9,4.8,9,4.5v-4
			C9,0.2,9.2,0,9.5,0H13.5z M13,1h-3v3h3V1z"/>
	</g>
</g>
</svg>
