<?xml version="1.0" encoding="UTF-8"?>
<svg width="16px" height="16px" viewBox="0 0 16 16" version="1.1" xmlns="http://www.w3.org/2000/svg" xmlns:xlink="http://www.w3.org/1999/xlink">
    <g id="Page-1" stroke="none" stroke-width="1" fill="none" fill-rule="evenodd">
        <g id="insight_session_play" transform="translate(-302.000000, -290.000000)" fill="#5291FF">
            <g id="Group-31" transform="translate(0.000000, 240.000000)">
                <g id="Group-20" transform="translate(265.000000, 42.000000)">
                    <g id="Group-3" transform="translate(0.000000, 4.000000)">
                        <g id="Group-2" transform="translate(33.000000, 0.000000)">
                            <g id="A269333F-E1CC-4DCC-A2FC-19DD41C57464_0" transform="translate(4.000000, 4.000000)">
                                <path d="M5.62031672,2.3175 L13.2136501,6.7015 C13.6829834,6.97216667 13.9636512,7.45816667 13.9636512,7.9995 C13.9643167,8.54216667 13.6836501,9.02816667 13.2143167,9.2995 L5.61965006,13.6835 C5.38498339,13.8195 5.12698339,13.8868333 4.86965006,13.8868333 C4.61231672,13.8868333 4.35431672,13.8195 4.11965006,13.6835 C3.64965006,13.4121667 3.36965006,12.9275 3.36965006,12.3848333 L3.36965006,3.61616667 C3.36965006,3.0735 3.65031672,2.5875 4.12031672,2.31683333 C4.58965006,2.0455 5.15031672,2.04483333 5.62031672,2.3175 Z" id="形状结合"></path>
                            </g>
                        </g>
                    </g>
                </g>
            </g>
        </g>
    </g>
</svg>