<?xml version="1.0" encoding="UTF-8"?>
<svg width="16px" height="16px" viewBox="0 0 16 16" version="1.1" xmlns="http://www.w3.org/2000/svg" xmlns:xlink="http://www.w3.org/1999/xlink">
    <g id="0818补充" stroke="none" stroke-width="1" fill-rule="evenodd">
        <g id="时间轴智能推荐" transform="translate(-1329.000000, -294.000000)">
            <g id="bt_S_gray_normal-Copy" transform="translate(1325.000000, 291.000000)">
                <g id="面性/ic_hand_thumbsup_filled" transform="translate(4.000000, 3.000000)">
                    <g id="编组">
                        <rect id="矩形" opacity="0" x="0" y="0" width="16" height="16"></rect>
                        <path d="M3.833335,6.78391317 L3.833335,14.4165798 L2.89000167,14.4165798 C2.169335,14.4165798 1.583335,13.8252465 1.583335,13.0972465 L1.583335,13.0972465 L1.583335,8.10391317 C1.583335,7.37657984 2.169335,6.78391317 2.89000167,6.78391317 L2.89000167,6.78391317 L3.833335,6.78391317 Z M7.417535,1.70717984 C7.69820167,1.55584651 8.02686833,1.54317984 8.31886833,1.66984651 C9.25686833,2.07717984 9.807535,3.07517984 9.657535,4.09584651 L9.657535,4.09584651 L9.26086833,6.78384651 L12.5808683,6.78384651 C13.1282017,6.78384651 13.6428683,7.02784651 13.9922017,7.45317984 C14.3482017,7.88584651 14.489535,8.45051317 14.3808683,9.00184651 L14.3808683,9.00184651 L13.605535,12.9251798 C13.4348683,13.7898465 12.6782017,14.4165132 11.8062017,14.4165132 L11.8062017,14.4165132 L4.833535,14.4165132 L4.833535,6.52784651 L5.62820167,5.80051317 C6.13020167,5.33984651 6.473535,4.71584651 6.59420167,4.04117984 L6.59420167,4.04117984 L6.88020167,2.44917984 C6.937535,2.12984651 7.133535,1.85917984 7.417535,1.70717984 Z" id="形状结合"></path>
                    </g>
                </g>
            </g>
        </g>
    </g>
</svg>